0
SECTION
2
HEADER
9
$INSUNITS
70
4
9
$ACADVER
1
AC1014
9
$HANDSEED
5
FFFF
0
ENDSEC
0
SECTION
2
TABLES
0
TABLE
2
VPORT
5
8
100
AcDbSymbolTable
0
ENDTAB
0
TABLE
2
LTYPE
5
5
100
AcDbSymbolTable
0
LTYPE
5
14
100
AcDbSymbolTableRecord
100
AcDbLinetypeTableRecord
2
BYBLOCK
70
0
0
LTYPE
5
15
100
AcDbSymbolTableRecord
100
AcDbLinetypeTableRecord
2
BYLAYER
70
0
0
ENDTAB
0
TABLE
2
LAYER
5
2
100
AcDbSymbolTable
70
2
0
LAYER
5
50
100
AcDbSymbolTableRecord
100
AcDbLayerTableRecord
2
0
70
0
6
CONTINUOUS
0
ENDTAB
0
TABLE
2
STYLE
5
3
100
AcDbSymbolTable
70
1
0
STYLE
5
11
100
AcDbSymbolTableRecord
100
AcDbTextStyleTableRecord
2
STANDARD
70
0
0
ENDTAB
0
TABLE
2
VIEW
5
6
100
AcDbSymbolTable
70
0
0
ENDTAB
0
TABLE
2
UCS
5
7
100
AcDbSymbolTable
70
0
0
ENDTAB
0
TABLE
2
APPID
5
9
100
AcDbSymbolTable
70
2
0
APPID
5
12
100
AcDbSymbolTableRecord
100
AcDbRegAppTableRecord
2
ACAD
70
0
0
ENDTAB
0
TABLE
2
DIMSTYLE
5
A
100
AcDbSymbolTable
70
1
0
ENDTAB
0
TABLE
2
BLOCK_RECORD
5
1
100
AcDbSymbolTable
70
1
0
BLOCK_RECORD
5
1F
100
AcDbSymbolTableRecord
100
AcDbBlockTableRecord
2
*MODEL_SPACE
0
BLOCK_RECORD
5
1B
100
AcDbSymbolTableRecord
100
AcDbBlockTableRecord
2
*PAPER_SPACE
0
ENDTAB
0
ENDSEC
0
SECTION
2
BLOCKS
0
BLOCK
5
20
100
AcDbEntity
100
AcDbBlockBegin
2
*MODEL_SPACE
0
ENDBLK
5
21
100
AcDbEntity
100
AcDbBlockEnd
0
BLOCK
5
1C
100
AcDbEntity
100
AcDbBlockBegin
2
*PAPER_SPACE
0
ENDBLK
5
1D
100
AcDbEntity
100
AcDbBlockEnd
0
ENDSEC
0
SECTION
2
ENTITIES
0
CIRCLE
5
100
100
AcDbEntity
8
0
100
AcDbCircle
10
-13
20
2
30
0
40
0.70000000000000007
210
-0
220
0
230
1
0
CIRCLE
5
101
100
AcDbEntity
8
0
100
AcDbCircle
10
-13
20
-2
30
0
40
0.70000000000000007
210
-0
220
0
230
1
0
LWPOLYLINE
5
102
100
AcDbEntity
8
0
100
AcDbPolyline
90
6
70
1
43
0.0
10
-9.9000000000000004
20
3.9999999105930328
10
-9.9000000000000004
20
-4
10
-8.9000000000000021
20
-4
10
-8.9000000000000021
20
-10.842213562679856
10
-14.500000000000002
20
-10.842213562679856
10
-14.500000000000002
20
3.9999999105930328
0
CIRCLE
5
103
100
AcDbEntity
8
0
100
AcDbCircle
10
13
20
2
30
0
40
0.70000000000000007
210
0
220
-0
230
1
0
CIRCLE
5
104
100
AcDbEntity
8
0
100
AcDbCircle
10
13
20
-2
30
0
40
0.70000000000000007
210
0
220
-0
230
1
0
LWPOLYLINE
5
105
100
AcDbEntity
8
0
100
AcDbPolyline
90
6
70
1
43
0.0
10
9.9000000000000004
20
-4
10
9.9000000000000004
20
3.9999999105930328
10
14.500000000000002
20
3.9999999105930328
10
14.500000000000002
20
-10.842213562679856
10
8.9000000000000021
20
-10.842213562679856
10
8.9000000000000021
20
-4
0
CIRCLE
5
106
100
AcDbEntity
8
0
100
AcDbCircle
10
15.8031933802498
20
16.179081307664141
30
0
40
0.5
210
0
220
-0
230
1
0
CIRCLE
5
107
100
AcDbEntity
8
0
100
AcDbCircle
10
15.585304023380655
20
13.688594562434776
30
0
40
0.5
210
0
220
-0
230
1
0
LWPOLYLINE
5
108
100
AcDbEntity
8
0
100
AcDbPolyline
90
8
70
1
43
0.0
10
17.840032160701224
20
16.51282912209178
42
0.41421356237309898
10
17.394603072582623
20
17.04367083810309
10
14.386095173412297
20
17.306881173408687
42
0.41421356237309759
10
13.855253457400991
20
16.861452085290086
10
13.497043354708113
20
12.767091876133012
10
16.983724708962477
20
12.462046784308535
10
16.940146837588646
20
11.963949435262666
10
17.43824418663452
20
11.920371563888834
0
CIRCLE
5
109
100
AcDbEntity
8
0
100
AcDbCircle
10
-15.8031933802498
20
16.179081307664141
30
0
40
0.5
210
0
220
0
230
1
0
CIRCLE
5
110
100
AcDbEntity
8
0
100
AcDbCircle
10
-15.585304023380655
20
13.688594562434776
30
0
40
0.5
210
0
220
0
230
1
0
LWPOLYLINE
5
111
100
AcDbEntity
8
0
100
AcDbPolyline
90
8
70
1
43
0.0
10
-17.394603072582623
20
17.04367083810309
42
0.41421356237309503
10
-17.840032160701224
20
16.51282912209178
10
-17.43824418663452
20
11.920371563888834
10
-16.940146837588646
20
11.963949435262666
10
-16.983724708962477
20
12.462046784308535
10
-13.497043354708115
20
12.767091876133012
10
-13.855253457400989
20
16.861452085290086
42
0.41421356237309648
10
-14.386095173412299
20
17.306881173408687
0
CIRCLE
5
112
100
AcDbEntity
8
0
100
AcDbCircle
10
-7.4644299216403418
20
29.998684913301705
30
0
40
0.50000000000000067
210
0
220
0
230
1
0
CIRCLE
5
113
100
AcDbEntity
8
0
100
AcDbCircle
10
-5.6966629686739712
20
28.230917960335336
30
0
40
0.50000000000000067
210
0
220
0
230
1
0
LWPOLYLINE
5
114
100
AcDbEntity
8
0
100
AcDbPolyline
90
8
70
1
43
0.0
10
-9.2392679108084401
20
29.638060486506706
42
0.41421356237309598
10
-9.2392679108084419
20
28.945095840943885
10
-5.9795056495384555
20
25.685333579673898
10
-5.6259522589451807
20
26.038886970267171
10
-5.9795056495384546
20
26.392440360860448
10
-3.50463197860581
20
28.867314031793097
10
-6.410840849282522
20
31.773522902469811
42
0.41421356237309553
10
-7.1038054948453375
20
31.773522902469807
0
CIRCLE
5
115
100
AcDbEntity
8
0
100
AcDbCircle
10
7.4644299216403418
20
29.998684913301705
30
0
40
0.50000000000000067
210
-0
220
0
230
1
0
CIRCLE
5
116
100
AcDbEntity
8
0
100
AcDbCircle
10
5.6966629686739712
20
28.230917960335336
30
0
40
0.50000000000000067
210
-0
220
0
230
1
0
LWPOLYLINE
5
117
100
AcDbEntity
8
0
100
AcDbPolyline
90
8
70
1
43
0.0
10
9.2392679108084419
20
28.945095840943885
42
0.41421356237309837
10
9.2392679108084401
20
29.638060486506706
10
7.1038054948453375
20
31.773522902469811
42
0.41421356237308987
10
6.410840849282522
20
31.773522902469811
10
3.5046319786058087
20
28.867314031793097
10
5.9795056495384555
20
26.392440360860444
10
5.6259522589451807
20
26.038886970267168
10
5.9795056495384555
20
25.685333579673895
0
LWPOLYLINE
5
118
100
AcDbEntity
8
0
100
AcDbPolyline
90
4
70
1
43
0.0
10
-8.5000000000000036
20
15.300000000000013
10
-8.5000000000000036
20
14.700000000000014
10
-7.9000000000000048
20
14.700000000000014
10
-7.9000000000000048
20
15.300000000000013
0
LWPOLYLINE
5
119
100
AcDbEntity
8
0
100
AcDbPolyline
90
4
70
1
43
0.0
10
-8.5000000000000053
20
13.300000000000011
10
-8.5000000000000053
20
12.700000000000012
10
-7.9000000000000048
20
12.700000000000012
10
-7.9000000000000048
20
13.300000000000011
0
LWPOLYLINE
5
120
100
AcDbEntity
8
0
100
AcDbPolyline
90
4
70
1
43
0.0
10
-8.5000000000000053
20
11.30000000000001
10
-8.5000000000000053
20
10.70000000000001
10
-7.9000000000000048
20
10.70000000000001
10
-7.9000000000000048
20
11.30000000000001
0
LWPOLYLINE
5
121
100
AcDbEntity
8
0
100
AcDbPolyline
90
20
70
1
43
0.0
10
-9.2000000000000064
20
10.20000000000001
42
0.41421356237309342
10
-9.0000000000000071
20
10.000000000000009
10
-7.4000000000000057
20
10.000000000000009
42
0.41421356237309992
10
-7.2000000000000046
20
10.20000000000001
10
-7.2000000000000046
20
11.800000000000011
42
0.41421356237309503
10
-7.4000000000000039
20
12.000000000000011
42
0.41421356237309992
10
-7.2000000000000046
20
12.20000000000001
10
-7.2000000000000046
20
13.800000000000011
42
0.41421356237309503
10
-7.4000000000000039
20
14.000000000000012
42
0.41421356237309992
10
-7.2000000000000046
20
14.200000000000014
10
-7.2000000000000028
20
15.800000000000015
42
0.41421356237309342
10
-7.400000000000003
20
16.000000000000014
10
-9.0000000000000053
20
16.000000000000014
42
0.41421356237309992
10
-9.2000000000000064
20
15.800000000000015
10
-9.2000000000000064
20
14.200000000000014
42
0.41421356237309503
10
-9.0000000000000053
20
14.000000000000012
42
0.41421356237309992
10
-9.2000000000000064
20
13.800000000000011
10
-9.2000000000000064
20
12.20000000000001
42
0.41421356237309503
10
-9.0000000000000053
20
12.000000000000011
42
0.41421356237309992
10
-9.2000000000000064
20
11.800000000000011
0
LWPOLYLINE
5
122
100
AcDbEntity
8
0
100
AcDbPolyline
90
4
70
1
43
0.0
10
8.5000000000000124
20
14.700000000000008
10
8.5000000000000124
20
15.30000000000001
10
7.900000000000011
20
15.30000000000001
10
7.900000000000011
20
14.700000000000008
0
LWPOLYLINE
5
123
100
AcDbEntity
8
0
100
AcDbPolyline
90
4
70
1
43
0.0
10
8.5000000000000124
20
12.700000000000006
10
8.5000000000000124
20
13.300000000000008
10
7.900000000000011
20
13.300000000000008
10
7.900000000000011
20
12.700000000000006
0
LWPOLYLINE
5
124
100
AcDbEntity
8
0
100
AcDbPolyline
90
4
70
1
43
0.0
10
8.5000000000000107
20
10.700000000000005
10
8.5000000000000107
20
11.300000000000006
10
7.900000000000011
20
11.300000000000006
10
7.900000000000011
20
10.700000000000005
0
LWPOLYLINE
5
125
100
AcDbEntity
8
0
100
AcDbPolyline
90
20
70
1
43
0.0
10
9.0000000000000107
20
10.000000000000004
42
0.41421356237309503
10
9.2000000000000117
20
10.200000000000005
10
9.2000000000000135
20
11.800000000000006
42
0.41421356237309503
10
9.0000000000000124
20
12.000000000000007
42
0.41421356237309503
10
9.2000000000000135
20
12.200000000000006
10
9.2000000000000135
20
13.800000000000008
42
0.41421356237309503
10
9.0000000000000124
20
14.000000000000007
42
0.41421356237309503
10
9.2000000000000135
20
14.200000000000008
10
9.2000000000000135
20
15.80000000000001
42
0.41421356237309503
10
9.0000000000000142
20
16.000000000000011
10
7.4000000000000119
20
16.000000000000011
42
0.41421356237309503
10
7.2000000000000108
20
15.80000000000001
10
7.2000000000000108
20
14.200000000000008
42
0.41421356237309503
10
7.400000000000011
20
14.000000000000007
42
0.41421356237309503
10
7.2000000000000108
20
13.800000000000008
10
7.2000000000000108
20
12.200000000000006
42
0.41421356237309503
10
7.400000000000011
20
12.000000000000007
42
0.41421356237309503
10
7.2000000000000108
20
11.800000000000006
10
7.2000000000000108
20
10.200000000000005
42
0.41421356237309342
10
7.4000000000000101
20
10.000000000000004
0
LWPOLYLINE
5
126
100
AcDbEntity
8
0
100
AcDbPolyline
90
8
70
1
43
0.0
10
-7.0000000000000009
20
-1.9999999999999984
10
-6.9999999999999973
20
14.000000000000004
42
-0.41421356237309437
10
-4.9999999999999973
20
16.000000000000004
10
5.0000000000000044
20
15.999999999999996
42
-0.41421356237309537
10
7.0000000000000053
20
14
10
7
20
-2.0000000000000013
42
-0.41421356237309465
10
4.9999999999999991
20
-4
10
-5.0000000000000018
20
-3.9999999999999991
42
-0.4142135623730947
0
LWPOLYLINE
5
127
100
AcDbEntity
8
0
100
AcDbPolyline
90
12
70
1
43
0.0
10
7.0000000000000071
20
-4.0000001937151053
10
-7.0000000000000071
20
-4.0000001937151017
10
-7.0000000000000036
20
10.000000000000009
10
-9.4000000000000057
20
10.000000000000007
10
-9.4000000000000057
20
16.000000000000011
10
-7.0000000000000027
20
16.000000000000014
10
-7.0000000000000018
20
19.000000000000018
10
7.0000000000000124
20
19.000000000000014
10
7.0000000000000115
20
16.000000000000011
10
9.4000000000000146
20
16.000000000000007
10
9.4000000000000128
20
10.000000000000004
10
7.0000000000000107
20
10.000000000000004
0
LWPOLYLINE
5
128
100
AcDbEntity
8
0
100
AcDbPolyline
90
8
70
1
43
0.0
10
-16.500000000000004
20
-6.9422135626798545
10
-16.500000000000004
20
-7.7422135626798552
10
-13.000000000000004
20
-7.7422135626798543
10
-13.000000000000004
20
-10.342213562679854
10
-1.0000000000000009
20
-10.342213562679854
10
-1.0000000000000009
20
-4.3422135626798539
10
-13.000000000000004
20
-4.3422135626798539
10
-13.000000000000004
20
-6.9422135626798518
0
LWPOLYLINE
5
129
100
AcDbEntity
8
0
100
AcDbPolyline
90
8
70
1
43
0.0
10
16.500000000000004
20
-6.9422135626798545
10
16.500000000000004
20
-7.7422135626798552
10
13.000000000000004
20
-7.7422135626798543
10
13.000000000000004
20
-10.342213562679854
10
1.0000000000000009
20
-10.342213562679854
10
1.0000000000000009
20
-4.3422135626798539
10
13.000000000000004
20
-4.3422135626798539
10
13.000000000000004
20
-6.9422135626798518
0
CIRCLE
5
130
100
AcDbEntity
8
0
100
AcDbCircle
10
-15.585304023380655
20
13.688594562434776
30
0
40
0.50000000000000044
210
0
220
0
230
1
0
CIRCLE
5
131
100
AcDbEntity
8
0
100
AcDbCircle
10
5.6966629686739712
20
28.230917960335336
30
0
40
0.50000000000000044
210
0
220
0
230
1
0
CIRCLE
5
132
100
AcDbEntity
8
0
100
AcDbCircle
10
-7.4644299216403418
20
29.998684913301705
30
0
40
0.50000000000000044
210
0
220
0
230
1
0
CIRCLE
5
133
100
AcDbEntity
8
0
100
AcDbCircle
10
15.8031933802498
20
16.179081307664141
30
0
40
0.50000000000000044
210
0
220
0
230
1
0
CIRCLE
5
134
100
AcDbEntity
8
0
100
AcDbCircle
10
-15.8031933802498
20
16.179081307664141
30
0
40
0.50000000000000044
210
0
220
0
230
1
0
CIRCLE
5
135
100
AcDbEntity
8
0
100
AcDbCircle
10
7.4644299216403418
20
29.998684913301705
30
0
40
0.50000000000000044
210
0
220
0
230
1
0
CIRCLE
5
136
100
AcDbEntity
8
0
100
AcDbCircle
10
-5.6966629686739712
20
28.230917960335336
30
0
40
0.50000000000000044
210
0
220
0
230
1
0
CIRCLE
5
137
100
AcDbEntity
8
0
100
AcDbCircle
10
15.585304023380655
20
13.688594562434776
30
0
40
0.50000000000000044
210
0
220
0
230
1
0
LWPOLYLINE
5
138
100
AcDbEntity
8
0
100
AcDbPolyline
90
26
70
1
43
0.0
10
18.70710676902975
20
-16.292893474199229
42
0.19891237184779298
10
19
20
-15.585786680855884
10
19
20
-6.0000000000000009
10
14.500000000000002
20
-6.0000000000000009
10
14.500000000000002
20
6.0000000894069672
10
19
20
6.0000000000000009
10
19
20
15
10
12.000000000000004
20
27
10
0.70710678118654746
20
38.292893218813461
42
0.41421356237309764
10
-0.70710678118654835
20
38.292893218813461
10
-12.000000000000007
20
27
10
-18.999999999999993
20
15
10
-19
20
6.0000000000000009
10
-14.500000000000002
20
6.0000000894069663
10
-14.500000000000002
20
-6.0000000000000018
10
-19
20
-6.0000000000000009
10
-19
20
-15.585786680855879
42
0.1989123718477934
10
-18.707106769029753
20
-16.292893474199229
10
-14.659545494978286
20
-20.340454609076861
10
-13.364318164425878
20
-19.04522727852445
10
-8.9802561210688587
20
-23.429289321881473
10
-10.275483376249124
20
-24.724516577061735
10
-6.2928930230276716
20
-28.70710679334335
42
0.19891236291152378
10
-5.5857862539979211
20
-29.000000000000004
10
5.5857862539979273
20
-29.000000000000004
42
0.19891236291152378
10
6.2928930230276787
20
-28.707106793343343
0
CIRCLE
5
139
100
AcDbEntity
8
0
100
AcDbCircle
10
-13
20
-2
30
0
40
0.70000000000000062
210
0
220
0
230
1
0
CIRCLE
5
140
100
AcDbEntity
8
0
100
AcDbCircle
10
-13
20
2
30
0
40
0.70000000000000062
210
0
220
0
230
1
0
CIRCLE
5
141
100
AcDbEntity
8
0
100
AcDbCircle
10
13
20
-2
30
0
40
0.70000000000000062
210
0
220
0
230
1
0
CIRCLE
5
142
100
AcDbEntity
8
0
100
AcDbCircle
10
13
20
2
30
0
40
0.70000000000000062
210
0
220
0
230
1
0
CIRCLE
5
143
100
AcDbEntity
8
0
100
AcDbCircle
10
-9.1923881554250446
20
-21.378679656440429
30
0
40
0.39999999999992375
210
0
220
0
230
1
0
CIRCLE
5
144
100
AcDbEntity
8
0
100
AcDbCircle
10
-11.31370849898483
20
-19.257359312880642
30
0
40
0.39999999999992486
210
0
220
0
230
1
0
ENDSEC
0
SECTION
2
OBJECTS
0
DICTIONARY
5
C
100
AcDbDictionary
3
ACAD_GROUP
350
D
3
ACAD_MLINESTYLE
350
17
0
DICTIONARY
5
D
100
AcDbDictionary
0
DICTIONARY
5
1A
330
C
100
AcDbDictionary
0
DICTIONARY
5
17
100
AcDbDictionary
0
ENDSEC
0
EOF
