M48
; DRILL file {KiCad (7.0.0)} date Tue Aug  6 08:44:51 2024
; FORMAT={-:-/ absolute / metric / decimal}
; #@! TF.CreationDate,2024-08-06T08:44:51+09:00
; #@! TF.GenerationSoftware,Kicad,Pcbnew,(7.0.0)
; #@! TF.FileFunction,Plated,1,2,PTH
FMAT,2
METRIC
; #@! TA.AperFunction,Plated,PTH,ViaDrill
T1C0.300
; #@! TA.AperFunction,Plated,PTH,ComponentDrill
T2C0.650
; #@! TA.AperFunction,Plated,PTH,ComponentDrill
T3C0.700
; #@! TA.AperFunction,Plated,PTH,ComponentDrill
T4C0.800
%
G90
G05
T1
X121.6Y-93.4
X124.0Y-108.5
X124.0Y-110.5
X124.0Y-112.5
X126.5Y-112.5
X126.7Y-80.4
X126.719Y-82.0
X127.0Y-86.0
X128.0Y-76.0
X128.0Y-114.5
X128.5Y-77.4
X129.0Y-91.0
X129.2Y-105.8
X129.2Y-106.8
X129.2Y-107.8
X129.2Y-108.8
X129.2Y-111.6
X130.0Y-74.0
X130.0Y-86.0
X130.0Y-89.0
X130.2Y-78.5
X130.2Y-79.5
X130.3Y-114.3
X130.9Y-97.5
X130.9Y-98.5
X130.9Y-99.5
X130.9Y-100.5
X130.9Y-101.5
X130.9Y-102.5
X131.0Y-96.0
X131.3Y-82.1
X131.6Y-94.1
X131.6Y-106.8
X131.6Y-107.8
X131.6Y-108.8
X131.6Y-109.8
X131.9Y-95.6
X132.3Y-83.1
X132.5Y-126.5
X133.0Y-77.8
X133.0Y-86.0
X134.1Y-116.2
X134.2Y-121.0
X134.6Y-115.0
X134.65Y-114.1
X134.7Y-103.8
X134.7Y-125.2
X134.9Y-103.0
X135.0Y-76.4
X135.2Y-119.1
X135.3Y-95.6
X135.4Y-96.7
X135.5Y-125.2
X135.6Y-81.1
X135.7Y-93.8
X135.7Y-102.8
X135.9Y-118.95
X136.0Y-86.0
X136.0Y-89.0
X136.2Y-112.5
X136.2Y-114.5
X136.3Y-77.3
X136.3Y-95.7
X136.3Y-125.2
X136.4Y-79.7
X136.4Y-102.2
X136.6Y-93.8
X137.0Y-81.1
X137.1Y-125.2
X137.5Y-117.9
X137.5Y-118.9
X137.7Y-98.8
X137.7Y-100.0
X137.7Y-101.2
X137.8Y-94.5
X138.1Y-114.5
X138.5Y-94.0
X138.5Y-95.0
X138.6Y-96.3
X138.8Y-80.7
X138.8Y-109.3
X139.3Y-84.0
X139.3Y-86.8
X139.5Y-70.5
X139.5Y-79.1
X139.5Y-106.1
X139.7Y-98.2
X139.8Y-82.9
X140.0Y-101.8
X140.0Y-109.3
X140.0Y-110.7
X140.1Y-94.0
X140.1Y-95.0
X140.3Y-118.3
X140.4Y-106.1
X140.5Y-70.5
X140.5Y-122.0
X140.5Y-122.8
X140.7Y-121.0
X140.8Y-94.5
X141.0Y-79.1
X141.0Y-80.6
X141.2Y-125.2
X141.3Y-106.1
X141.4Y-96.7
X141.7Y-114.4
X141.894Y-92.706
X142.0Y-100.0
X142.0Y-125.2
X142.026Y-100.785
X142.2Y-106.1
X142.3Y-91.8
X142.8Y-125.2
X143.1Y-84.3
X143.5Y-85.5
X143.5Y-87.5
X143.6Y-125.2
X143.8Y-82.7
X144.1Y-121.8
X144.2Y-111.8
X144.2Y-117.0
X144.9Y-92.3
X145.0Y-85.5
X145.0Y-87.5
X145.0Y-89.5
X145.2Y-119.7
X145.7Y-104.0
X146.0Y-77.8
X146.0Y-107.5
X146.1Y-91.8
X146.2Y-110.0
X146.3Y-76.2
X146.4Y-103.5
X146.4Y-127.8
X146.5Y-95.5
X146.5Y-97.0
X146.5Y-98.5
X146.6Y-83.2
X146.8Y-114.4
X146.9Y-82.2
X147.1Y-120.8
X147.1Y-121.6
X147.1Y-122.4
X147.2Y-119.7
X147.4Y-101.5
X147.5Y-107.5
X148.2Y-96.5
X148.2Y-103.4
X148.5Y-75.0
X148.5Y-115.8
X148.6Y-112.0
X149.179Y-112.726
X149.211Y-114.389
X149.3Y-121.0
X149.5Y-77.2
X149.6Y-95.3
X149.988Y-112.726
X150.0Y-74.0
X150.0Y-114.4
X150.3Y-116.0
X150.5Y-83.8
X150.5Y-86.3
X150.7Y-79.8
X150.8Y-94.1
X150.8Y-112.3
X150.8Y-113.8
X151.5Y-75.5
X151.7Y-121.9
X152.0Y-90.7
X152.5Y-111.5
X152.5Y-112.5
X152.8Y-85.5
X152.8Y-95.0
X152.9Y-88.2
X153.0Y-77.0
X153.0Y-92.3
X153.2Y-82.0
X153.8Y-92.3
X153.8Y-95.0
X154.0Y-82.9
X154.5Y-113.5
X154.5Y-115.5
X154.873Y-112.383
X155.5Y-107.0
X155.9Y-109.3
X156.1Y-117.3
X158.0Y-107.0
X158.4Y-93.4
X158.5Y-115.5
T2
X138.5Y-124.5
X139.77Y-124.5
X144.73Y-124.5
X146.0Y-124.5
X152.4Y-115.13
X152.4Y-116.4
X152.4Y-117.67
X152.4Y-118.94
X152.4Y-120.21
T3
X124.07Y-115.27
X125.13Y-116.33
T4
X122.941Y-89.472
X123.107Y-91.369
X125.472Y-89.25
X125.638Y-91.148
X135.33Y-75.0
X136.6Y-72.8
X136.98Y-75.952
X138.25Y-73.752
X141.75Y-73.752
X143.02Y-75.952
X143.4Y-72.8
X144.67Y-75.0
X154.362Y-91.148
X154.528Y-89.25
X156.893Y-91.369
X157.059Y-89.472
T0
M30
