%TF.GenerationSoftware,KiCad,Pcbnew,(7.0.0)*%
%TF.CreationDate,2024-08-06T08:44:49+09:00*%
%TF.ProjectId,extraice,65787472-6169-4636-952e-6b696361645f,rev?*%
%TF.SameCoordinates,Original*%
%TF.FileFunction,Legend,Bot*%
%TF.FilePolarity,Positive*%
%FSLAX46Y46*%
G04 Gerber Fmt 4.6, Leading zero omitted, Abs format (unit mm)*
G04 Created by KiCad (PCBNEW (7.0.0)) date 2024-08-06 08:44:49*
%MOMM*%
%LPD*%
G01*
G04 APERTURE LIST*
%ADD10C,0.300000*%
%ADD11C,0.120000*%
G04 APERTURE END LIST*
D10*
X148190476Y-104687142D02*
X147523809Y-104687142D01*
X147238095Y-105734761D02*
X148190476Y-105734761D01*
X148190476Y-105734761D02*
X148190476Y-103734761D01*
X148190476Y-103734761D02*
X147238095Y-103734761D01*
X146571428Y-103734761D02*
X145238095Y-105734761D01*
X145238095Y-103734761D02*
X146571428Y-105734761D01*
X144761904Y-103734761D02*
X143619047Y-103734761D01*
X144190476Y-105734761D02*
X144190476Y-103734761D01*
X141809523Y-105734761D02*
X142476190Y-104782380D01*
X142952380Y-105734761D02*
X142952380Y-103734761D01*
X142952380Y-103734761D02*
X142190475Y-103734761D01*
X142190475Y-103734761D02*
X141999999Y-103830000D01*
X141999999Y-103830000D02*
X141904761Y-103925238D01*
X141904761Y-103925238D02*
X141809523Y-104115714D01*
X141809523Y-104115714D02*
X141809523Y-104401428D01*
X141809523Y-104401428D02*
X141904761Y-104591904D01*
X141904761Y-104591904D02*
X141999999Y-104687142D01*
X141999999Y-104687142D02*
X142190475Y-104782380D01*
X142190475Y-104782380D02*
X142952380Y-104782380D01*
X141047618Y-105163333D02*
X140095237Y-105163333D01*
X141238094Y-105734761D02*
X140571428Y-103734761D01*
X140571428Y-103734761D02*
X139904761Y-105734761D01*
X139238094Y-105734761D02*
X139238094Y-103734761D01*
X137142856Y-105544285D02*
X137238094Y-105639523D01*
X137238094Y-105639523D02*
X137523808Y-105734761D01*
X137523808Y-105734761D02*
X137714284Y-105734761D01*
X137714284Y-105734761D02*
X137999999Y-105639523D01*
X137999999Y-105639523D02*
X138190475Y-105449047D01*
X138190475Y-105449047D02*
X138285713Y-105258571D01*
X138285713Y-105258571D02*
X138380951Y-104877619D01*
X138380951Y-104877619D02*
X138380951Y-104591904D01*
X138380951Y-104591904D02*
X138285713Y-104210952D01*
X138285713Y-104210952D02*
X138190475Y-104020476D01*
X138190475Y-104020476D02*
X137999999Y-103830000D01*
X137999999Y-103830000D02*
X137714284Y-103734761D01*
X137714284Y-103734761D02*
X137523808Y-103734761D01*
X137523808Y-103734761D02*
X137238094Y-103830000D01*
X137238094Y-103830000D02*
X137142856Y-103925238D01*
X136285713Y-104687142D02*
X135619046Y-104687142D01*
X135333332Y-105734761D02*
X136285713Y-105734761D01*
X136285713Y-105734761D02*
X136285713Y-103734761D01*
X136285713Y-103734761D02*
X135333332Y-103734761D01*
X133523808Y-103734761D02*
X134476189Y-103734761D01*
X134476189Y-103734761D02*
X134571427Y-104687142D01*
X134571427Y-104687142D02*
X134476189Y-104591904D01*
X134476189Y-104591904D02*
X134285713Y-104496666D01*
X134285713Y-104496666D02*
X133809522Y-104496666D01*
X133809522Y-104496666D02*
X133619046Y-104591904D01*
X133619046Y-104591904D02*
X133523808Y-104687142D01*
X133523808Y-104687142D02*
X133428570Y-104877619D01*
X133428570Y-104877619D02*
X133428570Y-105353809D01*
X133428570Y-105353809D02*
X133523808Y-105544285D01*
X133523808Y-105544285D02*
X133619046Y-105639523D01*
X133619046Y-105639523D02*
X133809522Y-105734761D01*
X133809522Y-105734761D02*
X134285713Y-105734761D01*
X134285713Y-105734761D02*
X134476189Y-105639523D01*
X134476189Y-105639523D02*
X134571427Y-105544285D01*
X132666665Y-105163333D02*
X131714284Y-105163333D01*
X132857141Y-105734761D02*
X132190475Y-103734761D01*
X132190475Y-103734761D02*
X131523808Y-105734761D01*
D11*
%TO.C,TP1*%
X144600000Y-106800000D02*
X143200000Y-106800000D01*
X143200000Y-106800000D02*
X143200000Y-108200000D01*
X144600000Y-108200000D02*
X144600000Y-106800000D01*
X143200000Y-108200000D02*
X144600000Y-108200000D01*
%TO.C,TP3*%
X141800000Y-106800000D02*
X140400000Y-106800000D01*
X140400000Y-106800000D02*
X140400000Y-108200000D01*
X141800000Y-108200000D02*
X141800000Y-106800000D01*
X140400000Y-108200000D02*
X141800000Y-108200000D01*
%TO.C,TP4*%
X140400000Y-106800000D02*
X139000000Y-106800000D01*
X139000000Y-106800000D02*
X139000000Y-108200000D01*
X140400000Y-108200000D02*
X140400000Y-106800000D01*
X139000000Y-108200000D02*
X140400000Y-108200000D01*
%TO.C,TP2*%
X143200000Y-106800000D02*
X141800000Y-106800000D01*
X141800000Y-106800000D02*
X141800000Y-108200000D01*
X143200000Y-108200000D02*
X143200000Y-106800000D01*
X141800000Y-108200000D02*
X143200000Y-108200000D01*
%TD*%
M02*
