%TF.GenerationSoftware,KiCad,Pcbnew,(7.0.0)*%
%TF.CreationDate,2024-08-06T08:44:50+09:00*%
%TF.ProjectId,extraice,65787472-6169-4636-952e-6b696361645f,rev?*%
%TF.SameCoordinates,Original*%
%TF.FileFunction,Profile,NP*%
%FSLAX46Y46*%
G04 Gerber Fmt 4.6, Leading zero omitted, Abs format (unit mm)*
G04 Created by KiCad (PCBNEW (7.0.0)) date 2024-08-06 08:44:50*
%MOMM*%
%LPD*%
G01*
G04 APERTURE LIST*
%TA.AperFunction,Profile*%
%ADD10C,0.010000*%
%TD*%
G04 APERTURE END LIST*
D10*
X159000000Y-115585787D02*
X159000000Y-106000000D01*
X146292893Y-128707107D02*
X158707107Y-116292893D01*
X154500000Y-94000000D02*
X159000000Y-94000000D01*
X129724517Y-124724517D02*
X133707107Y-128707107D01*
X159000000Y-106000000D02*
X154500000Y-106000000D01*
X133000000Y-68000000D02*
X128000000Y-73000000D01*
X125500000Y-94000000D02*
X125500000Y-106000000D01*
X159000000Y-85000000D02*
X152000000Y-73000000D01*
X121292893Y-116292893D02*
X125340455Y-120340455D01*
X128000000Y-73000000D02*
X121000000Y-85000000D01*
X158707093Y-116292879D02*
G75*
G03*
X159000000Y-115585787I-706993J707079D01*
G01*
X133707100Y-128707114D02*
G75*
G03*
X134414214Y-129000000I707100J707114D01*
G01*
X121000000Y-106000000D02*
X121000000Y-115585787D01*
X126635682Y-119045227D02*
X131019744Y-123429289D01*
X121000000Y-85000000D02*
X121000000Y-94000000D01*
X131019744Y-123429289D02*
X129724517Y-124724517D01*
X154500000Y-106000000D02*
X154500000Y-94000000D01*
X125500000Y-106000000D02*
X121000000Y-106000000D01*
X134414214Y-129000000D02*
X145585786Y-129000000D01*
X147000000Y-68000000D02*
X133000000Y-68000000D01*
X121000010Y-115585787D02*
G75*
G03*
X121292893Y-116292893I999990J-13D01*
G01*
X121000000Y-94000000D02*
X125500000Y-94000000D01*
X125340455Y-120340455D02*
X126635682Y-119045227D01*
X145585786Y-128999961D02*
G75*
G03*
X146292893Y-128707107I14J1000061D01*
G01*
X152000000Y-73000000D02*
X147000000Y-68000000D01*
X159000000Y-85000000D02*
X159000000Y-94000000D01*
M02*
