%TF.GenerationSoftware,KiCad,Pcbnew,(7.0.0)*%
%TF.CreationDate,2024-08-06T08:44:49+09:00*%
%TF.ProjectId,extraice,65787472-6169-4636-952e-6b696361645f,rev?*%
%TF.SameCoordinates,Original*%
%TF.FileFunction,Paste,Top*%
%TF.FilePolarity,Positive*%
%FSLAX46Y46*%
G04 Gerber Fmt 4.6, Leading zero omitted, Abs format (unit mm)*
G04 Created by KiCad (PCBNEW (7.0.0)) date 2024-08-06 08:44:49*
%MOMM*%
%LPD*%
G01*
G04 APERTURE LIST*
G04 Aperture macros list*
%AMRoundRect*
0 Rectangle with rounded corners*
0 $1 Rounding radius*
0 $2 $3 $4 $5 $6 $7 $8 $9 X,Y pos of 4 corners*
0 Add a 4 corners polygon primitive as box body*
4,1,4,$2,$3,$4,$5,$6,$7,$8,$9,$2,$3,0*
0 Add four circle primitives for the rounded corners*
1,1,$1+$1,$2,$3*
1,1,$1+$1,$4,$5*
1,1,$1+$1,$6,$7*
1,1,$1+$1,$8,$9*
0 Add four rect primitives between the rounded corners*
20,1,$1+$1,$2,$3,$4,$5,0*
20,1,$1+$1,$4,$5,$6,$7,0*
20,1,$1+$1,$6,$7,$8,$9,0*
20,1,$1+$1,$8,$9,$2,$3,0*%
%AMRotRect*
0 Rectangle, with rotation*
0 The origin of the aperture is its center*
0 $1 length*
0 $2 width*
0 $3 Rotation angle, in degrees counterclockwise*
0 Add horizontal line*
21,1,$1,$2,0,0,$3*%
G04 Aperture macros list end*
%ADD10RoundRect,0.150000X0.150000X-0.512500X0.150000X0.512500X-0.150000X0.512500X-0.150000X-0.512500X0*%
%ADD11RoundRect,0.135000X0.185000X-0.135000X0.185000X0.135000X-0.185000X0.135000X-0.185000X-0.135000X0*%
%ADD12RoundRect,0.225000X-0.225000X-0.250000X0.225000X-0.250000X0.225000X0.250000X-0.225000X0.250000X0*%
%ADD13R,0.800000X0.800000*%
%ADD14RoundRect,0.150000X-0.587500X-0.150000X0.587500X-0.150000X0.587500X0.150000X-0.587500X0.150000X0*%
%ADD15RoundRect,0.140000X0.140000X0.170000X-0.140000X0.170000X-0.140000X-0.170000X0.140000X-0.170000X0*%
%ADD16RoundRect,0.075000X-0.175000X-0.075000X0.175000X-0.075000X0.175000X0.075000X-0.175000X0.075000X0*%
%ADD17R,1.400000X1.600000*%
%ADD18RoundRect,0.225000X0.225000X0.250000X-0.225000X0.250000X-0.225000X-0.250000X0.225000X-0.250000X0*%
%ADD19RoundRect,0.150000X0.587500X0.150000X-0.587500X0.150000X-0.587500X-0.150000X0.587500X-0.150000X0*%
%ADD20RoundRect,0.140000X-0.140000X-0.170000X0.140000X-0.170000X0.140000X0.170000X-0.140000X0.170000X0*%
%ADD21RoundRect,0.135000X-0.135000X-0.185000X0.135000X-0.185000X0.135000X0.185000X-0.135000X0.185000X0*%
%ADD22R,0.650000X0.750000*%
%ADD23R,0.250000X0.500000*%
%ADD24RoundRect,0.150000X0.150000X-0.587500X0.150000X0.587500X-0.150000X0.587500X-0.150000X-0.587500X0*%
%ADD25RoundRect,0.250000X-0.285000X0.285000X-0.285000X-0.285000X0.285000X-0.285000X0.285000X0.285000X0*%
%ADD26RoundRect,0.050000X-0.050000X0.350000X-0.050000X-0.350000X0.050000X-0.350000X0.050000X0.350000X0*%
%ADD27RoundRect,0.050000X-0.350000X0.050000X-0.350000X-0.050000X0.350000X-0.050000X0.350000X0.050000X0*%
%ADD28RoundRect,0.135000X-0.035355X0.226274X-0.226274X0.035355X0.035355X-0.226274X0.226274X-0.035355X0*%
%ADD29RoundRect,0.200000X0.275000X-0.200000X0.275000X0.200000X-0.275000X0.200000X-0.275000X-0.200000X0*%
%ADD30RoundRect,0.200000X0.200000X0.275000X-0.200000X0.275000X-0.200000X-0.275000X0.200000X-0.275000X0*%
%ADD31RoundRect,0.150000X-0.150000X0.512500X-0.150000X-0.512500X0.150000X-0.512500X0.150000X0.512500X0*%
%ADD32RoundRect,0.150000X0.512500X0.150000X-0.512500X0.150000X-0.512500X-0.150000X0.512500X-0.150000X0*%
%ADD33RoundRect,0.225000X-0.250000X0.225000X-0.250000X-0.225000X0.250000X-0.225000X0.250000X0.225000X0*%
%ADD34RoundRect,0.200000X-0.200000X-0.275000X0.200000X-0.275000X0.200000X0.275000X-0.200000X0.275000X0*%
%ADD35RoundRect,0.218750X0.218750X0.256250X-0.218750X0.256250X-0.218750X-0.256250X0.218750X-0.256250X0*%
%ADD36RoundRect,0.135000X-0.185000X0.135000X-0.185000X-0.135000X0.185000X-0.135000X0.185000X0.135000X0*%
%ADD37R,0.675000X0.250000*%
%ADD38R,0.250000X0.675000*%
%ADD39RotRect,1.000000X0.800000X315.000000*%
%ADD40RotRect,0.700000X1.500000X315.000000*%
%ADD41RoundRect,0.250000X-1.100000X0.325000X-1.100000X-0.325000X1.100000X-0.325000X1.100000X0.325000X0*%
%ADD42RoundRect,0.218750X-0.218750X-0.256250X0.218750X-0.256250X0.218750X0.256250X-0.218750X0.256250X0*%
%ADD43RoundRect,0.135000X0.135000X0.185000X-0.135000X0.185000X-0.135000X-0.185000X0.135000X-0.185000X0*%
%ADD44RoundRect,0.150000X0.150000X0.200000X-0.150000X0.200000X-0.150000X-0.200000X0.150000X-0.200000X0*%
%ADD45RoundRect,0.150000X-0.512500X-0.150000X0.512500X-0.150000X0.512500X0.150000X-0.512500X0.150000X0*%
%ADD46RoundRect,0.218750X-0.026517X0.335876X-0.335876X0.026517X0.026517X-0.335876X0.335876X-0.026517X0*%
%ADD47RoundRect,0.090000X0.810000X-0.360000X0.810000X0.360000X-0.810000X0.360000X-0.810000X-0.360000X0*%
G04 APERTURE END LIST*
D10*
%TO.C,U17*%
X132650000Y-94137500D03*
X133600000Y-94137500D03*
X134550000Y-94137500D03*
X134550000Y-91862500D03*
X132650000Y-91862500D03*
%TD*%
D11*
%TO.C,R10*%
X126000000Y-82010000D03*
X126000000Y-80990000D03*
%TD*%
D12*
%TO.C,C18*%
X137225000Y-70500000D03*
X138775000Y-70500000D03*
%TD*%
D13*
%TO.C,J9*%
X131799999Y-97499999D03*
X131799999Y-98499999D03*
X131799999Y-99499999D03*
X131799999Y-100499999D03*
X131799999Y-101499999D03*
X131799999Y-102499999D03*
%TD*%
D10*
%TO.C,U1*%
X131850000Y-113737500D03*
X132800000Y-113737500D03*
X133750000Y-113737500D03*
X133750000Y-111462500D03*
X131850000Y-111462500D03*
%TD*%
D14*
%TO.C,Q5*%
X151062500Y-93050000D03*
X151062500Y-94950000D03*
X152937500Y-94000000D03*
%TD*%
D15*
%TO.C,C21*%
X129480000Y-79600000D03*
X128520000Y-79600000D03*
%TD*%
D16*
%TO.C,U6*%
X134700000Y-115850000D03*
X134700000Y-116350000D03*
X134700000Y-116850000D03*
X134700000Y-117350000D03*
X137300000Y-117350000D03*
X137300000Y-116850000D03*
X137300000Y-116350000D03*
X137300000Y-115850000D03*
D17*
X135999999Y-116599999D03*
%TD*%
D15*
%TO.C,C25*%
X151480000Y-84500000D03*
X150520000Y-84500000D03*
%TD*%
D18*
%TO.C,C3*%
X134375000Y-95800000D03*
X132825000Y-95800000D03*
%TD*%
D19*
%TO.C,Q3*%
X128937500Y-94950000D03*
X128937500Y-93050000D03*
X127062500Y-94000000D03*
%TD*%
D20*
%TO.C,C20*%
X128520000Y-78500000D03*
X129480000Y-78500000D03*
%TD*%
D21*
%TO.C,R28*%
X144990000Y-77000000D03*
X146010000Y-77000000D03*
%TD*%
D15*
%TO.C,C11*%
X136380000Y-115000000D03*
X135420000Y-115000000D03*
%TD*%
D22*
%TO.C,U5*%
X138599999Y-121499999D03*
X139399999Y-121499999D03*
D23*
X138249999Y-122449999D03*
X138749999Y-122449999D03*
X139249999Y-122449999D03*
X139749999Y-122449999D03*
X139749999Y-120549999D03*
X139249999Y-120549999D03*
X138749999Y-120549999D03*
X138249999Y-120549999D03*
%TD*%
D20*
%TO.C,C27*%
X150500000Y-85500000D03*
X151460000Y-85500000D03*
%TD*%
D24*
%TO.C,Q2*%
X141050000Y-82537500D03*
X142950000Y-82537500D03*
X142000000Y-80662500D03*
%TD*%
D25*
%TO.C,U3*%
X145530000Y-113070000D03*
X144200000Y-113070000D03*
X142870000Y-113070000D03*
X145530000Y-114400000D03*
X144200000Y-114400000D03*
X142870000Y-114400000D03*
X145530000Y-115730000D03*
X144200000Y-115730000D03*
X142870000Y-115730000D03*
D26*
X146800000Y-110950000D03*
X146400000Y-110950000D03*
X146000000Y-110950000D03*
X145600000Y-110950000D03*
X145200000Y-110950000D03*
X144800000Y-110950000D03*
X144400000Y-110950000D03*
X144000000Y-110950000D03*
X143600000Y-110950000D03*
X143200000Y-110950000D03*
X142800000Y-110950000D03*
X142400000Y-110950000D03*
X142000000Y-110950000D03*
X141600000Y-110950000D03*
D27*
X140750000Y-111800000D03*
X140750000Y-112200000D03*
X140750000Y-112600000D03*
X140750000Y-113000000D03*
X140750000Y-113400000D03*
X140750000Y-113800000D03*
X140750000Y-114200000D03*
X140750000Y-114600000D03*
X140750000Y-115000000D03*
X140750000Y-115400000D03*
X140750000Y-115800000D03*
X140750000Y-116200000D03*
X140750000Y-116600000D03*
X140750000Y-117000000D03*
D26*
X141600000Y-117850000D03*
X142000000Y-117850000D03*
X142400000Y-117850000D03*
X142800000Y-117850000D03*
X143200000Y-117850000D03*
X143600000Y-117850000D03*
X144000000Y-117850000D03*
X144400000Y-117850000D03*
X144800000Y-117850000D03*
X145200000Y-117850000D03*
X145600000Y-117850000D03*
X146000000Y-117850000D03*
X146400000Y-117850000D03*
X146800000Y-117850000D03*
D27*
X147650000Y-117000000D03*
X147650000Y-116600000D03*
X147650000Y-116200000D03*
X147650000Y-115800000D03*
X147650000Y-115400000D03*
X147650000Y-115000000D03*
X147650000Y-114600000D03*
X147650000Y-114200000D03*
X147650000Y-113800000D03*
X147650000Y-113400000D03*
X147650000Y-113000000D03*
X147650000Y-112600000D03*
X147650000Y-112200000D03*
X147650000Y-111800000D03*
%TD*%
D28*
%TO.C,R2*%
X148560624Y-125039376D03*
X147839376Y-125760624D03*
%TD*%
D22*
%TO.C,U2*%
X145099999Y-121499999D03*
X145899999Y-121499999D03*
D23*
X144749999Y-122449999D03*
X145249999Y-122449999D03*
X145749999Y-122449999D03*
X146249999Y-122449999D03*
X146249999Y-120549999D03*
X145749999Y-120549999D03*
X145249999Y-120549999D03*
X144749999Y-120549999D03*
%TD*%
D29*
%TO.C,R6*%
X139500000Y-78325000D03*
X139500000Y-76675000D03*
%TD*%
D20*
%TO.C,C22*%
X135420000Y-79000000D03*
X136380000Y-79000000D03*
%TD*%
D11*
%TO.C,R26*%
X149600000Y-94510000D03*
X149600000Y-93490000D03*
%TD*%
D30*
%TO.C,R23*%
X124825000Y-93000000D03*
X123175000Y-93000000D03*
%TD*%
D31*
%TO.C,U18*%
X146950000Y-78862500D03*
X146000000Y-78862500D03*
X145050000Y-78862500D03*
X145050000Y-81137500D03*
X146000000Y-81137500D03*
X146950000Y-81137500D03*
%TD*%
D21*
%TO.C,R4*%
X144490000Y-128000000D03*
X145510000Y-128000000D03*
%TD*%
D32*
%TO.C,U19*%
X152137500Y-82950000D03*
X152137500Y-82000000D03*
X152137500Y-81050000D03*
X149862500Y-81050000D03*
X149862500Y-82000000D03*
X149862500Y-82950000D03*
%TD*%
D12*
%TO.C,C12*%
X132825000Y-90200000D03*
X134375000Y-90200000D03*
%TD*%
D33*
%TO.C,C9*%
X128000000Y-88225000D03*
X128000000Y-89775000D03*
%TD*%
D34*
%TO.C,R9*%
X155175000Y-93000000D03*
X156825000Y-93000000D03*
%TD*%
D18*
%TO.C,C7*%
X142775000Y-70500000D03*
X141225000Y-70500000D03*
%TD*%
D29*
%TO.C,R8*%
X141000000Y-78325000D03*
X141000000Y-76675000D03*
%TD*%
D15*
%TO.C,C26*%
X149480000Y-79000000D03*
X148520000Y-79000000D03*
%TD*%
D33*
%TO.C,C19*%
X152000000Y-88225000D03*
X152000000Y-89775000D03*
%TD*%
D18*
%TO.C,C2*%
X133575000Y-117000000D03*
X132025000Y-117000000D03*
%TD*%
D35*
%TO.C,D2*%
X142787500Y-128000000D03*
X141212500Y-128000000D03*
%TD*%
D36*
%TO.C,R24*%
X130400000Y-93490000D03*
X130400000Y-94510000D03*
%TD*%
D37*
%TO.C,U9*%
X141262499Y-100749999D03*
X141262499Y-100249999D03*
X141262499Y-99749999D03*
X141262499Y-99249999D03*
D38*
X140499999Y-98987499D03*
X139999999Y-98987499D03*
X139499999Y-98987499D03*
D37*
X138737499Y-99249999D03*
X138737499Y-99749999D03*
X138737499Y-100249999D03*
X138737499Y-100749999D03*
D38*
X139499999Y-101012499D03*
X139999999Y-101012499D03*
X140499999Y-101012499D03*
%TD*%
D14*
%TO.C,Q1*%
X155962500Y-108350000D03*
X155962500Y-110250000D03*
X157837500Y-109300000D03*
%TD*%
D31*
%TO.C,U11*%
X133950000Y-78862500D03*
X133000000Y-78862500D03*
X132050000Y-78862500D03*
X132050000Y-81137500D03*
X133000000Y-81137500D03*
X133950000Y-81137500D03*
%TD*%
D36*
%TO.C,R18*%
X139200000Y-116690000D03*
X139200000Y-117710000D03*
%TD*%
D20*
%TO.C,C28*%
X139320000Y-87700000D03*
X140280000Y-87700000D03*
%TD*%
D21*
%TO.C,R5*%
X136490000Y-91000000D03*
X137510000Y-91000000D03*
%TD*%
D39*
%TO.C,SW1*%
X127900826Y-116967516D03*
X126338120Y-118530222D03*
X133062705Y-122129395D03*
X131499999Y-123692101D03*
D40*
X129350394Y-117497846D03*
X131471715Y-119619166D03*
X132532375Y-120679827D03*
%TD*%
D11*
%TO.C,R14*%
X150300000Y-117610000D03*
X150300000Y-116590000D03*
%TD*%
D41*
%TO.C,C8*%
X136000000Y-121025000D03*
X136000000Y-123975000D03*
%TD*%
D20*
%TO.C,C16*%
X138520000Y-97500000D03*
X139480000Y-97500000D03*
%TD*%
D18*
%TO.C,C1*%
X133575000Y-115400000D03*
X132025000Y-115400000D03*
%TD*%
D15*
%TO.C,C29*%
X140280000Y-88800000D03*
X139320000Y-88800000D03*
%TD*%
%TO.C,C23*%
X136380000Y-78000000D03*
X135420000Y-78000000D03*
%TD*%
D42*
%TO.C,D1*%
X137212500Y-128000000D03*
X138787500Y-128000000D03*
%TD*%
D43*
%TO.C,R3*%
X136490000Y-92000000D03*
X137510000Y-92000000D03*
%TD*%
D20*
%TO.C,C10*%
X141120000Y-119000000D03*
X142080000Y-119000000D03*
%TD*%
D44*
%TO.C,D3*%
X155800000Y-111700000D03*
X157200000Y-111700000D03*
%TD*%
D43*
%TO.C,R1*%
X135510000Y-128000000D03*
X134490000Y-128000000D03*
%TD*%
%TO.C,R16*%
X138510000Y-84000000D03*
X137490000Y-84000000D03*
%TD*%
D33*
%TO.C,C4*%
X130300000Y-111925000D03*
X130300000Y-113475000D03*
%TD*%
D45*
%TO.C,U10*%
X138862500Y-90050000D03*
X138862500Y-91000000D03*
X138862500Y-91950000D03*
X141137500Y-91950000D03*
X141137500Y-91000000D03*
X141137500Y-90050000D03*
%TD*%
D24*
%TO.C,Q4*%
X137050000Y-82537500D03*
X138950000Y-82537500D03*
X138000000Y-80662500D03*
%TD*%
D21*
%TO.C,R27*%
X133990000Y-77000000D03*
X135010000Y-77000000D03*
%TD*%
D41*
%TO.C,C5*%
X142500000Y-121025000D03*
X142500000Y-123975000D03*
%TD*%
D36*
%TO.C,R17*%
X138200000Y-116690000D03*
X138200000Y-117710000D03*
%TD*%
D45*
%TO.C,U4*%
X127862500Y-81050000D03*
X127862500Y-82000000D03*
X127862500Y-82950000D03*
X130137500Y-82950000D03*
X130137500Y-82000000D03*
X130137500Y-81050000D03*
%TD*%
D12*
%TO.C,C6*%
X136200000Y-113300000D03*
X137750000Y-113300000D03*
%TD*%
D13*
%TO.C,J7*%
X148199999Y-102499999D03*
X148199999Y-101499999D03*
X148199999Y-100499999D03*
X148199999Y-99499999D03*
X148199999Y-98499999D03*
X148199999Y-97499999D03*
%TD*%
D11*
%TO.C,R7*%
X154500000Y-118510000D03*
X154500000Y-117490000D03*
%TD*%
D43*
%TO.C,R22*%
X142510000Y-84000000D03*
X141490000Y-84000000D03*
%TD*%
D36*
%TO.C,R29*%
X154000000Y-80990000D03*
X154000000Y-82010000D03*
%TD*%
D46*
%TO.C,D4*%
X150756847Y-122843153D03*
X149643153Y-123956847D03*
%TD*%
D20*
%TO.C,C15*%
X140520000Y-97500000D03*
X141480000Y-97500000D03*
%TD*%
%TO.C,C24*%
X148520000Y-78000000D03*
X149480000Y-78000000D03*
%TD*%
D47*
%TO.C,LS1*%
X156100000Y-116500000D03*
X156100000Y-113000000D03*
%TD*%
M02*
