%TF.GenerationSoftware,KiCad,Pcbnew,(7.0.0)*%
%TF.CreationDate,2024-08-06T08:44:49+09:00*%
%TF.ProjectId,extraice,65787472-6169-4636-952e-6b696361645f,rev?*%
%TF.SameCoordinates,Original*%
%TF.FileFunction,Legend,Top*%
%TF.FilePolarity,Positive*%
%FSLAX46Y46*%
G04 Gerber Fmt 4.6, Leading zero omitted, Abs format (unit mm)*
G04 Created by KiCad (PCBNEW (7.0.0)) date 2024-08-06 08:44:49*
%MOMM*%
%LPD*%
G01*
G04 APERTURE LIST*
%ADD10C,0.150000*%
%ADD11C,0.100000*%
%ADD12C,0.120000*%
G04 APERTURE END LIST*
D10*
X154500000Y-96000000D02*
X149900000Y-96000000D01*
X131100000Y-110850000D02*
X131100000Y-104000000D01*
X154500000Y-110850000D02*
X154500000Y-106000000D01*
X130100000Y-96000000D02*
X130100000Y-104000000D01*
X148900000Y-104000000D02*
X148900000Y-110850000D01*
X130100000Y-104000000D02*
X131100000Y-104000000D01*
X135200000Y-112700000D02*
X135500000Y-112400000D01*
X125500000Y-96000000D02*
X130100000Y-96000000D01*
X149900000Y-104000000D02*
X148900000Y-104000000D01*
X140000000Y-129000000D02*
X140000000Y-127000000D01*
X125500000Y-106000000D02*
X125500000Y-110850000D01*
X135200000Y-114200000D02*
X135200000Y-112700000D01*
X140000000Y-68000000D02*
X140000000Y-72000000D01*
X135400000Y-114400000D02*
X135200000Y-114200000D01*
X148900000Y-110850000D02*
X154500000Y-110850000D01*
X125500000Y-110850000D02*
X131100000Y-110850000D01*
X149900000Y-96000000D02*
X149900000Y-104000000D01*
D11*
X122093142Y-106690476D02*
X122093142Y-106957142D01*
X121674095Y-107071428D02*
X121674095Y-106690476D01*
X121674095Y-106690476D02*
X122474095Y-106690476D01*
X122474095Y-106690476D02*
X122474095Y-107071428D01*
X122474095Y-107338095D02*
X121674095Y-107871429D01*
X122474095Y-107871429D02*
X121674095Y-107338095D01*
X122474095Y-108061905D02*
X122474095Y-108519048D01*
X121674095Y-108290476D02*
X122474095Y-108290476D01*
X121674095Y-109242858D02*
X122055047Y-108976191D01*
X121674095Y-108785715D02*
X122474095Y-108785715D01*
X122474095Y-108785715D02*
X122474095Y-109090477D01*
X122474095Y-109090477D02*
X122436000Y-109166667D01*
X122436000Y-109166667D02*
X122397904Y-109204762D01*
X122397904Y-109204762D02*
X122321714Y-109242858D01*
X122321714Y-109242858D02*
X122207428Y-109242858D01*
X122207428Y-109242858D02*
X122131238Y-109204762D01*
X122131238Y-109204762D02*
X122093142Y-109166667D01*
X122093142Y-109166667D02*
X122055047Y-109090477D01*
X122055047Y-109090477D02*
X122055047Y-108785715D01*
X121902666Y-109547619D02*
X121902666Y-109928572D01*
X121674095Y-109471429D02*
X122474095Y-109738096D01*
X122474095Y-109738096D02*
X121674095Y-110004762D01*
X121674095Y-110271429D02*
X122474095Y-110271429D01*
X121750285Y-111109524D02*
X121712190Y-111071428D01*
X121712190Y-111071428D02*
X121674095Y-110957143D01*
X121674095Y-110957143D02*
X121674095Y-110880952D01*
X121674095Y-110880952D02*
X121712190Y-110766666D01*
X121712190Y-110766666D02*
X121788380Y-110690476D01*
X121788380Y-110690476D02*
X121864571Y-110652381D01*
X121864571Y-110652381D02*
X122016952Y-110614285D01*
X122016952Y-110614285D02*
X122131238Y-110614285D01*
X122131238Y-110614285D02*
X122283619Y-110652381D01*
X122283619Y-110652381D02*
X122359809Y-110690476D01*
X122359809Y-110690476D02*
X122436000Y-110766666D01*
X122436000Y-110766666D02*
X122474095Y-110880952D01*
X122474095Y-110880952D02*
X122474095Y-110957143D01*
X122474095Y-110957143D02*
X122436000Y-111071428D01*
X122436000Y-111071428D02*
X122397904Y-111109524D01*
X122093142Y-111452381D02*
X122093142Y-111719047D01*
X121674095Y-111833333D02*
X121674095Y-111452381D01*
X121674095Y-111452381D02*
X122474095Y-111452381D01*
X122474095Y-111452381D02*
X122474095Y-111833333D01*
X122474095Y-112557143D02*
X122474095Y-112176191D01*
X122474095Y-112176191D02*
X122093142Y-112138095D01*
X122093142Y-112138095D02*
X122131238Y-112176191D01*
X122131238Y-112176191D02*
X122169333Y-112252381D01*
X122169333Y-112252381D02*
X122169333Y-112442857D01*
X122169333Y-112442857D02*
X122131238Y-112519048D01*
X122131238Y-112519048D02*
X122093142Y-112557143D01*
X122093142Y-112557143D02*
X122016952Y-112595238D01*
X122016952Y-112595238D02*
X121826476Y-112595238D01*
X121826476Y-112595238D02*
X121750285Y-112557143D01*
X121750285Y-112557143D02*
X121712190Y-112519048D01*
X121712190Y-112519048D02*
X121674095Y-112442857D01*
X121674095Y-112442857D02*
X121674095Y-112252381D01*
X121674095Y-112252381D02*
X121712190Y-112176191D01*
X121712190Y-112176191D02*
X121750285Y-112138095D01*
X121902666Y-112900000D02*
X121902666Y-113280953D01*
X121674095Y-112823810D02*
X122474095Y-113090477D01*
X122474095Y-113090477D02*
X121674095Y-113357143D01*
%TO.C,U17*%
X135109524Y-94193904D02*
X135109524Y-94841523D01*
X135109524Y-94841523D02*
X135147619Y-94917714D01*
X135147619Y-94917714D02*
X135185714Y-94955809D01*
X135185714Y-94955809D02*
X135261905Y-94993904D01*
X135261905Y-94993904D02*
X135414286Y-94993904D01*
X135414286Y-94993904D02*
X135490476Y-94955809D01*
X135490476Y-94955809D02*
X135528571Y-94917714D01*
X135528571Y-94917714D02*
X135566667Y-94841523D01*
X135566667Y-94841523D02*
X135566667Y-94193904D01*
X136366666Y-94993904D02*
X135909523Y-94993904D01*
X136138095Y-94993904D02*
X136138095Y-94193904D01*
X136138095Y-94193904D02*
X136061904Y-94308190D01*
X136061904Y-94308190D02*
X135985714Y-94384380D01*
X135985714Y-94384380D02*
X135909523Y-94422476D01*
X136633333Y-94193904D02*
X137166667Y-94193904D01*
X137166667Y-94193904D02*
X136823809Y-94993904D01*
%TO.C,R10*%
X125293904Y-81114285D02*
X124912952Y-81380952D01*
X125293904Y-81571428D02*
X124493904Y-81571428D01*
X124493904Y-81571428D02*
X124493904Y-81266666D01*
X124493904Y-81266666D02*
X124532000Y-81190476D01*
X124532000Y-81190476D02*
X124570095Y-81152381D01*
X124570095Y-81152381D02*
X124646285Y-81114285D01*
X124646285Y-81114285D02*
X124760571Y-81114285D01*
X124760571Y-81114285D02*
X124836761Y-81152381D01*
X124836761Y-81152381D02*
X124874857Y-81190476D01*
X124874857Y-81190476D02*
X124912952Y-81266666D01*
X124912952Y-81266666D02*
X124912952Y-81571428D01*
X125293904Y-80352381D02*
X125293904Y-80809524D01*
X125293904Y-80580952D02*
X124493904Y-80580952D01*
X124493904Y-80580952D02*
X124608190Y-80657143D01*
X124608190Y-80657143D02*
X124684380Y-80733333D01*
X124684380Y-80733333D02*
X124722476Y-80809524D01*
X124493904Y-79857142D02*
X124493904Y-79780952D01*
X124493904Y-79780952D02*
X124532000Y-79704761D01*
X124532000Y-79704761D02*
X124570095Y-79666666D01*
X124570095Y-79666666D02*
X124646285Y-79628571D01*
X124646285Y-79628571D02*
X124798666Y-79590476D01*
X124798666Y-79590476D02*
X124989142Y-79590476D01*
X124989142Y-79590476D02*
X125141523Y-79628571D01*
X125141523Y-79628571D02*
X125217714Y-79666666D01*
X125217714Y-79666666D02*
X125255809Y-79704761D01*
X125255809Y-79704761D02*
X125293904Y-79780952D01*
X125293904Y-79780952D02*
X125293904Y-79857142D01*
X125293904Y-79857142D02*
X125255809Y-79933333D01*
X125255809Y-79933333D02*
X125217714Y-79971428D01*
X125217714Y-79971428D02*
X125141523Y-80009523D01*
X125141523Y-80009523D02*
X124989142Y-80047619D01*
X124989142Y-80047619D02*
X124798666Y-80047619D01*
X124798666Y-80047619D02*
X124646285Y-80009523D01*
X124646285Y-80009523D02*
X124570095Y-79971428D01*
X124570095Y-79971428D02*
X124532000Y-79933333D01*
X124532000Y-79933333D02*
X124493904Y-79857142D01*
%TO.C,C18*%
X137485714Y-69617714D02*
X137447618Y-69655809D01*
X137447618Y-69655809D02*
X137333333Y-69693904D01*
X137333333Y-69693904D02*
X137257142Y-69693904D01*
X137257142Y-69693904D02*
X137142856Y-69655809D01*
X137142856Y-69655809D02*
X137066666Y-69579619D01*
X137066666Y-69579619D02*
X137028571Y-69503428D01*
X137028571Y-69503428D02*
X136990475Y-69351047D01*
X136990475Y-69351047D02*
X136990475Y-69236761D01*
X136990475Y-69236761D02*
X137028571Y-69084380D01*
X137028571Y-69084380D02*
X137066666Y-69008190D01*
X137066666Y-69008190D02*
X137142856Y-68932000D01*
X137142856Y-68932000D02*
X137257142Y-68893904D01*
X137257142Y-68893904D02*
X137333333Y-68893904D01*
X137333333Y-68893904D02*
X137447618Y-68932000D01*
X137447618Y-68932000D02*
X137485714Y-68970095D01*
X138247618Y-69693904D02*
X137790475Y-69693904D01*
X138019047Y-69693904D02*
X138019047Y-68893904D01*
X138019047Y-68893904D02*
X137942856Y-69008190D01*
X137942856Y-69008190D02*
X137866666Y-69084380D01*
X137866666Y-69084380D02*
X137790475Y-69122476D01*
X138704761Y-69236761D02*
X138628571Y-69198666D01*
X138628571Y-69198666D02*
X138590476Y-69160571D01*
X138590476Y-69160571D02*
X138552380Y-69084380D01*
X138552380Y-69084380D02*
X138552380Y-69046285D01*
X138552380Y-69046285D02*
X138590476Y-68970095D01*
X138590476Y-68970095D02*
X138628571Y-68932000D01*
X138628571Y-68932000D02*
X138704761Y-68893904D01*
X138704761Y-68893904D02*
X138857142Y-68893904D01*
X138857142Y-68893904D02*
X138933333Y-68932000D01*
X138933333Y-68932000D02*
X138971428Y-68970095D01*
X138971428Y-68970095D02*
X139009523Y-69046285D01*
X139009523Y-69046285D02*
X139009523Y-69084380D01*
X139009523Y-69084380D02*
X138971428Y-69160571D01*
X138971428Y-69160571D02*
X138933333Y-69198666D01*
X138933333Y-69198666D02*
X138857142Y-69236761D01*
X138857142Y-69236761D02*
X138704761Y-69236761D01*
X138704761Y-69236761D02*
X138628571Y-69274857D01*
X138628571Y-69274857D02*
X138590476Y-69312952D01*
X138590476Y-69312952D02*
X138552380Y-69389142D01*
X138552380Y-69389142D02*
X138552380Y-69541523D01*
X138552380Y-69541523D02*
X138590476Y-69617714D01*
X138590476Y-69617714D02*
X138628571Y-69655809D01*
X138628571Y-69655809D02*
X138704761Y-69693904D01*
X138704761Y-69693904D02*
X138857142Y-69693904D01*
X138857142Y-69693904D02*
X138933333Y-69655809D01*
X138933333Y-69655809D02*
X138971428Y-69617714D01*
X138971428Y-69617714D02*
X139009523Y-69541523D01*
X139009523Y-69541523D02*
X139009523Y-69389142D01*
X139009523Y-69389142D02*
X138971428Y-69312952D01*
X138971428Y-69312952D02*
X138933333Y-69274857D01*
X138933333Y-69274857D02*
X138857142Y-69236761D01*
%TO.C,J9*%
X132593904Y-100266666D02*
X133165333Y-100266666D01*
X133165333Y-100266666D02*
X133279619Y-100304761D01*
X133279619Y-100304761D02*
X133355809Y-100380952D01*
X133355809Y-100380952D02*
X133393904Y-100495237D01*
X133393904Y-100495237D02*
X133393904Y-100571428D01*
X133393904Y-99847618D02*
X133393904Y-99695237D01*
X133393904Y-99695237D02*
X133355809Y-99619047D01*
X133355809Y-99619047D02*
X133317714Y-99580951D01*
X133317714Y-99580951D02*
X133203428Y-99504761D01*
X133203428Y-99504761D02*
X133051047Y-99466666D01*
X133051047Y-99466666D02*
X132746285Y-99466666D01*
X132746285Y-99466666D02*
X132670095Y-99504761D01*
X132670095Y-99504761D02*
X132632000Y-99542856D01*
X132632000Y-99542856D02*
X132593904Y-99619047D01*
X132593904Y-99619047D02*
X132593904Y-99771428D01*
X132593904Y-99771428D02*
X132632000Y-99847618D01*
X132632000Y-99847618D02*
X132670095Y-99885713D01*
X132670095Y-99885713D02*
X132746285Y-99923809D01*
X132746285Y-99923809D02*
X132936761Y-99923809D01*
X132936761Y-99923809D02*
X133012952Y-99885713D01*
X133012952Y-99885713D02*
X133051047Y-99847618D01*
X133051047Y-99847618D02*
X133089142Y-99771428D01*
X133089142Y-99771428D02*
X133089142Y-99619047D01*
X133089142Y-99619047D02*
X133051047Y-99542856D01*
X133051047Y-99542856D02*
X133012952Y-99504761D01*
X133012952Y-99504761D02*
X132936761Y-99466666D01*
%TO.C,U1*%
X134440476Y-110143904D02*
X134440476Y-110791523D01*
X134440476Y-110791523D02*
X134478571Y-110867714D01*
X134478571Y-110867714D02*
X134516666Y-110905809D01*
X134516666Y-110905809D02*
X134592857Y-110943904D01*
X134592857Y-110943904D02*
X134745238Y-110943904D01*
X134745238Y-110943904D02*
X134821428Y-110905809D01*
X134821428Y-110905809D02*
X134859523Y-110867714D01*
X134859523Y-110867714D02*
X134897619Y-110791523D01*
X134897619Y-110791523D02*
X134897619Y-110143904D01*
X135697618Y-110943904D02*
X135240475Y-110943904D01*
X135469047Y-110943904D02*
X135469047Y-110143904D01*
X135469047Y-110143904D02*
X135392856Y-110258190D01*
X135392856Y-110258190D02*
X135316666Y-110334380D01*
X135316666Y-110334380D02*
X135240475Y-110372476D01*
%TO.C,Q5*%
X151923809Y-91970095D02*
X151847619Y-91932000D01*
X151847619Y-91932000D02*
X151771428Y-91855809D01*
X151771428Y-91855809D02*
X151657142Y-91741523D01*
X151657142Y-91741523D02*
X151580952Y-91703428D01*
X151580952Y-91703428D02*
X151504761Y-91703428D01*
X151542857Y-91893904D02*
X151466666Y-91855809D01*
X151466666Y-91855809D02*
X151390476Y-91779619D01*
X151390476Y-91779619D02*
X151352380Y-91627238D01*
X151352380Y-91627238D02*
X151352380Y-91360571D01*
X151352380Y-91360571D02*
X151390476Y-91208190D01*
X151390476Y-91208190D02*
X151466666Y-91132000D01*
X151466666Y-91132000D02*
X151542857Y-91093904D01*
X151542857Y-91093904D02*
X151695238Y-91093904D01*
X151695238Y-91093904D02*
X151771428Y-91132000D01*
X151771428Y-91132000D02*
X151847619Y-91208190D01*
X151847619Y-91208190D02*
X151885714Y-91360571D01*
X151885714Y-91360571D02*
X151885714Y-91627238D01*
X151885714Y-91627238D02*
X151847619Y-91779619D01*
X151847619Y-91779619D02*
X151771428Y-91855809D01*
X151771428Y-91855809D02*
X151695238Y-91893904D01*
X151695238Y-91893904D02*
X151542857Y-91893904D01*
X152609523Y-91093904D02*
X152228571Y-91093904D01*
X152228571Y-91093904D02*
X152190475Y-91474857D01*
X152190475Y-91474857D02*
X152228571Y-91436761D01*
X152228571Y-91436761D02*
X152304761Y-91398666D01*
X152304761Y-91398666D02*
X152495237Y-91398666D01*
X152495237Y-91398666D02*
X152571428Y-91436761D01*
X152571428Y-91436761D02*
X152609523Y-91474857D01*
X152609523Y-91474857D02*
X152647618Y-91551047D01*
X152647618Y-91551047D02*
X152647618Y-91741523D01*
X152647618Y-91741523D02*
X152609523Y-91817714D01*
X152609523Y-91817714D02*
X152571428Y-91855809D01*
X152571428Y-91855809D02*
X152495237Y-91893904D01*
X152495237Y-91893904D02*
X152304761Y-91893904D01*
X152304761Y-91893904D02*
X152228571Y-91855809D01*
X152228571Y-91855809D02*
X152190475Y-91817714D01*
%TO.C,C21*%
X126485714Y-79917714D02*
X126447618Y-79955809D01*
X126447618Y-79955809D02*
X126333333Y-79993904D01*
X126333333Y-79993904D02*
X126257142Y-79993904D01*
X126257142Y-79993904D02*
X126142856Y-79955809D01*
X126142856Y-79955809D02*
X126066666Y-79879619D01*
X126066666Y-79879619D02*
X126028571Y-79803428D01*
X126028571Y-79803428D02*
X125990475Y-79651047D01*
X125990475Y-79651047D02*
X125990475Y-79536761D01*
X125990475Y-79536761D02*
X126028571Y-79384380D01*
X126028571Y-79384380D02*
X126066666Y-79308190D01*
X126066666Y-79308190D02*
X126142856Y-79232000D01*
X126142856Y-79232000D02*
X126257142Y-79193904D01*
X126257142Y-79193904D02*
X126333333Y-79193904D01*
X126333333Y-79193904D02*
X126447618Y-79232000D01*
X126447618Y-79232000D02*
X126485714Y-79270095D01*
X126790475Y-79270095D02*
X126828571Y-79232000D01*
X126828571Y-79232000D02*
X126904761Y-79193904D01*
X126904761Y-79193904D02*
X127095237Y-79193904D01*
X127095237Y-79193904D02*
X127171428Y-79232000D01*
X127171428Y-79232000D02*
X127209523Y-79270095D01*
X127209523Y-79270095D02*
X127247618Y-79346285D01*
X127247618Y-79346285D02*
X127247618Y-79422476D01*
X127247618Y-79422476D02*
X127209523Y-79536761D01*
X127209523Y-79536761D02*
X126752380Y-79993904D01*
X126752380Y-79993904D02*
X127247618Y-79993904D01*
X128009523Y-79993904D02*
X127552380Y-79993904D01*
X127780952Y-79993904D02*
X127780952Y-79193904D01*
X127780952Y-79193904D02*
X127704761Y-79308190D01*
X127704761Y-79308190D02*
X127628571Y-79384380D01*
X127628571Y-79384380D02*
X127552380Y-79422476D01*
%TO.C,U6*%
X135390476Y-117793904D02*
X135390476Y-118441523D01*
X135390476Y-118441523D02*
X135428571Y-118517714D01*
X135428571Y-118517714D02*
X135466666Y-118555809D01*
X135466666Y-118555809D02*
X135542857Y-118593904D01*
X135542857Y-118593904D02*
X135695238Y-118593904D01*
X135695238Y-118593904D02*
X135771428Y-118555809D01*
X135771428Y-118555809D02*
X135809523Y-118517714D01*
X135809523Y-118517714D02*
X135847619Y-118441523D01*
X135847619Y-118441523D02*
X135847619Y-117793904D01*
X136571428Y-117793904D02*
X136419047Y-117793904D01*
X136419047Y-117793904D02*
X136342856Y-117832000D01*
X136342856Y-117832000D02*
X136304761Y-117870095D01*
X136304761Y-117870095D02*
X136228571Y-117984380D01*
X136228571Y-117984380D02*
X136190475Y-118136761D01*
X136190475Y-118136761D02*
X136190475Y-118441523D01*
X136190475Y-118441523D02*
X136228571Y-118517714D01*
X136228571Y-118517714D02*
X136266666Y-118555809D01*
X136266666Y-118555809D02*
X136342856Y-118593904D01*
X136342856Y-118593904D02*
X136495237Y-118593904D01*
X136495237Y-118593904D02*
X136571428Y-118555809D01*
X136571428Y-118555809D02*
X136609523Y-118517714D01*
X136609523Y-118517714D02*
X136647618Y-118441523D01*
X136647618Y-118441523D02*
X136647618Y-118251047D01*
X136647618Y-118251047D02*
X136609523Y-118174857D01*
X136609523Y-118174857D02*
X136571428Y-118136761D01*
X136571428Y-118136761D02*
X136495237Y-118098666D01*
X136495237Y-118098666D02*
X136342856Y-118098666D01*
X136342856Y-118098666D02*
X136266666Y-118136761D01*
X136266666Y-118136761D02*
X136228571Y-118174857D01*
X136228571Y-118174857D02*
X136190475Y-118251047D01*
%TO.C,C25*%
X148085714Y-84817714D02*
X148047618Y-84855809D01*
X148047618Y-84855809D02*
X147933333Y-84893904D01*
X147933333Y-84893904D02*
X147857142Y-84893904D01*
X147857142Y-84893904D02*
X147742856Y-84855809D01*
X147742856Y-84855809D02*
X147666666Y-84779619D01*
X147666666Y-84779619D02*
X147628571Y-84703428D01*
X147628571Y-84703428D02*
X147590475Y-84551047D01*
X147590475Y-84551047D02*
X147590475Y-84436761D01*
X147590475Y-84436761D02*
X147628571Y-84284380D01*
X147628571Y-84284380D02*
X147666666Y-84208190D01*
X147666666Y-84208190D02*
X147742856Y-84132000D01*
X147742856Y-84132000D02*
X147857142Y-84093904D01*
X147857142Y-84093904D02*
X147933333Y-84093904D01*
X147933333Y-84093904D02*
X148047618Y-84132000D01*
X148047618Y-84132000D02*
X148085714Y-84170095D01*
X148390475Y-84170095D02*
X148428571Y-84132000D01*
X148428571Y-84132000D02*
X148504761Y-84093904D01*
X148504761Y-84093904D02*
X148695237Y-84093904D01*
X148695237Y-84093904D02*
X148771428Y-84132000D01*
X148771428Y-84132000D02*
X148809523Y-84170095D01*
X148809523Y-84170095D02*
X148847618Y-84246285D01*
X148847618Y-84246285D02*
X148847618Y-84322476D01*
X148847618Y-84322476D02*
X148809523Y-84436761D01*
X148809523Y-84436761D02*
X148352380Y-84893904D01*
X148352380Y-84893904D02*
X148847618Y-84893904D01*
X149571428Y-84093904D02*
X149190476Y-84093904D01*
X149190476Y-84093904D02*
X149152380Y-84474857D01*
X149152380Y-84474857D02*
X149190476Y-84436761D01*
X149190476Y-84436761D02*
X149266666Y-84398666D01*
X149266666Y-84398666D02*
X149457142Y-84398666D01*
X149457142Y-84398666D02*
X149533333Y-84436761D01*
X149533333Y-84436761D02*
X149571428Y-84474857D01*
X149571428Y-84474857D02*
X149609523Y-84551047D01*
X149609523Y-84551047D02*
X149609523Y-84741523D01*
X149609523Y-84741523D02*
X149571428Y-84817714D01*
X149571428Y-84817714D02*
X149533333Y-84855809D01*
X149533333Y-84855809D02*
X149457142Y-84893904D01*
X149457142Y-84893904D02*
X149266666Y-84893904D01*
X149266666Y-84893904D02*
X149190476Y-84855809D01*
X149190476Y-84855809D02*
X149152380Y-84817714D01*
%TO.C,C3*%
X133466667Y-97447714D02*
X133428571Y-97485809D01*
X133428571Y-97485809D02*
X133314286Y-97523904D01*
X133314286Y-97523904D02*
X133238095Y-97523904D01*
X133238095Y-97523904D02*
X133123809Y-97485809D01*
X133123809Y-97485809D02*
X133047619Y-97409619D01*
X133047619Y-97409619D02*
X133009524Y-97333428D01*
X133009524Y-97333428D02*
X132971428Y-97181047D01*
X132971428Y-97181047D02*
X132971428Y-97066761D01*
X132971428Y-97066761D02*
X133009524Y-96914380D01*
X133009524Y-96914380D02*
X133047619Y-96838190D01*
X133047619Y-96838190D02*
X133123809Y-96762000D01*
X133123809Y-96762000D02*
X133238095Y-96723904D01*
X133238095Y-96723904D02*
X133314286Y-96723904D01*
X133314286Y-96723904D02*
X133428571Y-96762000D01*
X133428571Y-96762000D02*
X133466667Y-96800095D01*
X133733333Y-96723904D02*
X134228571Y-96723904D01*
X134228571Y-96723904D02*
X133961905Y-97028666D01*
X133961905Y-97028666D02*
X134076190Y-97028666D01*
X134076190Y-97028666D02*
X134152381Y-97066761D01*
X134152381Y-97066761D02*
X134190476Y-97104857D01*
X134190476Y-97104857D02*
X134228571Y-97181047D01*
X134228571Y-97181047D02*
X134228571Y-97371523D01*
X134228571Y-97371523D02*
X134190476Y-97447714D01*
X134190476Y-97447714D02*
X134152381Y-97485809D01*
X134152381Y-97485809D02*
X134076190Y-97523904D01*
X134076190Y-97523904D02*
X133847619Y-97523904D01*
X133847619Y-97523904D02*
X133771428Y-97485809D01*
X133771428Y-97485809D02*
X133733333Y-97447714D01*
%TO.C,Q3*%
X127923809Y-92170095D02*
X127847619Y-92132000D01*
X127847619Y-92132000D02*
X127771428Y-92055809D01*
X127771428Y-92055809D02*
X127657142Y-91941523D01*
X127657142Y-91941523D02*
X127580952Y-91903428D01*
X127580952Y-91903428D02*
X127504761Y-91903428D01*
X127542857Y-92093904D02*
X127466666Y-92055809D01*
X127466666Y-92055809D02*
X127390476Y-91979619D01*
X127390476Y-91979619D02*
X127352380Y-91827238D01*
X127352380Y-91827238D02*
X127352380Y-91560571D01*
X127352380Y-91560571D02*
X127390476Y-91408190D01*
X127390476Y-91408190D02*
X127466666Y-91332000D01*
X127466666Y-91332000D02*
X127542857Y-91293904D01*
X127542857Y-91293904D02*
X127695238Y-91293904D01*
X127695238Y-91293904D02*
X127771428Y-91332000D01*
X127771428Y-91332000D02*
X127847619Y-91408190D01*
X127847619Y-91408190D02*
X127885714Y-91560571D01*
X127885714Y-91560571D02*
X127885714Y-91827238D01*
X127885714Y-91827238D02*
X127847619Y-91979619D01*
X127847619Y-91979619D02*
X127771428Y-92055809D01*
X127771428Y-92055809D02*
X127695238Y-92093904D01*
X127695238Y-92093904D02*
X127542857Y-92093904D01*
X128152380Y-91293904D02*
X128647618Y-91293904D01*
X128647618Y-91293904D02*
X128380952Y-91598666D01*
X128380952Y-91598666D02*
X128495237Y-91598666D01*
X128495237Y-91598666D02*
X128571428Y-91636761D01*
X128571428Y-91636761D02*
X128609523Y-91674857D01*
X128609523Y-91674857D02*
X128647618Y-91751047D01*
X128647618Y-91751047D02*
X128647618Y-91941523D01*
X128647618Y-91941523D02*
X128609523Y-92017714D01*
X128609523Y-92017714D02*
X128571428Y-92055809D01*
X128571428Y-92055809D02*
X128495237Y-92093904D01*
X128495237Y-92093904D02*
X128266666Y-92093904D01*
X128266666Y-92093904D02*
X128190475Y-92055809D01*
X128190475Y-92055809D02*
X128152380Y-92017714D01*
%TO.C,C20*%
X126485714Y-78817714D02*
X126447618Y-78855809D01*
X126447618Y-78855809D02*
X126333333Y-78893904D01*
X126333333Y-78893904D02*
X126257142Y-78893904D01*
X126257142Y-78893904D02*
X126142856Y-78855809D01*
X126142856Y-78855809D02*
X126066666Y-78779619D01*
X126066666Y-78779619D02*
X126028571Y-78703428D01*
X126028571Y-78703428D02*
X125990475Y-78551047D01*
X125990475Y-78551047D02*
X125990475Y-78436761D01*
X125990475Y-78436761D02*
X126028571Y-78284380D01*
X126028571Y-78284380D02*
X126066666Y-78208190D01*
X126066666Y-78208190D02*
X126142856Y-78132000D01*
X126142856Y-78132000D02*
X126257142Y-78093904D01*
X126257142Y-78093904D02*
X126333333Y-78093904D01*
X126333333Y-78093904D02*
X126447618Y-78132000D01*
X126447618Y-78132000D02*
X126485714Y-78170095D01*
X126790475Y-78170095D02*
X126828571Y-78132000D01*
X126828571Y-78132000D02*
X126904761Y-78093904D01*
X126904761Y-78093904D02*
X127095237Y-78093904D01*
X127095237Y-78093904D02*
X127171428Y-78132000D01*
X127171428Y-78132000D02*
X127209523Y-78170095D01*
X127209523Y-78170095D02*
X127247618Y-78246285D01*
X127247618Y-78246285D02*
X127247618Y-78322476D01*
X127247618Y-78322476D02*
X127209523Y-78436761D01*
X127209523Y-78436761D02*
X126752380Y-78893904D01*
X126752380Y-78893904D02*
X127247618Y-78893904D01*
X127742857Y-78093904D02*
X127819047Y-78093904D01*
X127819047Y-78093904D02*
X127895238Y-78132000D01*
X127895238Y-78132000D02*
X127933333Y-78170095D01*
X127933333Y-78170095D02*
X127971428Y-78246285D01*
X127971428Y-78246285D02*
X128009523Y-78398666D01*
X128009523Y-78398666D02*
X128009523Y-78589142D01*
X128009523Y-78589142D02*
X127971428Y-78741523D01*
X127971428Y-78741523D02*
X127933333Y-78817714D01*
X127933333Y-78817714D02*
X127895238Y-78855809D01*
X127895238Y-78855809D02*
X127819047Y-78893904D01*
X127819047Y-78893904D02*
X127742857Y-78893904D01*
X127742857Y-78893904D02*
X127666666Y-78855809D01*
X127666666Y-78855809D02*
X127628571Y-78817714D01*
X127628571Y-78817714D02*
X127590476Y-78741523D01*
X127590476Y-78741523D02*
X127552380Y-78589142D01*
X127552380Y-78589142D02*
X127552380Y-78398666D01*
X127552380Y-78398666D02*
X127590476Y-78246285D01*
X127590476Y-78246285D02*
X127628571Y-78170095D01*
X127628571Y-78170095D02*
X127666666Y-78132000D01*
X127666666Y-78132000D02*
X127742857Y-78093904D01*
%TO.C,R28*%
X147085714Y-77393904D02*
X146819047Y-77012952D01*
X146628571Y-77393904D02*
X146628571Y-76593904D01*
X146628571Y-76593904D02*
X146933333Y-76593904D01*
X146933333Y-76593904D02*
X147009523Y-76632000D01*
X147009523Y-76632000D02*
X147047618Y-76670095D01*
X147047618Y-76670095D02*
X147085714Y-76746285D01*
X147085714Y-76746285D02*
X147085714Y-76860571D01*
X147085714Y-76860571D02*
X147047618Y-76936761D01*
X147047618Y-76936761D02*
X147009523Y-76974857D01*
X147009523Y-76974857D02*
X146933333Y-77012952D01*
X146933333Y-77012952D02*
X146628571Y-77012952D01*
X147390475Y-76670095D02*
X147428571Y-76632000D01*
X147428571Y-76632000D02*
X147504761Y-76593904D01*
X147504761Y-76593904D02*
X147695237Y-76593904D01*
X147695237Y-76593904D02*
X147771428Y-76632000D01*
X147771428Y-76632000D02*
X147809523Y-76670095D01*
X147809523Y-76670095D02*
X147847618Y-76746285D01*
X147847618Y-76746285D02*
X147847618Y-76822476D01*
X147847618Y-76822476D02*
X147809523Y-76936761D01*
X147809523Y-76936761D02*
X147352380Y-77393904D01*
X147352380Y-77393904D02*
X147847618Y-77393904D01*
X148304761Y-76936761D02*
X148228571Y-76898666D01*
X148228571Y-76898666D02*
X148190476Y-76860571D01*
X148190476Y-76860571D02*
X148152380Y-76784380D01*
X148152380Y-76784380D02*
X148152380Y-76746285D01*
X148152380Y-76746285D02*
X148190476Y-76670095D01*
X148190476Y-76670095D02*
X148228571Y-76632000D01*
X148228571Y-76632000D02*
X148304761Y-76593904D01*
X148304761Y-76593904D02*
X148457142Y-76593904D01*
X148457142Y-76593904D02*
X148533333Y-76632000D01*
X148533333Y-76632000D02*
X148571428Y-76670095D01*
X148571428Y-76670095D02*
X148609523Y-76746285D01*
X148609523Y-76746285D02*
X148609523Y-76784380D01*
X148609523Y-76784380D02*
X148571428Y-76860571D01*
X148571428Y-76860571D02*
X148533333Y-76898666D01*
X148533333Y-76898666D02*
X148457142Y-76936761D01*
X148457142Y-76936761D02*
X148304761Y-76936761D01*
X148304761Y-76936761D02*
X148228571Y-76974857D01*
X148228571Y-76974857D02*
X148190476Y-77012952D01*
X148190476Y-77012952D02*
X148152380Y-77089142D01*
X148152380Y-77089142D02*
X148152380Y-77241523D01*
X148152380Y-77241523D02*
X148190476Y-77317714D01*
X148190476Y-77317714D02*
X148228571Y-77355809D01*
X148228571Y-77355809D02*
X148304761Y-77393904D01*
X148304761Y-77393904D02*
X148457142Y-77393904D01*
X148457142Y-77393904D02*
X148533333Y-77355809D01*
X148533333Y-77355809D02*
X148571428Y-77317714D01*
X148571428Y-77317714D02*
X148609523Y-77241523D01*
X148609523Y-77241523D02*
X148609523Y-77089142D01*
X148609523Y-77089142D02*
X148571428Y-77012952D01*
X148571428Y-77012952D02*
X148533333Y-76974857D01*
X148533333Y-76974857D02*
X148457142Y-76936761D01*
%TO.C,C11*%
X135535714Y-112117714D02*
X135497618Y-112155809D01*
X135497618Y-112155809D02*
X135383333Y-112193904D01*
X135383333Y-112193904D02*
X135307142Y-112193904D01*
X135307142Y-112193904D02*
X135192856Y-112155809D01*
X135192856Y-112155809D02*
X135116666Y-112079619D01*
X135116666Y-112079619D02*
X135078571Y-112003428D01*
X135078571Y-112003428D02*
X135040475Y-111851047D01*
X135040475Y-111851047D02*
X135040475Y-111736761D01*
X135040475Y-111736761D02*
X135078571Y-111584380D01*
X135078571Y-111584380D02*
X135116666Y-111508190D01*
X135116666Y-111508190D02*
X135192856Y-111432000D01*
X135192856Y-111432000D02*
X135307142Y-111393904D01*
X135307142Y-111393904D02*
X135383333Y-111393904D01*
X135383333Y-111393904D02*
X135497618Y-111432000D01*
X135497618Y-111432000D02*
X135535714Y-111470095D01*
X136297618Y-112193904D02*
X135840475Y-112193904D01*
X136069047Y-112193904D02*
X136069047Y-111393904D01*
X136069047Y-111393904D02*
X135992856Y-111508190D01*
X135992856Y-111508190D02*
X135916666Y-111584380D01*
X135916666Y-111584380D02*
X135840475Y-111622476D01*
X137059523Y-112193904D02*
X136602380Y-112193904D01*
X136830952Y-112193904D02*
X136830952Y-111393904D01*
X136830952Y-111393904D02*
X136754761Y-111508190D01*
X136754761Y-111508190D02*
X136678571Y-111584380D01*
X136678571Y-111584380D02*
X136602380Y-111622476D01*
%TO.C,U5*%
X139090476Y-119293904D02*
X139090476Y-119941523D01*
X139090476Y-119941523D02*
X139128571Y-120017714D01*
X139128571Y-120017714D02*
X139166666Y-120055809D01*
X139166666Y-120055809D02*
X139242857Y-120093904D01*
X139242857Y-120093904D02*
X139395238Y-120093904D01*
X139395238Y-120093904D02*
X139471428Y-120055809D01*
X139471428Y-120055809D02*
X139509523Y-120017714D01*
X139509523Y-120017714D02*
X139547619Y-119941523D01*
X139547619Y-119941523D02*
X139547619Y-119293904D01*
X140309523Y-119293904D02*
X139928571Y-119293904D01*
X139928571Y-119293904D02*
X139890475Y-119674857D01*
X139890475Y-119674857D02*
X139928571Y-119636761D01*
X139928571Y-119636761D02*
X140004761Y-119598666D01*
X140004761Y-119598666D02*
X140195237Y-119598666D01*
X140195237Y-119598666D02*
X140271428Y-119636761D01*
X140271428Y-119636761D02*
X140309523Y-119674857D01*
X140309523Y-119674857D02*
X140347618Y-119751047D01*
X140347618Y-119751047D02*
X140347618Y-119941523D01*
X140347618Y-119941523D02*
X140309523Y-120017714D01*
X140309523Y-120017714D02*
X140271428Y-120055809D01*
X140271428Y-120055809D02*
X140195237Y-120093904D01*
X140195237Y-120093904D02*
X140004761Y-120093904D01*
X140004761Y-120093904D02*
X139928571Y-120055809D01*
X139928571Y-120055809D02*
X139890475Y-120017714D01*
%TO.C,C27*%
X148085714Y-85817714D02*
X148047618Y-85855809D01*
X148047618Y-85855809D02*
X147933333Y-85893904D01*
X147933333Y-85893904D02*
X147857142Y-85893904D01*
X147857142Y-85893904D02*
X147742856Y-85855809D01*
X147742856Y-85855809D02*
X147666666Y-85779619D01*
X147666666Y-85779619D02*
X147628571Y-85703428D01*
X147628571Y-85703428D02*
X147590475Y-85551047D01*
X147590475Y-85551047D02*
X147590475Y-85436761D01*
X147590475Y-85436761D02*
X147628571Y-85284380D01*
X147628571Y-85284380D02*
X147666666Y-85208190D01*
X147666666Y-85208190D02*
X147742856Y-85132000D01*
X147742856Y-85132000D02*
X147857142Y-85093904D01*
X147857142Y-85093904D02*
X147933333Y-85093904D01*
X147933333Y-85093904D02*
X148047618Y-85132000D01*
X148047618Y-85132000D02*
X148085714Y-85170095D01*
X148390475Y-85170095D02*
X148428571Y-85132000D01*
X148428571Y-85132000D02*
X148504761Y-85093904D01*
X148504761Y-85093904D02*
X148695237Y-85093904D01*
X148695237Y-85093904D02*
X148771428Y-85132000D01*
X148771428Y-85132000D02*
X148809523Y-85170095D01*
X148809523Y-85170095D02*
X148847618Y-85246285D01*
X148847618Y-85246285D02*
X148847618Y-85322476D01*
X148847618Y-85322476D02*
X148809523Y-85436761D01*
X148809523Y-85436761D02*
X148352380Y-85893904D01*
X148352380Y-85893904D02*
X148847618Y-85893904D01*
X149114285Y-85093904D02*
X149647619Y-85093904D01*
X149647619Y-85093904D02*
X149304761Y-85893904D01*
%TO.C,Q2*%
X143923809Y-84370095D02*
X143847619Y-84332000D01*
X143847619Y-84332000D02*
X143771428Y-84255809D01*
X143771428Y-84255809D02*
X143657142Y-84141523D01*
X143657142Y-84141523D02*
X143580952Y-84103428D01*
X143580952Y-84103428D02*
X143504761Y-84103428D01*
X143542857Y-84293904D02*
X143466666Y-84255809D01*
X143466666Y-84255809D02*
X143390476Y-84179619D01*
X143390476Y-84179619D02*
X143352380Y-84027238D01*
X143352380Y-84027238D02*
X143352380Y-83760571D01*
X143352380Y-83760571D02*
X143390476Y-83608190D01*
X143390476Y-83608190D02*
X143466666Y-83532000D01*
X143466666Y-83532000D02*
X143542857Y-83493904D01*
X143542857Y-83493904D02*
X143695238Y-83493904D01*
X143695238Y-83493904D02*
X143771428Y-83532000D01*
X143771428Y-83532000D02*
X143847619Y-83608190D01*
X143847619Y-83608190D02*
X143885714Y-83760571D01*
X143885714Y-83760571D02*
X143885714Y-84027238D01*
X143885714Y-84027238D02*
X143847619Y-84179619D01*
X143847619Y-84179619D02*
X143771428Y-84255809D01*
X143771428Y-84255809D02*
X143695238Y-84293904D01*
X143695238Y-84293904D02*
X143542857Y-84293904D01*
X144190475Y-83570095D02*
X144228571Y-83532000D01*
X144228571Y-83532000D02*
X144304761Y-83493904D01*
X144304761Y-83493904D02*
X144495237Y-83493904D01*
X144495237Y-83493904D02*
X144571428Y-83532000D01*
X144571428Y-83532000D02*
X144609523Y-83570095D01*
X144609523Y-83570095D02*
X144647618Y-83646285D01*
X144647618Y-83646285D02*
X144647618Y-83722476D01*
X144647618Y-83722476D02*
X144609523Y-83836761D01*
X144609523Y-83836761D02*
X144152380Y-84293904D01*
X144152380Y-84293904D02*
X144647618Y-84293904D01*
%TO.C,U3*%
X145990476Y-109393904D02*
X145990476Y-110041523D01*
X145990476Y-110041523D02*
X146028571Y-110117714D01*
X146028571Y-110117714D02*
X146066666Y-110155809D01*
X146066666Y-110155809D02*
X146142857Y-110193904D01*
X146142857Y-110193904D02*
X146295238Y-110193904D01*
X146295238Y-110193904D02*
X146371428Y-110155809D01*
X146371428Y-110155809D02*
X146409523Y-110117714D01*
X146409523Y-110117714D02*
X146447619Y-110041523D01*
X146447619Y-110041523D02*
X146447619Y-109393904D01*
X146752380Y-109393904D02*
X147247618Y-109393904D01*
X147247618Y-109393904D02*
X146980952Y-109698666D01*
X146980952Y-109698666D02*
X147095237Y-109698666D01*
X147095237Y-109698666D02*
X147171428Y-109736761D01*
X147171428Y-109736761D02*
X147209523Y-109774857D01*
X147209523Y-109774857D02*
X147247618Y-109851047D01*
X147247618Y-109851047D02*
X147247618Y-110041523D01*
X147247618Y-110041523D02*
X147209523Y-110117714D01*
X147209523Y-110117714D02*
X147171428Y-110155809D01*
X147171428Y-110155809D02*
X147095237Y-110193904D01*
X147095237Y-110193904D02*
X146866666Y-110193904D01*
X146866666Y-110193904D02*
X146790475Y-110155809D01*
X146790475Y-110155809D02*
X146752380Y-110117714D01*
%TO.C,R2*%
X147113541Y-127002102D02*
X146655605Y-126921290D01*
X146790292Y-127325351D02*
X146224607Y-126759666D01*
X146224607Y-126759666D02*
X146440106Y-126544166D01*
X146440106Y-126544166D02*
X146520918Y-126517229D01*
X146520918Y-126517229D02*
X146574793Y-126517229D01*
X146574793Y-126517229D02*
X146655605Y-126544166D01*
X146655605Y-126544166D02*
X146736417Y-126624979D01*
X146736417Y-126624979D02*
X146763355Y-126705791D01*
X146763355Y-126705791D02*
X146763355Y-126759666D01*
X146763355Y-126759666D02*
X146736417Y-126840478D01*
X146736417Y-126840478D02*
X146520918Y-127055977D01*
X146817230Y-126274792D02*
X146817230Y-126220918D01*
X146817230Y-126220918D02*
X146844167Y-126140105D01*
X146844167Y-126140105D02*
X146978854Y-126005418D01*
X146978854Y-126005418D02*
X147059666Y-125978481D01*
X147059666Y-125978481D02*
X147113541Y-125978481D01*
X147113541Y-125978481D02*
X147194353Y-126005418D01*
X147194353Y-126005418D02*
X147248228Y-126059293D01*
X147248228Y-126059293D02*
X147302103Y-126167043D01*
X147302103Y-126167043D02*
X147302103Y-126813540D01*
X147302103Y-126813540D02*
X147652289Y-126463354D01*
%TO.C,U13*%
X133795270Y-69066470D02*
X133471460Y-69627325D01*
X133471460Y-69627325D02*
X133466357Y-69712355D01*
X133466357Y-69712355D02*
X133480300Y-69764394D01*
X133480300Y-69764394D02*
X133527236Y-69835481D01*
X133527236Y-69835481D02*
X133659201Y-69911672D01*
X133659201Y-69911672D02*
X133744232Y-69916775D01*
X133744232Y-69916775D02*
X133796271Y-69902832D01*
X133796271Y-69902832D02*
X133867358Y-69855896D01*
X133867358Y-69855896D02*
X134191167Y-69295042D01*
X134483987Y-70387862D02*
X134088090Y-70159290D01*
X134286039Y-70273576D02*
X134686039Y-69580756D01*
X134686039Y-69580756D02*
X134562913Y-69641635D01*
X134562913Y-69641635D02*
X134458835Y-69669523D01*
X134458835Y-69669523D02*
X134373804Y-69664419D01*
X135114928Y-69828375D02*
X135543816Y-70075994D01*
X135543816Y-70075994D02*
X135160495Y-70206592D01*
X135160495Y-70206592D02*
X135259470Y-70263735D01*
X135259470Y-70263735D02*
X135306405Y-70334822D01*
X135306405Y-70334822D02*
X135320349Y-70386861D01*
X135320349Y-70386861D02*
X135315245Y-70471891D01*
X135315245Y-70471891D02*
X135220007Y-70636849D01*
X135220007Y-70636849D02*
X135148920Y-70683784D01*
X135148920Y-70683784D02*
X135096881Y-70697728D01*
X135096881Y-70697728D02*
X135011851Y-70692624D01*
X135011851Y-70692624D02*
X134813902Y-70578338D01*
X134813902Y-70578338D02*
X134766967Y-70507252D01*
X134766967Y-70507252D02*
X134753023Y-70455212D01*
%TO.C,U2*%
X145590476Y-119293904D02*
X145590476Y-119941523D01*
X145590476Y-119941523D02*
X145628571Y-120017714D01*
X145628571Y-120017714D02*
X145666666Y-120055809D01*
X145666666Y-120055809D02*
X145742857Y-120093904D01*
X145742857Y-120093904D02*
X145895238Y-120093904D01*
X145895238Y-120093904D02*
X145971428Y-120055809D01*
X145971428Y-120055809D02*
X146009523Y-120017714D01*
X146009523Y-120017714D02*
X146047619Y-119941523D01*
X146047619Y-119941523D02*
X146047619Y-119293904D01*
X146390475Y-119370095D02*
X146428571Y-119332000D01*
X146428571Y-119332000D02*
X146504761Y-119293904D01*
X146504761Y-119293904D02*
X146695237Y-119293904D01*
X146695237Y-119293904D02*
X146771428Y-119332000D01*
X146771428Y-119332000D02*
X146809523Y-119370095D01*
X146809523Y-119370095D02*
X146847618Y-119446285D01*
X146847618Y-119446285D02*
X146847618Y-119522476D01*
X146847618Y-119522476D02*
X146809523Y-119636761D01*
X146809523Y-119636761D02*
X146352380Y-120093904D01*
X146352380Y-120093904D02*
X146847618Y-120093904D01*
%TO.C,R6*%
X139893904Y-75533332D02*
X139512952Y-75799999D01*
X139893904Y-75990475D02*
X139093904Y-75990475D01*
X139093904Y-75990475D02*
X139093904Y-75685713D01*
X139093904Y-75685713D02*
X139132000Y-75609523D01*
X139132000Y-75609523D02*
X139170095Y-75571428D01*
X139170095Y-75571428D02*
X139246285Y-75533332D01*
X139246285Y-75533332D02*
X139360571Y-75533332D01*
X139360571Y-75533332D02*
X139436761Y-75571428D01*
X139436761Y-75571428D02*
X139474857Y-75609523D01*
X139474857Y-75609523D02*
X139512952Y-75685713D01*
X139512952Y-75685713D02*
X139512952Y-75990475D01*
X139093904Y-74847618D02*
X139093904Y-74999999D01*
X139093904Y-74999999D02*
X139132000Y-75076190D01*
X139132000Y-75076190D02*
X139170095Y-75114285D01*
X139170095Y-75114285D02*
X139284380Y-75190475D01*
X139284380Y-75190475D02*
X139436761Y-75228571D01*
X139436761Y-75228571D02*
X139741523Y-75228571D01*
X139741523Y-75228571D02*
X139817714Y-75190475D01*
X139817714Y-75190475D02*
X139855809Y-75152380D01*
X139855809Y-75152380D02*
X139893904Y-75076190D01*
X139893904Y-75076190D02*
X139893904Y-74923809D01*
X139893904Y-74923809D02*
X139855809Y-74847618D01*
X139855809Y-74847618D02*
X139817714Y-74809523D01*
X139817714Y-74809523D02*
X139741523Y-74771428D01*
X139741523Y-74771428D02*
X139551047Y-74771428D01*
X139551047Y-74771428D02*
X139474857Y-74809523D01*
X139474857Y-74809523D02*
X139436761Y-74847618D01*
X139436761Y-74847618D02*
X139398666Y-74923809D01*
X139398666Y-74923809D02*
X139398666Y-75076190D01*
X139398666Y-75076190D02*
X139436761Y-75152380D01*
X139436761Y-75152380D02*
X139474857Y-75190475D01*
X139474857Y-75190475D02*
X139551047Y-75228571D01*
%TO.C,C22*%
X137285714Y-79317714D02*
X137247618Y-79355809D01*
X137247618Y-79355809D02*
X137133333Y-79393904D01*
X137133333Y-79393904D02*
X137057142Y-79393904D01*
X137057142Y-79393904D02*
X136942856Y-79355809D01*
X136942856Y-79355809D02*
X136866666Y-79279619D01*
X136866666Y-79279619D02*
X136828571Y-79203428D01*
X136828571Y-79203428D02*
X136790475Y-79051047D01*
X136790475Y-79051047D02*
X136790475Y-78936761D01*
X136790475Y-78936761D02*
X136828571Y-78784380D01*
X136828571Y-78784380D02*
X136866666Y-78708190D01*
X136866666Y-78708190D02*
X136942856Y-78632000D01*
X136942856Y-78632000D02*
X137057142Y-78593904D01*
X137057142Y-78593904D02*
X137133333Y-78593904D01*
X137133333Y-78593904D02*
X137247618Y-78632000D01*
X137247618Y-78632000D02*
X137285714Y-78670095D01*
X137590475Y-78670095D02*
X137628571Y-78632000D01*
X137628571Y-78632000D02*
X137704761Y-78593904D01*
X137704761Y-78593904D02*
X137895237Y-78593904D01*
X137895237Y-78593904D02*
X137971428Y-78632000D01*
X137971428Y-78632000D02*
X138009523Y-78670095D01*
X138009523Y-78670095D02*
X138047618Y-78746285D01*
X138047618Y-78746285D02*
X138047618Y-78822476D01*
X138047618Y-78822476D02*
X138009523Y-78936761D01*
X138009523Y-78936761D02*
X137552380Y-79393904D01*
X137552380Y-79393904D02*
X138047618Y-79393904D01*
X138352380Y-78670095D02*
X138390476Y-78632000D01*
X138390476Y-78632000D02*
X138466666Y-78593904D01*
X138466666Y-78593904D02*
X138657142Y-78593904D01*
X138657142Y-78593904D02*
X138733333Y-78632000D01*
X138733333Y-78632000D02*
X138771428Y-78670095D01*
X138771428Y-78670095D02*
X138809523Y-78746285D01*
X138809523Y-78746285D02*
X138809523Y-78822476D01*
X138809523Y-78822476D02*
X138771428Y-78936761D01*
X138771428Y-78936761D02*
X138314285Y-79393904D01*
X138314285Y-79393904D02*
X138809523Y-79393904D01*
%TO.C,R26*%
X148723904Y-94514285D02*
X148342952Y-94780952D01*
X148723904Y-94971428D02*
X147923904Y-94971428D01*
X147923904Y-94971428D02*
X147923904Y-94666666D01*
X147923904Y-94666666D02*
X147962000Y-94590476D01*
X147962000Y-94590476D02*
X148000095Y-94552381D01*
X148000095Y-94552381D02*
X148076285Y-94514285D01*
X148076285Y-94514285D02*
X148190571Y-94514285D01*
X148190571Y-94514285D02*
X148266761Y-94552381D01*
X148266761Y-94552381D02*
X148304857Y-94590476D01*
X148304857Y-94590476D02*
X148342952Y-94666666D01*
X148342952Y-94666666D02*
X148342952Y-94971428D01*
X148000095Y-94209524D02*
X147962000Y-94171428D01*
X147962000Y-94171428D02*
X147923904Y-94095238D01*
X147923904Y-94095238D02*
X147923904Y-93904762D01*
X147923904Y-93904762D02*
X147962000Y-93828571D01*
X147962000Y-93828571D02*
X148000095Y-93790476D01*
X148000095Y-93790476D02*
X148076285Y-93752381D01*
X148076285Y-93752381D02*
X148152476Y-93752381D01*
X148152476Y-93752381D02*
X148266761Y-93790476D01*
X148266761Y-93790476D02*
X148723904Y-94247619D01*
X148723904Y-94247619D02*
X148723904Y-93752381D01*
X147923904Y-93066666D02*
X147923904Y-93219047D01*
X147923904Y-93219047D02*
X147962000Y-93295238D01*
X147962000Y-93295238D02*
X148000095Y-93333333D01*
X148000095Y-93333333D02*
X148114380Y-93409523D01*
X148114380Y-93409523D02*
X148266761Y-93447619D01*
X148266761Y-93447619D02*
X148571523Y-93447619D01*
X148571523Y-93447619D02*
X148647714Y-93409523D01*
X148647714Y-93409523D02*
X148685809Y-93371428D01*
X148685809Y-93371428D02*
X148723904Y-93295238D01*
X148723904Y-93295238D02*
X148723904Y-93142857D01*
X148723904Y-93142857D02*
X148685809Y-93066666D01*
X148685809Y-93066666D02*
X148647714Y-93028571D01*
X148647714Y-93028571D02*
X148571523Y-92990476D01*
X148571523Y-92990476D02*
X148381047Y-92990476D01*
X148381047Y-92990476D02*
X148304857Y-93028571D01*
X148304857Y-93028571D02*
X148266761Y-93066666D01*
X148266761Y-93066666D02*
X148228666Y-93142857D01*
X148228666Y-93142857D02*
X148228666Y-93295238D01*
X148228666Y-93295238D02*
X148266761Y-93371428D01*
X148266761Y-93371428D02*
X148304857Y-93409523D01*
X148304857Y-93409523D02*
X148381047Y-93447619D01*
%TO.C,R23*%
X125985714Y-93393904D02*
X125719047Y-93012952D01*
X125528571Y-93393904D02*
X125528571Y-92593904D01*
X125528571Y-92593904D02*
X125833333Y-92593904D01*
X125833333Y-92593904D02*
X125909523Y-92632000D01*
X125909523Y-92632000D02*
X125947618Y-92670095D01*
X125947618Y-92670095D02*
X125985714Y-92746285D01*
X125985714Y-92746285D02*
X125985714Y-92860571D01*
X125985714Y-92860571D02*
X125947618Y-92936761D01*
X125947618Y-92936761D02*
X125909523Y-92974857D01*
X125909523Y-92974857D02*
X125833333Y-93012952D01*
X125833333Y-93012952D02*
X125528571Y-93012952D01*
X126290475Y-92670095D02*
X126328571Y-92632000D01*
X126328571Y-92632000D02*
X126404761Y-92593904D01*
X126404761Y-92593904D02*
X126595237Y-92593904D01*
X126595237Y-92593904D02*
X126671428Y-92632000D01*
X126671428Y-92632000D02*
X126709523Y-92670095D01*
X126709523Y-92670095D02*
X126747618Y-92746285D01*
X126747618Y-92746285D02*
X126747618Y-92822476D01*
X126747618Y-92822476D02*
X126709523Y-92936761D01*
X126709523Y-92936761D02*
X126252380Y-93393904D01*
X126252380Y-93393904D02*
X126747618Y-93393904D01*
X127014285Y-92593904D02*
X127509523Y-92593904D01*
X127509523Y-92593904D02*
X127242857Y-92898666D01*
X127242857Y-92898666D02*
X127357142Y-92898666D01*
X127357142Y-92898666D02*
X127433333Y-92936761D01*
X127433333Y-92936761D02*
X127471428Y-92974857D01*
X127471428Y-92974857D02*
X127509523Y-93051047D01*
X127509523Y-93051047D02*
X127509523Y-93241523D01*
X127509523Y-93241523D02*
X127471428Y-93317714D01*
X127471428Y-93317714D02*
X127433333Y-93355809D01*
X127433333Y-93355809D02*
X127357142Y-93393904D01*
X127357142Y-93393904D02*
X127128571Y-93393904D01*
X127128571Y-93393904D02*
X127052380Y-93355809D01*
X127052380Y-93355809D02*
X127014285Y-93317714D01*
%TO.C,U18*%
X145009524Y-82093904D02*
X145009524Y-82741523D01*
X145009524Y-82741523D02*
X145047619Y-82817714D01*
X145047619Y-82817714D02*
X145085714Y-82855809D01*
X145085714Y-82855809D02*
X145161905Y-82893904D01*
X145161905Y-82893904D02*
X145314286Y-82893904D01*
X145314286Y-82893904D02*
X145390476Y-82855809D01*
X145390476Y-82855809D02*
X145428571Y-82817714D01*
X145428571Y-82817714D02*
X145466667Y-82741523D01*
X145466667Y-82741523D02*
X145466667Y-82093904D01*
X146266666Y-82893904D02*
X145809523Y-82893904D01*
X146038095Y-82893904D02*
X146038095Y-82093904D01*
X146038095Y-82093904D02*
X145961904Y-82208190D01*
X145961904Y-82208190D02*
X145885714Y-82284380D01*
X145885714Y-82284380D02*
X145809523Y-82322476D01*
X146723809Y-82436761D02*
X146647619Y-82398666D01*
X146647619Y-82398666D02*
X146609524Y-82360571D01*
X146609524Y-82360571D02*
X146571428Y-82284380D01*
X146571428Y-82284380D02*
X146571428Y-82246285D01*
X146571428Y-82246285D02*
X146609524Y-82170095D01*
X146609524Y-82170095D02*
X146647619Y-82132000D01*
X146647619Y-82132000D02*
X146723809Y-82093904D01*
X146723809Y-82093904D02*
X146876190Y-82093904D01*
X146876190Y-82093904D02*
X146952381Y-82132000D01*
X146952381Y-82132000D02*
X146990476Y-82170095D01*
X146990476Y-82170095D02*
X147028571Y-82246285D01*
X147028571Y-82246285D02*
X147028571Y-82284380D01*
X147028571Y-82284380D02*
X146990476Y-82360571D01*
X146990476Y-82360571D02*
X146952381Y-82398666D01*
X146952381Y-82398666D02*
X146876190Y-82436761D01*
X146876190Y-82436761D02*
X146723809Y-82436761D01*
X146723809Y-82436761D02*
X146647619Y-82474857D01*
X146647619Y-82474857D02*
X146609524Y-82512952D01*
X146609524Y-82512952D02*
X146571428Y-82589142D01*
X146571428Y-82589142D02*
X146571428Y-82741523D01*
X146571428Y-82741523D02*
X146609524Y-82817714D01*
X146609524Y-82817714D02*
X146647619Y-82855809D01*
X146647619Y-82855809D02*
X146723809Y-82893904D01*
X146723809Y-82893904D02*
X146876190Y-82893904D01*
X146876190Y-82893904D02*
X146952381Y-82855809D01*
X146952381Y-82855809D02*
X146990476Y-82817714D01*
X146990476Y-82817714D02*
X147028571Y-82741523D01*
X147028571Y-82741523D02*
X147028571Y-82589142D01*
X147028571Y-82589142D02*
X146990476Y-82512952D01*
X146990476Y-82512952D02*
X146952381Y-82474857D01*
X146952381Y-82474857D02*
X146876190Y-82436761D01*
%TO.C,R4*%
X144866667Y-127123904D02*
X144600000Y-126742952D01*
X144409524Y-127123904D02*
X144409524Y-126323904D01*
X144409524Y-126323904D02*
X144714286Y-126323904D01*
X144714286Y-126323904D02*
X144790476Y-126362000D01*
X144790476Y-126362000D02*
X144828571Y-126400095D01*
X144828571Y-126400095D02*
X144866667Y-126476285D01*
X144866667Y-126476285D02*
X144866667Y-126590571D01*
X144866667Y-126590571D02*
X144828571Y-126666761D01*
X144828571Y-126666761D02*
X144790476Y-126704857D01*
X144790476Y-126704857D02*
X144714286Y-126742952D01*
X144714286Y-126742952D02*
X144409524Y-126742952D01*
X145552381Y-126590571D02*
X145552381Y-127123904D01*
X145361905Y-126285809D02*
X145171428Y-126857238D01*
X145171428Y-126857238D02*
X145666667Y-126857238D01*
%TO.C,J4*%
X147233333Y-123393904D02*
X147233333Y-123965333D01*
X147233333Y-123965333D02*
X147195238Y-124079619D01*
X147195238Y-124079619D02*
X147119047Y-124155809D01*
X147119047Y-124155809D02*
X147004762Y-124193904D01*
X147004762Y-124193904D02*
X146928571Y-124193904D01*
X147957143Y-123660571D02*
X147957143Y-124193904D01*
X147766667Y-123355809D02*
X147576190Y-123927238D01*
X147576190Y-123927238D02*
X148071429Y-123927238D01*
%TO.C,U19*%
X147909524Y-79693904D02*
X147909524Y-80341523D01*
X147909524Y-80341523D02*
X147947619Y-80417714D01*
X147947619Y-80417714D02*
X147985714Y-80455809D01*
X147985714Y-80455809D02*
X148061905Y-80493904D01*
X148061905Y-80493904D02*
X148214286Y-80493904D01*
X148214286Y-80493904D02*
X148290476Y-80455809D01*
X148290476Y-80455809D02*
X148328571Y-80417714D01*
X148328571Y-80417714D02*
X148366667Y-80341523D01*
X148366667Y-80341523D02*
X148366667Y-79693904D01*
X149166666Y-80493904D02*
X148709523Y-80493904D01*
X148938095Y-80493904D02*
X148938095Y-79693904D01*
X148938095Y-79693904D02*
X148861904Y-79808190D01*
X148861904Y-79808190D02*
X148785714Y-79884380D01*
X148785714Y-79884380D02*
X148709523Y-79922476D01*
X149547619Y-80493904D02*
X149700000Y-80493904D01*
X149700000Y-80493904D02*
X149776190Y-80455809D01*
X149776190Y-80455809D02*
X149814286Y-80417714D01*
X149814286Y-80417714D02*
X149890476Y-80303428D01*
X149890476Y-80303428D02*
X149928571Y-80151047D01*
X149928571Y-80151047D02*
X149928571Y-79846285D01*
X149928571Y-79846285D02*
X149890476Y-79770095D01*
X149890476Y-79770095D02*
X149852381Y-79732000D01*
X149852381Y-79732000D02*
X149776190Y-79693904D01*
X149776190Y-79693904D02*
X149623809Y-79693904D01*
X149623809Y-79693904D02*
X149547619Y-79732000D01*
X149547619Y-79732000D02*
X149509524Y-79770095D01*
X149509524Y-79770095D02*
X149471428Y-79846285D01*
X149471428Y-79846285D02*
X149471428Y-80036761D01*
X149471428Y-80036761D02*
X149509524Y-80112952D01*
X149509524Y-80112952D02*
X149547619Y-80151047D01*
X149547619Y-80151047D02*
X149623809Y-80189142D01*
X149623809Y-80189142D02*
X149776190Y-80189142D01*
X149776190Y-80189142D02*
X149852381Y-80151047D01*
X149852381Y-80151047D02*
X149890476Y-80112952D01*
X149890476Y-80112952D02*
X149928571Y-80036761D01*
%TO.C,C12*%
X133085714Y-88987714D02*
X133047618Y-89025809D01*
X133047618Y-89025809D02*
X132933333Y-89063904D01*
X132933333Y-89063904D02*
X132857142Y-89063904D01*
X132857142Y-89063904D02*
X132742856Y-89025809D01*
X132742856Y-89025809D02*
X132666666Y-88949619D01*
X132666666Y-88949619D02*
X132628571Y-88873428D01*
X132628571Y-88873428D02*
X132590475Y-88721047D01*
X132590475Y-88721047D02*
X132590475Y-88606761D01*
X132590475Y-88606761D02*
X132628571Y-88454380D01*
X132628571Y-88454380D02*
X132666666Y-88378190D01*
X132666666Y-88378190D02*
X132742856Y-88302000D01*
X132742856Y-88302000D02*
X132857142Y-88263904D01*
X132857142Y-88263904D02*
X132933333Y-88263904D01*
X132933333Y-88263904D02*
X133047618Y-88302000D01*
X133047618Y-88302000D02*
X133085714Y-88340095D01*
X133847618Y-89063904D02*
X133390475Y-89063904D01*
X133619047Y-89063904D02*
X133619047Y-88263904D01*
X133619047Y-88263904D02*
X133542856Y-88378190D01*
X133542856Y-88378190D02*
X133466666Y-88454380D01*
X133466666Y-88454380D02*
X133390475Y-88492476D01*
X134152380Y-88340095D02*
X134190476Y-88302000D01*
X134190476Y-88302000D02*
X134266666Y-88263904D01*
X134266666Y-88263904D02*
X134457142Y-88263904D01*
X134457142Y-88263904D02*
X134533333Y-88302000D01*
X134533333Y-88302000D02*
X134571428Y-88340095D01*
X134571428Y-88340095D02*
X134609523Y-88416285D01*
X134609523Y-88416285D02*
X134609523Y-88492476D01*
X134609523Y-88492476D02*
X134571428Y-88606761D01*
X134571428Y-88606761D02*
X134114285Y-89063904D01*
X134114285Y-89063904D02*
X134609523Y-89063904D01*
%TO.C,C9*%
X129647714Y-89133332D02*
X129685809Y-89171428D01*
X129685809Y-89171428D02*
X129723904Y-89285713D01*
X129723904Y-89285713D02*
X129723904Y-89361904D01*
X129723904Y-89361904D02*
X129685809Y-89476190D01*
X129685809Y-89476190D02*
X129609619Y-89552380D01*
X129609619Y-89552380D02*
X129533428Y-89590475D01*
X129533428Y-89590475D02*
X129381047Y-89628571D01*
X129381047Y-89628571D02*
X129266761Y-89628571D01*
X129266761Y-89628571D02*
X129114380Y-89590475D01*
X129114380Y-89590475D02*
X129038190Y-89552380D01*
X129038190Y-89552380D02*
X128962000Y-89476190D01*
X128962000Y-89476190D02*
X128923904Y-89361904D01*
X128923904Y-89361904D02*
X128923904Y-89285713D01*
X128923904Y-89285713D02*
X128962000Y-89171428D01*
X128962000Y-89171428D02*
X129000095Y-89133332D01*
X129723904Y-88752380D02*
X129723904Y-88599999D01*
X129723904Y-88599999D02*
X129685809Y-88523809D01*
X129685809Y-88523809D02*
X129647714Y-88485713D01*
X129647714Y-88485713D02*
X129533428Y-88409523D01*
X129533428Y-88409523D02*
X129381047Y-88371428D01*
X129381047Y-88371428D02*
X129076285Y-88371428D01*
X129076285Y-88371428D02*
X129000095Y-88409523D01*
X129000095Y-88409523D02*
X128962000Y-88447618D01*
X128962000Y-88447618D02*
X128923904Y-88523809D01*
X128923904Y-88523809D02*
X128923904Y-88676190D01*
X128923904Y-88676190D02*
X128962000Y-88752380D01*
X128962000Y-88752380D02*
X129000095Y-88790475D01*
X129000095Y-88790475D02*
X129076285Y-88828571D01*
X129076285Y-88828571D02*
X129266761Y-88828571D01*
X129266761Y-88828571D02*
X129342952Y-88790475D01*
X129342952Y-88790475D02*
X129381047Y-88752380D01*
X129381047Y-88752380D02*
X129419142Y-88676190D01*
X129419142Y-88676190D02*
X129419142Y-88523809D01*
X129419142Y-88523809D02*
X129381047Y-88447618D01*
X129381047Y-88447618D02*
X129342952Y-88409523D01*
X129342952Y-88409523D02*
X129266761Y-88371428D01*
%TO.C,R9*%
X153666667Y-93393904D02*
X153400000Y-93012952D01*
X153209524Y-93393904D02*
X153209524Y-92593904D01*
X153209524Y-92593904D02*
X153514286Y-92593904D01*
X153514286Y-92593904D02*
X153590476Y-92632000D01*
X153590476Y-92632000D02*
X153628571Y-92670095D01*
X153628571Y-92670095D02*
X153666667Y-92746285D01*
X153666667Y-92746285D02*
X153666667Y-92860571D01*
X153666667Y-92860571D02*
X153628571Y-92936761D01*
X153628571Y-92936761D02*
X153590476Y-92974857D01*
X153590476Y-92974857D02*
X153514286Y-93012952D01*
X153514286Y-93012952D02*
X153209524Y-93012952D01*
X154047619Y-93393904D02*
X154200000Y-93393904D01*
X154200000Y-93393904D02*
X154276190Y-93355809D01*
X154276190Y-93355809D02*
X154314286Y-93317714D01*
X154314286Y-93317714D02*
X154390476Y-93203428D01*
X154390476Y-93203428D02*
X154428571Y-93051047D01*
X154428571Y-93051047D02*
X154428571Y-92746285D01*
X154428571Y-92746285D02*
X154390476Y-92670095D01*
X154390476Y-92670095D02*
X154352381Y-92632000D01*
X154352381Y-92632000D02*
X154276190Y-92593904D01*
X154276190Y-92593904D02*
X154123809Y-92593904D01*
X154123809Y-92593904D02*
X154047619Y-92632000D01*
X154047619Y-92632000D02*
X154009524Y-92670095D01*
X154009524Y-92670095D02*
X153971428Y-92746285D01*
X153971428Y-92746285D02*
X153971428Y-92936761D01*
X153971428Y-92936761D02*
X154009524Y-93012952D01*
X154009524Y-93012952D02*
X154047619Y-93051047D01*
X154047619Y-93051047D02*
X154123809Y-93089142D01*
X154123809Y-93089142D02*
X154276190Y-93089142D01*
X154276190Y-93089142D02*
X154352381Y-93051047D01*
X154352381Y-93051047D02*
X154390476Y-93012952D01*
X154390476Y-93012952D02*
X154428571Y-92936761D01*
%TO.C,C7*%
X141866667Y-69617714D02*
X141828571Y-69655809D01*
X141828571Y-69655809D02*
X141714286Y-69693904D01*
X141714286Y-69693904D02*
X141638095Y-69693904D01*
X141638095Y-69693904D02*
X141523809Y-69655809D01*
X141523809Y-69655809D02*
X141447619Y-69579619D01*
X141447619Y-69579619D02*
X141409524Y-69503428D01*
X141409524Y-69503428D02*
X141371428Y-69351047D01*
X141371428Y-69351047D02*
X141371428Y-69236761D01*
X141371428Y-69236761D02*
X141409524Y-69084380D01*
X141409524Y-69084380D02*
X141447619Y-69008190D01*
X141447619Y-69008190D02*
X141523809Y-68932000D01*
X141523809Y-68932000D02*
X141638095Y-68893904D01*
X141638095Y-68893904D02*
X141714286Y-68893904D01*
X141714286Y-68893904D02*
X141828571Y-68932000D01*
X141828571Y-68932000D02*
X141866667Y-68970095D01*
X142133333Y-68893904D02*
X142666667Y-68893904D01*
X142666667Y-68893904D02*
X142323809Y-69693904D01*
%TO.C,R8*%
X141393904Y-75533332D02*
X141012952Y-75799999D01*
X141393904Y-75990475D02*
X140593904Y-75990475D01*
X140593904Y-75990475D02*
X140593904Y-75685713D01*
X140593904Y-75685713D02*
X140632000Y-75609523D01*
X140632000Y-75609523D02*
X140670095Y-75571428D01*
X140670095Y-75571428D02*
X140746285Y-75533332D01*
X140746285Y-75533332D02*
X140860571Y-75533332D01*
X140860571Y-75533332D02*
X140936761Y-75571428D01*
X140936761Y-75571428D02*
X140974857Y-75609523D01*
X140974857Y-75609523D02*
X141012952Y-75685713D01*
X141012952Y-75685713D02*
X141012952Y-75990475D01*
X140936761Y-75076190D02*
X140898666Y-75152380D01*
X140898666Y-75152380D02*
X140860571Y-75190475D01*
X140860571Y-75190475D02*
X140784380Y-75228571D01*
X140784380Y-75228571D02*
X140746285Y-75228571D01*
X140746285Y-75228571D02*
X140670095Y-75190475D01*
X140670095Y-75190475D02*
X140632000Y-75152380D01*
X140632000Y-75152380D02*
X140593904Y-75076190D01*
X140593904Y-75076190D02*
X140593904Y-74923809D01*
X140593904Y-74923809D02*
X140632000Y-74847618D01*
X140632000Y-74847618D02*
X140670095Y-74809523D01*
X140670095Y-74809523D02*
X140746285Y-74771428D01*
X140746285Y-74771428D02*
X140784380Y-74771428D01*
X140784380Y-74771428D02*
X140860571Y-74809523D01*
X140860571Y-74809523D02*
X140898666Y-74847618D01*
X140898666Y-74847618D02*
X140936761Y-74923809D01*
X140936761Y-74923809D02*
X140936761Y-75076190D01*
X140936761Y-75076190D02*
X140974857Y-75152380D01*
X140974857Y-75152380D02*
X141012952Y-75190475D01*
X141012952Y-75190475D02*
X141089142Y-75228571D01*
X141089142Y-75228571D02*
X141241523Y-75228571D01*
X141241523Y-75228571D02*
X141317714Y-75190475D01*
X141317714Y-75190475D02*
X141355809Y-75152380D01*
X141355809Y-75152380D02*
X141393904Y-75076190D01*
X141393904Y-75076190D02*
X141393904Y-74923809D01*
X141393904Y-74923809D02*
X141355809Y-74847618D01*
X141355809Y-74847618D02*
X141317714Y-74809523D01*
X141317714Y-74809523D02*
X141241523Y-74771428D01*
X141241523Y-74771428D02*
X141089142Y-74771428D01*
X141089142Y-74771428D02*
X141012952Y-74809523D01*
X141012952Y-74809523D02*
X140974857Y-74847618D01*
X140974857Y-74847618D02*
X140936761Y-74923809D01*
%TO.C,C26*%
X150485714Y-79317714D02*
X150447618Y-79355809D01*
X150447618Y-79355809D02*
X150333333Y-79393904D01*
X150333333Y-79393904D02*
X150257142Y-79393904D01*
X150257142Y-79393904D02*
X150142856Y-79355809D01*
X150142856Y-79355809D02*
X150066666Y-79279619D01*
X150066666Y-79279619D02*
X150028571Y-79203428D01*
X150028571Y-79203428D02*
X149990475Y-79051047D01*
X149990475Y-79051047D02*
X149990475Y-78936761D01*
X149990475Y-78936761D02*
X150028571Y-78784380D01*
X150028571Y-78784380D02*
X150066666Y-78708190D01*
X150066666Y-78708190D02*
X150142856Y-78632000D01*
X150142856Y-78632000D02*
X150257142Y-78593904D01*
X150257142Y-78593904D02*
X150333333Y-78593904D01*
X150333333Y-78593904D02*
X150447618Y-78632000D01*
X150447618Y-78632000D02*
X150485714Y-78670095D01*
X150790475Y-78670095D02*
X150828571Y-78632000D01*
X150828571Y-78632000D02*
X150904761Y-78593904D01*
X150904761Y-78593904D02*
X151095237Y-78593904D01*
X151095237Y-78593904D02*
X151171428Y-78632000D01*
X151171428Y-78632000D02*
X151209523Y-78670095D01*
X151209523Y-78670095D02*
X151247618Y-78746285D01*
X151247618Y-78746285D02*
X151247618Y-78822476D01*
X151247618Y-78822476D02*
X151209523Y-78936761D01*
X151209523Y-78936761D02*
X150752380Y-79393904D01*
X150752380Y-79393904D02*
X151247618Y-79393904D01*
X151933333Y-78593904D02*
X151780952Y-78593904D01*
X151780952Y-78593904D02*
X151704761Y-78632000D01*
X151704761Y-78632000D02*
X151666666Y-78670095D01*
X151666666Y-78670095D02*
X151590476Y-78784380D01*
X151590476Y-78784380D02*
X151552380Y-78936761D01*
X151552380Y-78936761D02*
X151552380Y-79241523D01*
X151552380Y-79241523D02*
X151590476Y-79317714D01*
X151590476Y-79317714D02*
X151628571Y-79355809D01*
X151628571Y-79355809D02*
X151704761Y-79393904D01*
X151704761Y-79393904D02*
X151857142Y-79393904D01*
X151857142Y-79393904D02*
X151933333Y-79355809D01*
X151933333Y-79355809D02*
X151971428Y-79317714D01*
X151971428Y-79317714D02*
X152009523Y-79241523D01*
X152009523Y-79241523D02*
X152009523Y-79051047D01*
X152009523Y-79051047D02*
X151971428Y-78974857D01*
X151971428Y-78974857D02*
X151933333Y-78936761D01*
X151933333Y-78936761D02*
X151857142Y-78898666D01*
X151857142Y-78898666D02*
X151704761Y-78898666D01*
X151704761Y-78898666D02*
X151628571Y-78936761D01*
X151628571Y-78936761D02*
X151590476Y-78974857D01*
X151590476Y-78974857D02*
X151552380Y-79051047D01*
%TO.C,C19*%
X151117714Y-89514285D02*
X151155809Y-89552381D01*
X151155809Y-89552381D02*
X151193904Y-89666666D01*
X151193904Y-89666666D02*
X151193904Y-89742857D01*
X151193904Y-89742857D02*
X151155809Y-89857143D01*
X151155809Y-89857143D02*
X151079619Y-89933333D01*
X151079619Y-89933333D02*
X151003428Y-89971428D01*
X151003428Y-89971428D02*
X150851047Y-90009524D01*
X150851047Y-90009524D02*
X150736761Y-90009524D01*
X150736761Y-90009524D02*
X150584380Y-89971428D01*
X150584380Y-89971428D02*
X150508190Y-89933333D01*
X150508190Y-89933333D02*
X150432000Y-89857143D01*
X150432000Y-89857143D02*
X150393904Y-89742857D01*
X150393904Y-89742857D02*
X150393904Y-89666666D01*
X150393904Y-89666666D02*
X150432000Y-89552381D01*
X150432000Y-89552381D02*
X150470095Y-89514285D01*
X151193904Y-88752381D02*
X151193904Y-89209524D01*
X151193904Y-88980952D02*
X150393904Y-88980952D01*
X150393904Y-88980952D02*
X150508190Y-89057143D01*
X150508190Y-89057143D02*
X150584380Y-89133333D01*
X150584380Y-89133333D02*
X150622476Y-89209524D01*
X151193904Y-88371428D02*
X151193904Y-88219047D01*
X151193904Y-88219047D02*
X151155809Y-88142857D01*
X151155809Y-88142857D02*
X151117714Y-88104761D01*
X151117714Y-88104761D02*
X151003428Y-88028571D01*
X151003428Y-88028571D02*
X150851047Y-87990476D01*
X150851047Y-87990476D02*
X150546285Y-87990476D01*
X150546285Y-87990476D02*
X150470095Y-88028571D01*
X150470095Y-88028571D02*
X150432000Y-88066666D01*
X150432000Y-88066666D02*
X150393904Y-88142857D01*
X150393904Y-88142857D02*
X150393904Y-88295238D01*
X150393904Y-88295238D02*
X150432000Y-88371428D01*
X150432000Y-88371428D02*
X150470095Y-88409523D01*
X150470095Y-88409523D02*
X150546285Y-88447619D01*
X150546285Y-88447619D02*
X150736761Y-88447619D01*
X150736761Y-88447619D02*
X150812952Y-88409523D01*
X150812952Y-88409523D02*
X150851047Y-88371428D01*
X150851047Y-88371428D02*
X150889142Y-88295238D01*
X150889142Y-88295238D02*
X150889142Y-88142857D01*
X150889142Y-88142857D02*
X150851047Y-88066666D01*
X150851047Y-88066666D02*
X150812952Y-88028571D01*
X150812952Y-88028571D02*
X150736761Y-87990476D01*
%TO.C,C2*%
X132666667Y-118417714D02*
X132628571Y-118455809D01*
X132628571Y-118455809D02*
X132514286Y-118493904D01*
X132514286Y-118493904D02*
X132438095Y-118493904D01*
X132438095Y-118493904D02*
X132323809Y-118455809D01*
X132323809Y-118455809D02*
X132247619Y-118379619D01*
X132247619Y-118379619D02*
X132209524Y-118303428D01*
X132209524Y-118303428D02*
X132171428Y-118151047D01*
X132171428Y-118151047D02*
X132171428Y-118036761D01*
X132171428Y-118036761D02*
X132209524Y-117884380D01*
X132209524Y-117884380D02*
X132247619Y-117808190D01*
X132247619Y-117808190D02*
X132323809Y-117732000D01*
X132323809Y-117732000D02*
X132438095Y-117693904D01*
X132438095Y-117693904D02*
X132514286Y-117693904D01*
X132514286Y-117693904D02*
X132628571Y-117732000D01*
X132628571Y-117732000D02*
X132666667Y-117770095D01*
X132971428Y-117770095D02*
X133009524Y-117732000D01*
X133009524Y-117732000D02*
X133085714Y-117693904D01*
X133085714Y-117693904D02*
X133276190Y-117693904D01*
X133276190Y-117693904D02*
X133352381Y-117732000D01*
X133352381Y-117732000D02*
X133390476Y-117770095D01*
X133390476Y-117770095D02*
X133428571Y-117846285D01*
X133428571Y-117846285D02*
X133428571Y-117922476D01*
X133428571Y-117922476D02*
X133390476Y-118036761D01*
X133390476Y-118036761D02*
X132933333Y-118493904D01*
X132933333Y-118493904D02*
X133428571Y-118493904D01*
%TO.C,D2*%
X141409524Y-126793904D02*
X141409524Y-125993904D01*
X141409524Y-125993904D02*
X141600000Y-125993904D01*
X141600000Y-125993904D02*
X141714286Y-126032000D01*
X141714286Y-126032000D02*
X141790476Y-126108190D01*
X141790476Y-126108190D02*
X141828571Y-126184380D01*
X141828571Y-126184380D02*
X141866667Y-126336761D01*
X141866667Y-126336761D02*
X141866667Y-126451047D01*
X141866667Y-126451047D02*
X141828571Y-126603428D01*
X141828571Y-126603428D02*
X141790476Y-126679619D01*
X141790476Y-126679619D02*
X141714286Y-126755809D01*
X141714286Y-126755809D02*
X141600000Y-126793904D01*
X141600000Y-126793904D02*
X141409524Y-126793904D01*
X142171428Y-126070095D02*
X142209524Y-126032000D01*
X142209524Y-126032000D02*
X142285714Y-125993904D01*
X142285714Y-125993904D02*
X142476190Y-125993904D01*
X142476190Y-125993904D02*
X142552381Y-126032000D01*
X142552381Y-126032000D02*
X142590476Y-126070095D01*
X142590476Y-126070095D02*
X142628571Y-126146285D01*
X142628571Y-126146285D02*
X142628571Y-126222476D01*
X142628571Y-126222476D02*
X142590476Y-126336761D01*
X142590476Y-126336761D02*
X142133333Y-126793904D01*
X142133333Y-126793904D02*
X142628571Y-126793904D01*
%TO.C,J1*%
X126019301Y-114053574D02*
X125615240Y-114457635D01*
X125615240Y-114457635D02*
X125507491Y-114511509D01*
X125507491Y-114511509D02*
X125399741Y-114511509D01*
X125399741Y-114511509D02*
X125291991Y-114457635D01*
X125291991Y-114457635D02*
X125238117Y-114403760D01*
X126019301Y-115184945D02*
X125696053Y-114861696D01*
X125857677Y-115023320D02*
X126423362Y-114457635D01*
X126423362Y-114457635D02*
X126288675Y-114484572D01*
X126288675Y-114484572D02*
X126180926Y-114484572D01*
X126180926Y-114484572D02*
X126100114Y-114457635D01*
%TO.C,R24*%
X130793904Y-92214285D02*
X130412952Y-92480952D01*
X130793904Y-92671428D02*
X129993904Y-92671428D01*
X129993904Y-92671428D02*
X129993904Y-92366666D01*
X129993904Y-92366666D02*
X130032000Y-92290476D01*
X130032000Y-92290476D02*
X130070095Y-92252381D01*
X130070095Y-92252381D02*
X130146285Y-92214285D01*
X130146285Y-92214285D02*
X130260571Y-92214285D01*
X130260571Y-92214285D02*
X130336761Y-92252381D01*
X130336761Y-92252381D02*
X130374857Y-92290476D01*
X130374857Y-92290476D02*
X130412952Y-92366666D01*
X130412952Y-92366666D02*
X130412952Y-92671428D01*
X130070095Y-91909524D02*
X130032000Y-91871428D01*
X130032000Y-91871428D02*
X129993904Y-91795238D01*
X129993904Y-91795238D02*
X129993904Y-91604762D01*
X129993904Y-91604762D02*
X130032000Y-91528571D01*
X130032000Y-91528571D02*
X130070095Y-91490476D01*
X130070095Y-91490476D02*
X130146285Y-91452381D01*
X130146285Y-91452381D02*
X130222476Y-91452381D01*
X130222476Y-91452381D02*
X130336761Y-91490476D01*
X130336761Y-91490476D02*
X130793904Y-91947619D01*
X130793904Y-91947619D02*
X130793904Y-91452381D01*
X130260571Y-90766666D02*
X130793904Y-90766666D01*
X129955809Y-90957142D02*
X130527238Y-91147619D01*
X130527238Y-91147619D02*
X130527238Y-90652380D01*
%TO.C,U9*%
X139390476Y-101693904D02*
X139390476Y-102341523D01*
X139390476Y-102341523D02*
X139428571Y-102417714D01*
X139428571Y-102417714D02*
X139466666Y-102455809D01*
X139466666Y-102455809D02*
X139542857Y-102493904D01*
X139542857Y-102493904D02*
X139695238Y-102493904D01*
X139695238Y-102493904D02*
X139771428Y-102455809D01*
X139771428Y-102455809D02*
X139809523Y-102417714D01*
X139809523Y-102417714D02*
X139847619Y-102341523D01*
X139847619Y-102341523D02*
X139847619Y-101693904D01*
X140266666Y-102493904D02*
X140419047Y-102493904D01*
X140419047Y-102493904D02*
X140495237Y-102455809D01*
X140495237Y-102455809D02*
X140533333Y-102417714D01*
X140533333Y-102417714D02*
X140609523Y-102303428D01*
X140609523Y-102303428D02*
X140647618Y-102151047D01*
X140647618Y-102151047D02*
X140647618Y-101846285D01*
X140647618Y-101846285D02*
X140609523Y-101770095D01*
X140609523Y-101770095D02*
X140571428Y-101732000D01*
X140571428Y-101732000D02*
X140495237Y-101693904D01*
X140495237Y-101693904D02*
X140342856Y-101693904D01*
X140342856Y-101693904D02*
X140266666Y-101732000D01*
X140266666Y-101732000D02*
X140228571Y-101770095D01*
X140228571Y-101770095D02*
X140190475Y-101846285D01*
X140190475Y-101846285D02*
X140190475Y-102036761D01*
X140190475Y-102036761D02*
X140228571Y-102112952D01*
X140228571Y-102112952D02*
X140266666Y-102151047D01*
X140266666Y-102151047D02*
X140342856Y-102189142D01*
X140342856Y-102189142D02*
X140495237Y-102189142D01*
X140495237Y-102189142D02*
X140571428Y-102151047D01*
X140571428Y-102151047D02*
X140609523Y-102112952D01*
X140609523Y-102112952D02*
X140647618Y-102036761D01*
%TO.C,Q1*%
X156823809Y-107270095D02*
X156747619Y-107232000D01*
X156747619Y-107232000D02*
X156671428Y-107155809D01*
X156671428Y-107155809D02*
X156557142Y-107041523D01*
X156557142Y-107041523D02*
X156480952Y-107003428D01*
X156480952Y-107003428D02*
X156404761Y-107003428D01*
X156442857Y-107193904D02*
X156366666Y-107155809D01*
X156366666Y-107155809D02*
X156290476Y-107079619D01*
X156290476Y-107079619D02*
X156252380Y-106927238D01*
X156252380Y-106927238D02*
X156252380Y-106660571D01*
X156252380Y-106660571D02*
X156290476Y-106508190D01*
X156290476Y-106508190D02*
X156366666Y-106432000D01*
X156366666Y-106432000D02*
X156442857Y-106393904D01*
X156442857Y-106393904D02*
X156595238Y-106393904D01*
X156595238Y-106393904D02*
X156671428Y-106432000D01*
X156671428Y-106432000D02*
X156747619Y-106508190D01*
X156747619Y-106508190D02*
X156785714Y-106660571D01*
X156785714Y-106660571D02*
X156785714Y-106927238D01*
X156785714Y-106927238D02*
X156747619Y-107079619D01*
X156747619Y-107079619D02*
X156671428Y-107155809D01*
X156671428Y-107155809D02*
X156595238Y-107193904D01*
X156595238Y-107193904D02*
X156442857Y-107193904D01*
X157547618Y-107193904D02*
X157090475Y-107193904D01*
X157319047Y-107193904D02*
X157319047Y-106393904D01*
X157319047Y-106393904D02*
X157242856Y-106508190D01*
X157242856Y-106508190D02*
X157166666Y-106584380D01*
X157166666Y-106584380D02*
X157090475Y-106622476D01*
%TO.C,U11*%
X132009524Y-82093904D02*
X132009524Y-82741523D01*
X132009524Y-82741523D02*
X132047619Y-82817714D01*
X132047619Y-82817714D02*
X132085714Y-82855809D01*
X132085714Y-82855809D02*
X132161905Y-82893904D01*
X132161905Y-82893904D02*
X132314286Y-82893904D01*
X132314286Y-82893904D02*
X132390476Y-82855809D01*
X132390476Y-82855809D02*
X132428571Y-82817714D01*
X132428571Y-82817714D02*
X132466667Y-82741523D01*
X132466667Y-82741523D02*
X132466667Y-82093904D01*
X133266666Y-82893904D02*
X132809523Y-82893904D01*
X133038095Y-82893904D02*
X133038095Y-82093904D01*
X133038095Y-82093904D02*
X132961904Y-82208190D01*
X132961904Y-82208190D02*
X132885714Y-82284380D01*
X132885714Y-82284380D02*
X132809523Y-82322476D01*
X134028571Y-82893904D02*
X133571428Y-82893904D01*
X133800000Y-82893904D02*
X133800000Y-82093904D01*
X133800000Y-82093904D02*
X133723809Y-82208190D01*
X133723809Y-82208190D02*
X133647619Y-82284380D01*
X133647619Y-82284380D02*
X133571428Y-82322476D01*
%TO.C,R18*%
X139593904Y-115514285D02*
X139212952Y-115780952D01*
X139593904Y-115971428D02*
X138793904Y-115971428D01*
X138793904Y-115971428D02*
X138793904Y-115666666D01*
X138793904Y-115666666D02*
X138832000Y-115590476D01*
X138832000Y-115590476D02*
X138870095Y-115552381D01*
X138870095Y-115552381D02*
X138946285Y-115514285D01*
X138946285Y-115514285D02*
X139060571Y-115514285D01*
X139060571Y-115514285D02*
X139136761Y-115552381D01*
X139136761Y-115552381D02*
X139174857Y-115590476D01*
X139174857Y-115590476D02*
X139212952Y-115666666D01*
X139212952Y-115666666D02*
X139212952Y-115971428D01*
X139593904Y-114752381D02*
X139593904Y-115209524D01*
X139593904Y-114980952D02*
X138793904Y-114980952D01*
X138793904Y-114980952D02*
X138908190Y-115057143D01*
X138908190Y-115057143D02*
X138984380Y-115133333D01*
X138984380Y-115133333D02*
X139022476Y-115209524D01*
X139136761Y-114295238D02*
X139098666Y-114371428D01*
X139098666Y-114371428D02*
X139060571Y-114409523D01*
X139060571Y-114409523D02*
X138984380Y-114447619D01*
X138984380Y-114447619D02*
X138946285Y-114447619D01*
X138946285Y-114447619D02*
X138870095Y-114409523D01*
X138870095Y-114409523D02*
X138832000Y-114371428D01*
X138832000Y-114371428D02*
X138793904Y-114295238D01*
X138793904Y-114295238D02*
X138793904Y-114142857D01*
X138793904Y-114142857D02*
X138832000Y-114066666D01*
X138832000Y-114066666D02*
X138870095Y-114028571D01*
X138870095Y-114028571D02*
X138946285Y-113990476D01*
X138946285Y-113990476D02*
X138984380Y-113990476D01*
X138984380Y-113990476D02*
X139060571Y-114028571D01*
X139060571Y-114028571D02*
X139098666Y-114066666D01*
X139098666Y-114066666D02*
X139136761Y-114142857D01*
X139136761Y-114142857D02*
X139136761Y-114295238D01*
X139136761Y-114295238D02*
X139174857Y-114371428D01*
X139174857Y-114371428D02*
X139212952Y-114409523D01*
X139212952Y-114409523D02*
X139289142Y-114447619D01*
X139289142Y-114447619D02*
X139441523Y-114447619D01*
X139441523Y-114447619D02*
X139517714Y-114409523D01*
X139517714Y-114409523D02*
X139555809Y-114371428D01*
X139555809Y-114371428D02*
X139593904Y-114295238D01*
X139593904Y-114295238D02*
X139593904Y-114142857D01*
X139593904Y-114142857D02*
X139555809Y-114066666D01*
X139555809Y-114066666D02*
X139517714Y-114028571D01*
X139517714Y-114028571D02*
X139441523Y-113990476D01*
X139441523Y-113990476D02*
X139289142Y-113990476D01*
X139289142Y-113990476D02*
X139212952Y-114028571D01*
X139212952Y-114028571D02*
X139174857Y-114066666D01*
X139174857Y-114066666D02*
X139136761Y-114142857D01*
%TO.C,C28*%
X141285714Y-88017714D02*
X141247618Y-88055809D01*
X141247618Y-88055809D02*
X141133333Y-88093904D01*
X141133333Y-88093904D02*
X141057142Y-88093904D01*
X141057142Y-88093904D02*
X140942856Y-88055809D01*
X140942856Y-88055809D02*
X140866666Y-87979619D01*
X140866666Y-87979619D02*
X140828571Y-87903428D01*
X140828571Y-87903428D02*
X140790475Y-87751047D01*
X140790475Y-87751047D02*
X140790475Y-87636761D01*
X140790475Y-87636761D02*
X140828571Y-87484380D01*
X140828571Y-87484380D02*
X140866666Y-87408190D01*
X140866666Y-87408190D02*
X140942856Y-87332000D01*
X140942856Y-87332000D02*
X141057142Y-87293904D01*
X141057142Y-87293904D02*
X141133333Y-87293904D01*
X141133333Y-87293904D02*
X141247618Y-87332000D01*
X141247618Y-87332000D02*
X141285714Y-87370095D01*
X141590475Y-87370095D02*
X141628571Y-87332000D01*
X141628571Y-87332000D02*
X141704761Y-87293904D01*
X141704761Y-87293904D02*
X141895237Y-87293904D01*
X141895237Y-87293904D02*
X141971428Y-87332000D01*
X141971428Y-87332000D02*
X142009523Y-87370095D01*
X142009523Y-87370095D02*
X142047618Y-87446285D01*
X142047618Y-87446285D02*
X142047618Y-87522476D01*
X142047618Y-87522476D02*
X142009523Y-87636761D01*
X142009523Y-87636761D02*
X141552380Y-88093904D01*
X141552380Y-88093904D02*
X142047618Y-88093904D01*
X142504761Y-87636761D02*
X142428571Y-87598666D01*
X142428571Y-87598666D02*
X142390476Y-87560571D01*
X142390476Y-87560571D02*
X142352380Y-87484380D01*
X142352380Y-87484380D02*
X142352380Y-87446285D01*
X142352380Y-87446285D02*
X142390476Y-87370095D01*
X142390476Y-87370095D02*
X142428571Y-87332000D01*
X142428571Y-87332000D02*
X142504761Y-87293904D01*
X142504761Y-87293904D02*
X142657142Y-87293904D01*
X142657142Y-87293904D02*
X142733333Y-87332000D01*
X142733333Y-87332000D02*
X142771428Y-87370095D01*
X142771428Y-87370095D02*
X142809523Y-87446285D01*
X142809523Y-87446285D02*
X142809523Y-87484380D01*
X142809523Y-87484380D02*
X142771428Y-87560571D01*
X142771428Y-87560571D02*
X142733333Y-87598666D01*
X142733333Y-87598666D02*
X142657142Y-87636761D01*
X142657142Y-87636761D02*
X142504761Y-87636761D01*
X142504761Y-87636761D02*
X142428571Y-87674857D01*
X142428571Y-87674857D02*
X142390476Y-87712952D01*
X142390476Y-87712952D02*
X142352380Y-87789142D01*
X142352380Y-87789142D02*
X142352380Y-87941523D01*
X142352380Y-87941523D02*
X142390476Y-88017714D01*
X142390476Y-88017714D02*
X142428571Y-88055809D01*
X142428571Y-88055809D02*
X142504761Y-88093904D01*
X142504761Y-88093904D02*
X142657142Y-88093904D01*
X142657142Y-88093904D02*
X142733333Y-88055809D01*
X142733333Y-88055809D02*
X142771428Y-88017714D01*
X142771428Y-88017714D02*
X142809523Y-87941523D01*
X142809523Y-87941523D02*
X142809523Y-87789142D01*
X142809523Y-87789142D02*
X142771428Y-87712952D01*
X142771428Y-87712952D02*
X142733333Y-87674857D01*
X142733333Y-87674857D02*
X142657142Y-87636761D01*
%TO.C,R5*%
X136866667Y-90123904D02*
X136600000Y-89742952D01*
X136409524Y-90123904D02*
X136409524Y-89323904D01*
X136409524Y-89323904D02*
X136714286Y-89323904D01*
X136714286Y-89323904D02*
X136790476Y-89362000D01*
X136790476Y-89362000D02*
X136828571Y-89400095D01*
X136828571Y-89400095D02*
X136866667Y-89476285D01*
X136866667Y-89476285D02*
X136866667Y-89590571D01*
X136866667Y-89590571D02*
X136828571Y-89666761D01*
X136828571Y-89666761D02*
X136790476Y-89704857D01*
X136790476Y-89704857D02*
X136714286Y-89742952D01*
X136714286Y-89742952D02*
X136409524Y-89742952D01*
X137590476Y-89323904D02*
X137209524Y-89323904D01*
X137209524Y-89323904D02*
X137171428Y-89704857D01*
X137171428Y-89704857D02*
X137209524Y-89666761D01*
X137209524Y-89666761D02*
X137285714Y-89628666D01*
X137285714Y-89628666D02*
X137476190Y-89628666D01*
X137476190Y-89628666D02*
X137552381Y-89666761D01*
X137552381Y-89666761D02*
X137590476Y-89704857D01*
X137590476Y-89704857D02*
X137628571Y-89781047D01*
X137628571Y-89781047D02*
X137628571Y-89971523D01*
X137628571Y-89971523D02*
X137590476Y-90047714D01*
X137590476Y-90047714D02*
X137552381Y-90085809D01*
X137552381Y-90085809D02*
X137476190Y-90123904D01*
X137476190Y-90123904D02*
X137285714Y-90123904D01*
X137285714Y-90123904D02*
X137209524Y-90085809D01*
X137209524Y-90085809D02*
X137171428Y-90047714D01*
%TO.C,SW1*%
X130264867Y-124626638D02*
X130318742Y-124734387D01*
X130318742Y-124734387D02*
X130453429Y-124869074D01*
X130453429Y-124869074D02*
X130534241Y-124896012D01*
X130534241Y-124896012D02*
X130588116Y-124896012D01*
X130588116Y-124896012D02*
X130668928Y-124869074D01*
X130668928Y-124869074D02*
X130722803Y-124815199D01*
X130722803Y-124815199D02*
X130749741Y-124734387D01*
X130749741Y-124734387D02*
X130749741Y-124680512D01*
X130749741Y-124680512D02*
X130722803Y-124599700D01*
X130722803Y-124599700D02*
X130641991Y-124465013D01*
X130641991Y-124465013D02*
X130615054Y-124384201D01*
X130615054Y-124384201D02*
X130615054Y-124330326D01*
X130615054Y-124330326D02*
X130641991Y-124249514D01*
X130641991Y-124249514D02*
X130695866Y-124195639D01*
X130695866Y-124195639D02*
X130776678Y-124168702D01*
X130776678Y-124168702D02*
X130830553Y-124168702D01*
X130830553Y-124168702D02*
X130911365Y-124195639D01*
X130911365Y-124195639D02*
X131046052Y-124330326D01*
X131046052Y-124330326D02*
X131099927Y-124438076D01*
X131315426Y-124599700D02*
X130884428Y-125300073D01*
X130884428Y-125300073D02*
X131396238Y-125003761D01*
X131396238Y-125003761D02*
X131099927Y-125515572D01*
X131099927Y-125515572D02*
X131800299Y-125084574D01*
X131746425Y-126162070D02*
X131423176Y-125838821D01*
X131584800Y-126000445D02*
X132150486Y-125434760D01*
X132150486Y-125434760D02*
X132015799Y-125461697D01*
X132015799Y-125461697D02*
X131908049Y-125461697D01*
X131908049Y-125461697D02*
X131827237Y-125434760D01*
%TO.C,R14*%
X149593904Y-117614285D02*
X149212952Y-117880952D01*
X149593904Y-118071428D02*
X148793904Y-118071428D01*
X148793904Y-118071428D02*
X148793904Y-117766666D01*
X148793904Y-117766666D02*
X148832000Y-117690476D01*
X148832000Y-117690476D02*
X148870095Y-117652381D01*
X148870095Y-117652381D02*
X148946285Y-117614285D01*
X148946285Y-117614285D02*
X149060571Y-117614285D01*
X149060571Y-117614285D02*
X149136761Y-117652381D01*
X149136761Y-117652381D02*
X149174857Y-117690476D01*
X149174857Y-117690476D02*
X149212952Y-117766666D01*
X149212952Y-117766666D02*
X149212952Y-118071428D01*
X149593904Y-116852381D02*
X149593904Y-117309524D01*
X149593904Y-117080952D02*
X148793904Y-117080952D01*
X148793904Y-117080952D02*
X148908190Y-117157143D01*
X148908190Y-117157143D02*
X148984380Y-117233333D01*
X148984380Y-117233333D02*
X149022476Y-117309524D01*
X149060571Y-116166666D02*
X149593904Y-116166666D01*
X148755809Y-116357142D02*
X149327238Y-116547619D01*
X149327238Y-116547619D02*
X149327238Y-116052380D01*
%TO.C,C8*%
X135866667Y-122717714D02*
X135828571Y-122755809D01*
X135828571Y-122755809D02*
X135714286Y-122793904D01*
X135714286Y-122793904D02*
X135638095Y-122793904D01*
X135638095Y-122793904D02*
X135523809Y-122755809D01*
X135523809Y-122755809D02*
X135447619Y-122679619D01*
X135447619Y-122679619D02*
X135409524Y-122603428D01*
X135409524Y-122603428D02*
X135371428Y-122451047D01*
X135371428Y-122451047D02*
X135371428Y-122336761D01*
X135371428Y-122336761D02*
X135409524Y-122184380D01*
X135409524Y-122184380D02*
X135447619Y-122108190D01*
X135447619Y-122108190D02*
X135523809Y-122032000D01*
X135523809Y-122032000D02*
X135638095Y-121993904D01*
X135638095Y-121993904D02*
X135714286Y-121993904D01*
X135714286Y-121993904D02*
X135828571Y-122032000D01*
X135828571Y-122032000D02*
X135866667Y-122070095D01*
X136323809Y-122336761D02*
X136247619Y-122298666D01*
X136247619Y-122298666D02*
X136209524Y-122260571D01*
X136209524Y-122260571D02*
X136171428Y-122184380D01*
X136171428Y-122184380D02*
X136171428Y-122146285D01*
X136171428Y-122146285D02*
X136209524Y-122070095D01*
X136209524Y-122070095D02*
X136247619Y-122032000D01*
X136247619Y-122032000D02*
X136323809Y-121993904D01*
X136323809Y-121993904D02*
X136476190Y-121993904D01*
X136476190Y-121993904D02*
X136552381Y-122032000D01*
X136552381Y-122032000D02*
X136590476Y-122070095D01*
X136590476Y-122070095D02*
X136628571Y-122146285D01*
X136628571Y-122146285D02*
X136628571Y-122184380D01*
X136628571Y-122184380D02*
X136590476Y-122260571D01*
X136590476Y-122260571D02*
X136552381Y-122298666D01*
X136552381Y-122298666D02*
X136476190Y-122336761D01*
X136476190Y-122336761D02*
X136323809Y-122336761D01*
X136323809Y-122336761D02*
X136247619Y-122374857D01*
X136247619Y-122374857D02*
X136209524Y-122412952D01*
X136209524Y-122412952D02*
X136171428Y-122489142D01*
X136171428Y-122489142D02*
X136171428Y-122641523D01*
X136171428Y-122641523D02*
X136209524Y-122717714D01*
X136209524Y-122717714D02*
X136247619Y-122755809D01*
X136247619Y-122755809D02*
X136323809Y-122793904D01*
X136323809Y-122793904D02*
X136476190Y-122793904D01*
X136476190Y-122793904D02*
X136552381Y-122755809D01*
X136552381Y-122755809D02*
X136590476Y-122717714D01*
X136590476Y-122717714D02*
X136628571Y-122641523D01*
X136628571Y-122641523D02*
X136628571Y-122489142D01*
X136628571Y-122489142D02*
X136590476Y-122412952D01*
X136590476Y-122412952D02*
X136552381Y-122374857D01*
X136552381Y-122374857D02*
X136476190Y-122336761D01*
%TO.C,C16*%
X136485714Y-97817714D02*
X136447618Y-97855809D01*
X136447618Y-97855809D02*
X136333333Y-97893904D01*
X136333333Y-97893904D02*
X136257142Y-97893904D01*
X136257142Y-97893904D02*
X136142856Y-97855809D01*
X136142856Y-97855809D02*
X136066666Y-97779619D01*
X136066666Y-97779619D02*
X136028571Y-97703428D01*
X136028571Y-97703428D02*
X135990475Y-97551047D01*
X135990475Y-97551047D02*
X135990475Y-97436761D01*
X135990475Y-97436761D02*
X136028571Y-97284380D01*
X136028571Y-97284380D02*
X136066666Y-97208190D01*
X136066666Y-97208190D02*
X136142856Y-97132000D01*
X136142856Y-97132000D02*
X136257142Y-97093904D01*
X136257142Y-97093904D02*
X136333333Y-97093904D01*
X136333333Y-97093904D02*
X136447618Y-97132000D01*
X136447618Y-97132000D02*
X136485714Y-97170095D01*
X137247618Y-97893904D02*
X136790475Y-97893904D01*
X137019047Y-97893904D02*
X137019047Y-97093904D01*
X137019047Y-97093904D02*
X136942856Y-97208190D01*
X136942856Y-97208190D02*
X136866666Y-97284380D01*
X136866666Y-97284380D02*
X136790475Y-97322476D01*
X137933333Y-97093904D02*
X137780952Y-97093904D01*
X137780952Y-97093904D02*
X137704761Y-97132000D01*
X137704761Y-97132000D02*
X137666666Y-97170095D01*
X137666666Y-97170095D02*
X137590476Y-97284380D01*
X137590476Y-97284380D02*
X137552380Y-97436761D01*
X137552380Y-97436761D02*
X137552380Y-97741523D01*
X137552380Y-97741523D02*
X137590476Y-97817714D01*
X137590476Y-97817714D02*
X137628571Y-97855809D01*
X137628571Y-97855809D02*
X137704761Y-97893904D01*
X137704761Y-97893904D02*
X137857142Y-97893904D01*
X137857142Y-97893904D02*
X137933333Y-97855809D01*
X137933333Y-97855809D02*
X137971428Y-97817714D01*
X137971428Y-97817714D02*
X138009523Y-97741523D01*
X138009523Y-97741523D02*
X138009523Y-97551047D01*
X138009523Y-97551047D02*
X137971428Y-97474857D01*
X137971428Y-97474857D02*
X137933333Y-97436761D01*
X137933333Y-97436761D02*
X137857142Y-97398666D01*
X137857142Y-97398666D02*
X137704761Y-97398666D01*
X137704761Y-97398666D02*
X137628571Y-97436761D01*
X137628571Y-97436761D02*
X137590476Y-97474857D01*
X137590476Y-97474857D02*
X137552380Y-97551047D01*
%TO.C,C1*%
X130566667Y-115717714D02*
X130528571Y-115755809D01*
X130528571Y-115755809D02*
X130414286Y-115793904D01*
X130414286Y-115793904D02*
X130338095Y-115793904D01*
X130338095Y-115793904D02*
X130223809Y-115755809D01*
X130223809Y-115755809D02*
X130147619Y-115679619D01*
X130147619Y-115679619D02*
X130109524Y-115603428D01*
X130109524Y-115603428D02*
X130071428Y-115451047D01*
X130071428Y-115451047D02*
X130071428Y-115336761D01*
X130071428Y-115336761D02*
X130109524Y-115184380D01*
X130109524Y-115184380D02*
X130147619Y-115108190D01*
X130147619Y-115108190D02*
X130223809Y-115032000D01*
X130223809Y-115032000D02*
X130338095Y-114993904D01*
X130338095Y-114993904D02*
X130414286Y-114993904D01*
X130414286Y-114993904D02*
X130528571Y-115032000D01*
X130528571Y-115032000D02*
X130566667Y-115070095D01*
X131328571Y-115793904D02*
X130871428Y-115793904D01*
X131100000Y-115793904D02*
X131100000Y-114993904D01*
X131100000Y-114993904D02*
X131023809Y-115108190D01*
X131023809Y-115108190D02*
X130947619Y-115184380D01*
X130947619Y-115184380D02*
X130871428Y-115222476D01*
%TO.C,C29*%
X141285714Y-89117714D02*
X141247618Y-89155809D01*
X141247618Y-89155809D02*
X141133333Y-89193904D01*
X141133333Y-89193904D02*
X141057142Y-89193904D01*
X141057142Y-89193904D02*
X140942856Y-89155809D01*
X140942856Y-89155809D02*
X140866666Y-89079619D01*
X140866666Y-89079619D02*
X140828571Y-89003428D01*
X140828571Y-89003428D02*
X140790475Y-88851047D01*
X140790475Y-88851047D02*
X140790475Y-88736761D01*
X140790475Y-88736761D02*
X140828571Y-88584380D01*
X140828571Y-88584380D02*
X140866666Y-88508190D01*
X140866666Y-88508190D02*
X140942856Y-88432000D01*
X140942856Y-88432000D02*
X141057142Y-88393904D01*
X141057142Y-88393904D02*
X141133333Y-88393904D01*
X141133333Y-88393904D02*
X141247618Y-88432000D01*
X141247618Y-88432000D02*
X141285714Y-88470095D01*
X141590475Y-88470095D02*
X141628571Y-88432000D01*
X141628571Y-88432000D02*
X141704761Y-88393904D01*
X141704761Y-88393904D02*
X141895237Y-88393904D01*
X141895237Y-88393904D02*
X141971428Y-88432000D01*
X141971428Y-88432000D02*
X142009523Y-88470095D01*
X142009523Y-88470095D02*
X142047618Y-88546285D01*
X142047618Y-88546285D02*
X142047618Y-88622476D01*
X142047618Y-88622476D02*
X142009523Y-88736761D01*
X142009523Y-88736761D02*
X141552380Y-89193904D01*
X141552380Y-89193904D02*
X142047618Y-89193904D01*
X142428571Y-89193904D02*
X142580952Y-89193904D01*
X142580952Y-89193904D02*
X142657142Y-89155809D01*
X142657142Y-89155809D02*
X142695238Y-89117714D01*
X142695238Y-89117714D02*
X142771428Y-89003428D01*
X142771428Y-89003428D02*
X142809523Y-88851047D01*
X142809523Y-88851047D02*
X142809523Y-88546285D01*
X142809523Y-88546285D02*
X142771428Y-88470095D01*
X142771428Y-88470095D02*
X142733333Y-88432000D01*
X142733333Y-88432000D02*
X142657142Y-88393904D01*
X142657142Y-88393904D02*
X142504761Y-88393904D01*
X142504761Y-88393904D02*
X142428571Y-88432000D01*
X142428571Y-88432000D02*
X142390476Y-88470095D01*
X142390476Y-88470095D02*
X142352380Y-88546285D01*
X142352380Y-88546285D02*
X142352380Y-88736761D01*
X142352380Y-88736761D02*
X142390476Y-88812952D01*
X142390476Y-88812952D02*
X142428571Y-88851047D01*
X142428571Y-88851047D02*
X142504761Y-88889142D01*
X142504761Y-88889142D02*
X142657142Y-88889142D01*
X142657142Y-88889142D02*
X142733333Y-88851047D01*
X142733333Y-88851047D02*
X142771428Y-88812952D01*
X142771428Y-88812952D02*
X142809523Y-88736761D01*
%TO.C,J5*%
X139533333Y-125793904D02*
X139533333Y-126365333D01*
X139533333Y-126365333D02*
X139495238Y-126479619D01*
X139495238Y-126479619D02*
X139419047Y-126555809D01*
X139419047Y-126555809D02*
X139304762Y-126593904D01*
X139304762Y-126593904D02*
X139228571Y-126593904D01*
X140295238Y-125793904D02*
X139914286Y-125793904D01*
X139914286Y-125793904D02*
X139876190Y-126174857D01*
X139876190Y-126174857D02*
X139914286Y-126136761D01*
X139914286Y-126136761D02*
X139990476Y-126098666D01*
X139990476Y-126098666D02*
X140180952Y-126098666D01*
X140180952Y-126098666D02*
X140257143Y-126136761D01*
X140257143Y-126136761D02*
X140295238Y-126174857D01*
X140295238Y-126174857D02*
X140333333Y-126251047D01*
X140333333Y-126251047D02*
X140333333Y-126441523D01*
X140333333Y-126441523D02*
X140295238Y-126517714D01*
X140295238Y-126517714D02*
X140257143Y-126555809D01*
X140257143Y-126555809D02*
X140180952Y-126593904D01*
X140180952Y-126593904D02*
X139990476Y-126593904D01*
X139990476Y-126593904D02*
X139914286Y-126555809D01*
X139914286Y-126555809D02*
X139876190Y-126517714D01*
%TO.C,C23*%
X137285714Y-78317714D02*
X137247618Y-78355809D01*
X137247618Y-78355809D02*
X137133333Y-78393904D01*
X137133333Y-78393904D02*
X137057142Y-78393904D01*
X137057142Y-78393904D02*
X136942856Y-78355809D01*
X136942856Y-78355809D02*
X136866666Y-78279619D01*
X136866666Y-78279619D02*
X136828571Y-78203428D01*
X136828571Y-78203428D02*
X136790475Y-78051047D01*
X136790475Y-78051047D02*
X136790475Y-77936761D01*
X136790475Y-77936761D02*
X136828571Y-77784380D01*
X136828571Y-77784380D02*
X136866666Y-77708190D01*
X136866666Y-77708190D02*
X136942856Y-77632000D01*
X136942856Y-77632000D02*
X137057142Y-77593904D01*
X137057142Y-77593904D02*
X137133333Y-77593904D01*
X137133333Y-77593904D02*
X137247618Y-77632000D01*
X137247618Y-77632000D02*
X137285714Y-77670095D01*
X137590475Y-77670095D02*
X137628571Y-77632000D01*
X137628571Y-77632000D02*
X137704761Y-77593904D01*
X137704761Y-77593904D02*
X137895237Y-77593904D01*
X137895237Y-77593904D02*
X137971428Y-77632000D01*
X137971428Y-77632000D02*
X138009523Y-77670095D01*
X138009523Y-77670095D02*
X138047618Y-77746285D01*
X138047618Y-77746285D02*
X138047618Y-77822476D01*
X138047618Y-77822476D02*
X138009523Y-77936761D01*
X138009523Y-77936761D02*
X137552380Y-78393904D01*
X137552380Y-78393904D02*
X138047618Y-78393904D01*
X138314285Y-77593904D02*
X138809523Y-77593904D01*
X138809523Y-77593904D02*
X138542857Y-77898666D01*
X138542857Y-77898666D02*
X138657142Y-77898666D01*
X138657142Y-77898666D02*
X138733333Y-77936761D01*
X138733333Y-77936761D02*
X138771428Y-77974857D01*
X138771428Y-77974857D02*
X138809523Y-78051047D01*
X138809523Y-78051047D02*
X138809523Y-78241523D01*
X138809523Y-78241523D02*
X138771428Y-78317714D01*
X138771428Y-78317714D02*
X138733333Y-78355809D01*
X138733333Y-78355809D02*
X138657142Y-78393904D01*
X138657142Y-78393904D02*
X138428571Y-78393904D01*
X138428571Y-78393904D02*
X138352380Y-78355809D01*
X138352380Y-78355809D02*
X138314285Y-78317714D01*
%TO.C,D1*%
X137409524Y-126863904D02*
X137409524Y-126063904D01*
X137409524Y-126063904D02*
X137600000Y-126063904D01*
X137600000Y-126063904D02*
X137714286Y-126102000D01*
X137714286Y-126102000D02*
X137790476Y-126178190D01*
X137790476Y-126178190D02*
X137828571Y-126254380D01*
X137828571Y-126254380D02*
X137866667Y-126406761D01*
X137866667Y-126406761D02*
X137866667Y-126521047D01*
X137866667Y-126521047D02*
X137828571Y-126673428D01*
X137828571Y-126673428D02*
X137790476Y-126749619D01*
X137790476Y-126749619D02*
X137714286Y-126825809D01*
X137714286Y-126825809D02*
X137600000Y-126863904D01*
X137600000Y-126863904D02*
X137409524Y-126863904D01*
X138628571Y-126863904D02*
X138171428Y-126863904D01*
X138400000Y-126863904D02*
X138400000Y-126063904D01*
X138400000Y-126063904D02*
X138323809Y-126178190D01*
X138323809Y-126178190D02*
X138247619Y-126254380D01*
X138247619Y-126254380D02*
X138171428Y-126292476D01*
%TO.C,R3*%
X136866667Y-93463904D02*
X136600000Y-93082952D01*
X136409524Y-93463904D02*
X136409524Y-92663904D01*
X136409524Y-92663904D02*
X136714286Y-92663904D01*
X136714286Y-92663904D02*
X136790476Y-92702000D01*
X136790476Y-92702000D02*
X136828571Y-92740095D01*
X136828571Y-92740095D02*
X136866667Y-92816285D01*
X136866667Y-92816285D02*
X136866667Y-92930571D01*
X136866667Y-92930571D02*
X136828571Y-93006761D01*
X136828571Y-93006761D02*
X136790476Y-93044857D01*
X136790476Y-93044857D02*
X136714286Y-93082952D01*
X136714286Y-93082952D02*
X136409524Y-93082952D01*
X137133333Y-92663904D02*
X137628571Y-92663904D01*
X137628571Y-92663904D02*
X137361905Y-92968666D01*
X137361905Y-92968666D02*
X137476190Y-92968666D01*
X137476190Y-92968666D02*
X137552381Y-93006761D01*
X137552381Y-93006761D02*
X137590476Y-93044857D01*
X137590476Y-93044857D02*
X137628571Y-93121047D01*
X137628571Y-93121047D02*
X137628571Y-93311523D01*
X137628571Y-93311523D02*
X137590476Y-93387714D01*
X137590476Y-93387714D02*
X137552381Y-93425809D01*
X137552381Y-93425809D02*
X137476190Y-93463904D01*
X137476190Y-93463904D02*
X137247619Y-93463904D01*
X137247619Y-93463904D02*
X137171428Y-93425809D01*
X137171428Y-93425809D02*
X137133333Y-93387714D01*
%TO.C,C10*%
X143085714Y-119317714D02*
X143047618Y-119355809D01*
X143047618Y-119355809D02*
X142933333Y-119393904D01*
X142933333Y-119393904D02*
X142857142Y-119393904D01*
X142857142Y-119393904D02*
X142742856Y-119355809D01*
X142742856Y-119355809D02*
X142666666Y-119279619D01*
X142666666Y-119279619D02*
X142628571Y-119203428D01*
X142628571Y-119203428D02*
X142590475Y-119051047D01*
X142590475Y-119051047D02*
X142590475Y-118936761D01*
X142590475Y-118936761D02*
X142628571Y-118784380D01*
X142628571Y-118784380D02*
X142666666Y-118708190D01*
X142666666Y-118708190D02*
X142742856Y-118632000D01*
X142742856Y-118632000D02*
X142857142Y-118593904D01*
X142857142Y-118593904D02*
X142933333Y-118593904D01*
X142933333Y-118593904D02*
X143047618Y-118632000D01*
X143047618Y-118632000D02*
X143085714Y-118670095D01*
X143847618Y-119393904D02*
X143390475Y-119393904D01*
X143619047Y-119393904D02*
X143619047Y-118593904D01*
X143619047Y-118593904D02*
X143542856Y-118708190D01*
X143542856Y-118708190D02*
X143466666Y-118784380D01*
X143466666Y-118784380D02*
X143390475Y-118822476D01*
X144342857Y-118593904D02*
X144419047Y-118593904D01*
X144419047Y-118593904D02*
X144495238Y-118632000D01*
X144495238Y-118632000D02*
X144533333Y-118670095D01*
X144533333Y-118670095D02*
X144571428Y-118746285D01*
X144571428Y-118746285D02*
X144609523Y-118898666D01*
X144609523Y-118898666D02*
X144609523Y-119089142D01*
X144609523Y-119089142D02*
X144571428Y-119241523D01*
X144571428Y-119241523D02*
X144533333Y-119317714D01*
X144533333Y-119317714D02*
X144495238Y-119355809D01*
X144495238Y-119355809D02*
X144419047Y-119393904D01*
X144419047Y-119393904D02*
X144342857Y-119393904D01*
X144342857Y-119393904D02*
X144266666Y-119355809D01*
X144266666Y-119355809D02*
X144228571Y-119317714D01*
X144228571Y-119317714D02*
X144190476Y-119241523D01*
X144190476Y-119241523D02*
X144152380Y-119089142D01*
X144152380Y-119089142D02*
X144152380Y-118898666D01*
X144152380Y-118898666D02*
X144190476Y-118746285D01*
X144190476Y-118746285D02*
X144228571Y-118670095D01*
X144228571Y-118670095D02*
X144266666Y-118632000D01*
X144266666Y-118632000D02*
X144342857Y-118593904D01*
%TO.C,U15*%
X155257403Y-82209504D02*
X155200959Y-82854659D01*
X155200959Y-82854659D02*
X155232269Y-82933880D01*
X155232269Y-82933880D02*
X155266899Y-82975150D01*
X155266899Y-82975150D02*
X155339479Y-83019741D01*
X155339479Y-83019741D02*
X155491280Y-83033022D01*
X155491280Y-83033022D02*
X155570501Y-83001712D01*
X155570501Y-83001712D02*
X155611772Y-82967082D01*
X155611772Y-82967082D02*
X155656362Y-82894502D01*
X155656362Y-82894502D02*
X155712806Y-82249347D01*
X156440037Y-83116027D02*
X155984634Y-83076185D01*
X156212335Y-83096106D02*
X156282060Y-82299150D01*
X156282060Y-82299150D02*
X156196199Y-82406361D01*
X156196199Y-82406361D02*
X156113658Y-82475621D01*
X156113658Y-82475621D02*
X156034437Y-82506931D01*
X157230817Y-82382156D02*
X156851314Y-82348954D01*
X156851314Y-82348954D02*
X156780162Y-82725136D01*
X156780162Y-82725136D02*
X156821432Y-82690506D01*
X156821432Y-82690506D02*
X156900653Y-82659196D01*
X156900653Y-82659196D02*
X157090405Y-82675797D01*
X157090405Y-82675797D02*
X157162985Y-82720388D01*
X157162985Y-82720388D02*
X157197615Y-82761659D01*
X157197615Y-82761659D02*
X157228925Y-82840879D01*
X157228925Y-82840879D02*
X157212324Y-83030631D01*
X157212324Y-83030631D02*
X157167733Y-83103211D01*
X157167733Y-83103211D02*
X157126462Y-83137841D01*
X157126462Y-83137841D02*
X157047242Y-83169151D01*
X157047242Y-83169151D02*
X156857490Y-83152550D01*
X156857490Y-83152550D02*
X156784910Y-83107959D01*
X156784910Y-83107959D02*
X156750280Y-83066689D01*
%TO.C,D3*%
X153709524Y-112093904D02*
X153709524Y-111293904D01*
X153709524Y-111293904D02*
X153900000Y-111293904D01*
X153900000Y-111293904D02*
X154014286Y-111332000D01*
X154014286Y-111332000D02*
X154090476Y-111408190D01*
X154090476Y-111408190D02*
X154128571Y-111484380D01*
X154128571Y-111484380D02*
X154166667Y-111636761D01*
X154166667Y-111636761D02*
X154166667Y-111751047D01*
X154166667Y-111751047D02*
X154128571Y-111903428D01*
X154128571Y-111903428D02*
X154090476Y-111979619D01*
X154090476Y-111979619D02*
X154014286Y-112055809D01*
X154014286Y-112055809D02*
X153900000Y-112093904D01*
X153900000Y-112093904D02*
X153709524Y-112093904D01*
X154433333Y-111293904D02*
X154928571Y-111293904D01*
X154928571Y-111293904D02*
X154661905Y-111598666D01*
X154661905Y-111598666D02*
X154776190Y-111598666D01*
X154776190Y-111598666D02*
X154852381Y-111636761D01*
X154852381Y-111636761D02*
X154890476Y-111674857D01*
X154890476Y-111674857D02*
X154928571Y-111751047D01*
X154928571Y-111751047D02*
X154928571Y-111941523D01*
X154928571Y-111941523D02*
X154890476Y-112017714D01*
X154890476Y-112017714D02*
X154852381Y-112055809D01*
X154852381Y-112055809D02*
X154776190Y-112093904D01*
X154776190Y-112093904D02*
X154547619Y-112093904D01*
X154547619Y-112093904D02*
X154471428Y-112055809D01*
X154471428Y-112055809D02*
X154433333Y-112017714D01*
%TO.C,R1*%
X134866667Y-127093904D02*
X134600000Y-126712952D01*
X134409524Y-127093904D02*
X134409524Y-126293904D01*
X134409524Y-126293904D02*
X134714286Y-126293904D01*
X134714286Y-126293904D02*
X134790476Y-126332000D01*
X134790476Y-126332000D02*
X134828571Y-126370095D01*
X134828571Y-126370095D02*
X134866667Y-126446285D01*
X134866667Y-126446285D02*
X134866667Y-126560571D01*
X134866667Y-126560571D02*
X134828571Y-126636761D01*
X134828571Y-126636761D02*
X134790476Y-126674857D01*
X134790476Y-126674857D02*
X134714286Y-126712952D01*
X134714286Y-126712952D02*
X134409524Y-126712952D01*
X135628571Y-127093904D02*
X135171428Y-127093904D01*
X135400000Y-127093904D02*
X135400000Y-126293904D01*
X135400000Y-126293904D02*
X135323809Y-126408190D01*
X135323809Y-126408190D02*
X135247619Y-126484380D01*
X135247619Y-126484380D02*
X135171428Y-126522476D01*
%TO.C,R16*%
X137485714Y-85463904D02*
X137219047Y-85082952D01*
X137028571Y-85463904D02*
X137028571Y-84663904D01*
X137028571Y-84663904D02*
X137333333Y-84663904D01*
X137333333Y-84663904D02*
X137409523Y-84702000D01*
X137409523Y-84702000D02*
X137447618Y-84740095D01*
X137447618Y-84740095D02*
X137485714Y-84816285D01*
X137485714Y-84816285D02*
X137485714Y-84930571D01*
X137485714Y-84930571D02*
X137447618Y-85006761D01*
X137447618Y-85006761D02*
X137409523Y-85044857D01*
X137409523Y-85044857D02*
X137333333Y-85082952D01*
X137333333Y-85082952D02*
X137028571Y-85082952D01*
X138247618Y-85463904D02*
X137790475Y-85463904D01*
X138019047Y-85463904D02*
X138019047Y-84663904D01*
X138019047Y-84663904D02*
X137942856Y-84778190D01*
X137942856Y-84778190D02*
X137866666Y-84854380D01*
X137866666Y-84854380D02*
X137790475Y-84892476D01*
X138933333Y-84663904D02*
X138780952Y-84663904D01*
X138780952Y-84663904D02*
X138704761Y-84702000D01*
X138704761Y-84702000D02*
X138666666Y-84740095D01*
X138666666Y-84740095D02*
X138590476Y-84854380D01*
X138590476Y-84854380D02*
X138552380Y-85006761D01*
X138552380Y-85006761D02*
X138552380Y-85311523D01*
X138552380Y-85311523D02*
X138590476Y-85387714D01*
X138590476Y-85387714D02*
X138628571Y-85425809D01*
X138628571Y-85425809D02*
X138704761Y-85463904D01*
X138704761Y-85463904D02*
X138857142Y-85463904D01*
X138857142Y-85463904D02*
X138933333Y-85425809D01*
X138933333Y-85425809D02*
X138971428Y-85387714D01*
X138971428Y-85387714D02*
X139009523Y-85311523D01*
X139009523Y-85311523D02*
X139009523Y-85121047D01*
X139009523Y-85121047D02*
X138971428Y-85044857D01*
X138971428Y-85044857D02*
X138933333Y-85006761D01*
X138933333Y-85006761D02*
X138857142Y-84968666D01*
X138857142Y-84968666D02*
X138704761Y-84968666D01*
X138704761Y-84968666D02*
X138628571Y-85006761D01*
X138628571Y-85006761D02*
X138590476Y-85044857D01*
X138590476Y-85044857D02*
X138552380Y-85121047D01*
%TO.C,C4*%
X129417714Y-112833332D02*
X129455809Y-112871428D01*
X129455809Y-112871428D02*
X129493904Y-112985713D01*
X129493904Y-112985713D02*
X129493904Y-113061904D01*
X129493904Y-113061904D02*
X129455809Y-113176190D01*
X129455809Y-113176190D02*
X129379619Y-113252380D01*
X129379619Y-113252380D02*
X129303428Y-113290475D01*
X129303428Y-113290475D02*
X129151047Y-113328571D01*
X129151047Y-113328571D02*
X129036761Y-113328571D01*
X129036761Y-113328571D02*
X128884380Y-113290475D01*
X128884380Y-113290475D02*
X128808190Y-113252380D01*
X128808190Y-113252380D02*
X128732000Y-113176190D01*
X128732000Y-113176190D02*
X128693904Y-113061904D01*
X128693904Y-113061904D02*
X128693904Y-112985713D01*
X128693904Y-112985713D02*
X128732000Y-112871428D01*
X128732000Y-112871428D02*
X128770095Y-112833332D01*
X128960571Y-112147618D02*
X129493904Y-112147618D01*
X128655809Y-112338094D02*
X129227238Y-112528571D01*
X129227238Y-112528571D02*
X129227238Y-112033332D01*
%TO.C,U10*%
X139009524Y-92793904D02*
X139009524Y-93441523D01*
X139009524Y-93441523D02*
X139047619Y-93517714D01*
X139047619Y-93517714D02*
X139085714Y-93555809D01*
X139085714Y-93555809D02*
X139161905Y-93593904D01*
X139161905Y-93593904D02*
X139314286Y-93593904D01*
X139314286Y-93593904D02*
X139390476Y-93555809D01*
X139390476Y-93555809D02*
X139428571Y-93517714D01*
X139428571Y-93517714D02*
X139466667Y-93441523D01*
X139466667Y-93441523D02*
X139466667Y-92793904D01*
X140266666Y-93593904D02*
X139809523Y-93593904D01*
X140038095Y-93593904D02*
X140038095Y-92793904D01*
X140038095Y-92793904D02*
X139961904Y-92908190D01*
X139961904Y-92908190D02*
X139885714Y-92984380D01*
X139885714Y-92984380D02*
X139809523Y-93022476D01*
X140761905Y-92793904D02*
X140838095Y-92793904D01*
X140838095Y-92793904D02*
X140914286Y-92832000D01*
X140914286Y-92832000D02*
X140952381Y-92870095D01*
X140952381Y-92870095D02*
X140990476Y-92946285D01*
X140990476Y-92946285D02*
X141028571Y-93098666D01*
X141028571Y-93098666D02*
X141028571Y-93289142D01*
X141028571Y-93289142D02*
X140990476Y-93441523D01*
X140990476Y-93441523D02*
X140952381Y-93517714D01*
X140952381Y-93517714D02*
X140914286Y-93555809D01*
X140914286Y-93555809D02*
X140838095Y-93593904D01*
X140838095Y-93593904D02*
X140761905Y-93593904D01*
X140761905Y-93593904D02*
X140685714Y-93555809D01*
X140685714Y-93555809D02*
X140647619Y-93517714D01*
X140647619Y-93517714D02*
X140609524Y-93441523D01*
X140609524Y-93441523D02*
X140571428Y-93289142D01*
X140571428Y-93289142D02*
X140571428Y-93098666D01*
X140571428Y-93098666D02*
X140609524Y-92946285D01*
X140609524Y-92946285D02*
X140647619Y-92870095D01*
X140647619Y-92870095D02*
X140685714Y-92832000D01*
X140685714Y-92832000D02*
X140761905Y-92793904D01*
%TO.C,Q4*%
X135723809Y-84370095D02*
X135647619Y-84332000D01*
X135647619Y-84332000D02*
X135571428Y-84255809D01*
X135571428Y-84255809D02*
X135457142Y-84141523D01*
X135457142Y-84141523D02*
X135380952Y-84103428D01*
X135380952Y-84103428D02*
X135304761Y-84103428D01*
X135342857Y-84293904D02*
X135266666Y-84255809D01*
X135266666Y-84255809D02*
X135190476Y-84179619D01*
X135190476Y-84179619D02*
X135152380Y-84027238D01*
X135152380Y-84027238D02*
X135152380Y-83760571D01*
X135152380Y-83760571D02*
X135190476Y-83608190D01*
X135190476Y-83608190D02*
X135266666Y-83532000D01*
X135266666Y-83532000D02*
X135342857Y-83493904D01*
X135342857Y-83493904D02*
X135495238Y-83493904D01*
X135495238Y-83493904D02*
X135571428Y-83532000D01*
X135571428Y-83532000D02*
X135647619Y-83608190D01*
X135647619Y-83608190D02*
X135685714Y-83760571D01*
X135685714Y-83760571D02*
X135685714Y-84027238D01*
X135685714Y-84027238D02*
X135647619Y-84179619D01*
X135647619Y-84179619D02*
X135571428Y-84255809D01*
X135571428Y-84255809D02*
X135495238Y-84293904D01*
X135495238Y-84293904D02*
X135342857Y-84293904D01*
X136371428Y-83760571D02*
X136371428Y-84293904D01*
X136180952Y-83455809D02*
X135990475Y-84027238D01*
X135990475Y-84027238D02*
X136485714Y-84027238D01*
%TO.C,R27*%
X131885714Y-77393904D02*
X131619047Y-77012952D01*
X131428571Y-77393904D02*
X131428571Y-76593904D01*
X131428571Y-76593904D02*
X131733333Y-76593904D01*
X131733333Y-76593904D02*
X131809523Y-76632000D01*
X131809523Y-76632000D02*
X131847618Y-76670095D01*
X131847618Y-76670095D02*
X131885714Y-76746285D01*
X131885714Y-76746285D02*
X131885714Y-76860571D01*
X131885714Y-76860571D02*
X131847618Y-76936761D01*
X131847618Y-76936761D02*
X131809523Y-76974857D01*
X131809523Y-76974857D02*
X131733333Y-77012952D01*
X131733333Y-77012952D02*
X131428571Y-77012952D01*
X132190475Y-76670095D02*
X132228571Y-76632000D01*
X132228571Y-76632000D02*
X132304761Y-76593904D01*
X132304761Y-76593904D02*
X132495237Y-76593904D01*
X132495237Y-76593904D02*
X132571428Y-76632000D01*
X132571428Y-76632000D02*
X132609523Y-76670095D01*
X132609523Y-76670095D02*
X132647618Y-76746285D01*
X132647618Y-76746285D02*
X132647618Y-76822476D01*
X132647618Y-76822476D02*
X132609523Y-76936761D01*
X132609523Y-76936761D02*
X132152380Y-77393904D01*
X132152380Y-77393904D02*
X132647618Y-77393904D01*
X132914285Y-76593904D02*
X133447619Y-76593904D01*
X133447619Y-76593904D02*
X133104761Y-77393904D01*
%TO.C,U12*%
X122769183Y-82382156D02*
X122825626Y-83027310D01*
X122825626Y-83027310D02*
X122870217Y-83099891D01*
X122870217Y-83099891D02*
X122911488Y-83134521D01*
X122911488Y-83134521D02*
X122990708Y-83165831D01*
X122990708Y-83165831D02*
X123142509Y-83152550D01*
X123142509Y-83152550D02*
X123215090Y-83107959D01*
X123215090Y-83107959D02*
X123249720Y-83066689D01*
X123249720Y-83066689D02*
X123281030Y-82987468D01*
X123281030Y-82987468D02*
X123224586Y-82342313D01*
X124091266Y-83069544D02*
X123635863Y-83109387D01*
X123863564Y-83089466D02*
X123793840Y-82292510D01*
X123793840Y-82292510D02*
X123727900Y-82413001D01*
X123727900Y-82413001D02*
X123658640Y-82495542D01*
X123658640Y-82495542D02*
X123586059Y-82540133D01*
X124331784Y-82321927D02*
X124366414Y-82280657D01*
X124366414Y-82280657D02*
X124438995Y-82236066D01*
X124438995Y-82236066D02*
X124628746Y-82219465D01*
X124628746Y-82219465D02*
X124707967Y-82250775D01*
X124707967Y-82250775D02*
X124749237Y-82285405D01*
X124749237Y-82285405D02*
X124793828Y-82357985D01*
X124793828Y-82357985D02*
X124800468Y-82433886D01*
X124800468Y-82433886D02*
X124772479Y-82551057D01*
X124772479Y-82551057D02*
X124356918Y-83046303D01*
X124356918Y-83046303D02*
X124850272Y-83003140D01*
%TO.C,C5*%
X142366667Y-122717714D02*
X142328571Y-122755809D01*
X142328571Y-122755809D02*
X142214286Y-122793904D01*
X142214286Y-122793904D02*
X142138095Y-122793904D01*
X142138095Y-122793904D02*
X142023809Y-122755809D01*
X142023809Y-122755809D02*
X141947619Y-122679619D01*
X141947619Y-122679619D02*
X141909524Y-122603428D01*
X141909524Y-122603428D02*
X141871428Y-122451047D01*
X141871428Y-122451047D02*
X141871428Y-122336761D01*
X141871428Y-122336761D02*
X141909524Y-122184380D01*
X141909524Y-122184380D02*
X141947619Y-122108190D01*
X141947619Y-122108190D02*
X142023809Y-122032000D01*
X142023809Y-122032000D02*
X142138095Y-121993904D01*
X142138095Y-121993904D02*
X142214286Y-121993904D01*
X142214286Y-121993904D02*
X142328571Y-122032000D01*
X142328571Y-122032000D02*
X142366667Y-122070095D01*
X143090476Y-121993904D02*
X142709524Y-121993904D01*
X142709524Y-121993904D02*
X142671428Y-122374857D01*
X142671428Y-122374857D02*
X142709524Y-122336761D01*
X142709524Y-122336761D02*
X142785714Y-122298666D01*
X142785714Y-122298666D02*
X142976190Y-122298666D01*
X142976190Y-122298666D02*
X143052381Y-122336761D01*
X143052381Y-122336761D02*
X143090476Y-122374857D01*
X143090476Y-122374857D02*
X143128571Y-122451047D01*
X143128571Y-122451047D02*
X143128571Y-122641523D01*
X143128571Y-122641523D02*
X143090476Y-122717714D01*
X143090476Y-122717714D02*
X143052381Y-122755809D01*
X143052381Y-122755809D02*
X142976190Y-122793904D01*
X142976190Y-122793904D02*
X142785714Y-122793904D01*
X142785714Y-122793904D02*
X142709524Y-122755809D01*
X142709524Y-122755809D02*
X142671428Y-122717714D01*
%TO.C,R17*%
X137685714Y-119093904D02*
X137419047Y-118712952D01*
X137228571Y-119093904D02*
X137228571Y-118293904D01*
X137228571Y-118293904D02*
X137533333Y-118293904D01*
X137533333Y-118293904D02*
X137609523Y-118332000D01*
X137609523Y-118332000D02*
X137647618Y-118370095D01*
X137647618Y-118370095D02*
X137685714Y-118446285D01*
X137685714Y-118446285D02*
X137685714Y-118560571D01*
X137685714Y-118560571D02*
X137647618Y-118636761D01*
X137647618Y-118636761D02*
X137609523Y-118674857D01*
X137609523Y-118674857D02*
X137533333Y-118712952D01*
X137533333Y-118712952D02*
X137228571Y-118712952D01*
X138447618Y-119093904D02*
X137990475Y-119093904D01*
X138219047Y-119093904D02*
X138219047Y-118293904D01*
X138219047Y-118293904D02*
X138142856Y-118408190D01*
X138142856Y-118408190D02*
X138066666Y-118484380D01*
X138066666Y-118484380D02*
X137990475Y-118522476D01*
X138714285Y-118293904D02*
X139247619Y-118293904D01*
X139247619Y-118293904D02*
X138904761Y-119093904D01*
%TO.C,U4*%
X128390476Y-83893904D02*
X128390476Y-84541523D01*
X128390476Y-84541523D02*
X128428571Y-84617714D01*
X128428571Y-84617714D02*
X128466666Y-84655809D01*
X128466666Y-84655809D02*
X128542857Y-84693904D01*
X128542857Y-84693904D02*
X128695238Y-84693904D01*
X128695238Y-84693904D02*
X128771428Y-84655809D01*
X128771428Y-84655809D02*
X128809523Y-84617714D01*
X128809523Y-84617714D02*
X128847619Y-84541523D01*
X128847619Y-84541523D02*
X128847619Y-83893904D01*
X129571428Y-84160571D02*
X129571428Y-84693904D01*
X129380952Y-83855809D02*
X129190475Y-84427238D01*
X129190475Y-84427238D02*
X129685714Y-84427238D01*
%TO.C,C6*%
X138041667Y-112417714D02*
X138003571Y-112455809D01*
X138003571Y-112455809D02*
X137889286Y-112493904D01*
X137889286Y-112493904D02*
X137813095Y-112493904D01*
X137813095Y-112493904D02*
X137698809Y-112455809D01*
X137698809Y-112455809D02*
X137622619Y-112379619D01*
X137622619Y-112379619D02*
X137584524Y-112303428D01*
X137584524Y-112303428D02*
X137546428Y-112151047D01*
X137546428Y-112151047D02*
X137546428Y-112036761D01*
X137546428Y-112036761D02*
X137584524Y-111884380D01*
X137584524Y-111884380D02*
X137622619Y-111808190D01*
X137622619Y-111808190D02*
X137698809Y-111732000D01*
X137698809Y-111732000D02*
X137813095Y-111693904D01*
X137813095Y-111693904D02*
X137889286Y-111693904D01*
X137889286Y-111693904D02*
X138003571Y-111732000D01*
X138003571Y-111732000D02*
X138041667Y-111770095D01*
X138727381Y-111693904D02*
X138575000Y-111693904D01*
X138575000Y-111693904D02*
X138498809Y-111732000D01*
X138498809Y-111732000D02*
X138460714Y-111770095D01*
X138460714Y-111770095D02*
X138384524Y-111884380D01*
X138384524Y-111884380D02*
X138346428Y-112036761D01*
X138346428Y-112036761D02*
X138346428Y-112341523D01*
X138346428Y-112341523D02*
X138384524Y-112417714D01*
X138384524Y-112417714D02*
X138422619Y-112455809D01*
X138422619Y-112455809D02*
X138498809Y-112493904D01*
X138498809Y-112493904D02*
X138651190Y-112493904D01*
X138651190Y-112493904D02*
X138727381Y-112455809D01*
X138727381Y-112455809D02*
X138765476Y-112417714D01*
X138765476Y-112417714D02*
X138803571Y-112341523D01*
X138803571Y-112341523D02*
X138803571Y-112151047D01*
X138803571Y-112151047D02*
X138765476Y-112074857D01*
X138765476Y-112074857D02*
X138727381Y-112036761D01*
X138727381Y-112036761D02*
X138651190Y-111998666D01*
X138651190Y-111998666D02*
X138498809Y-111998666D01*
X138498809Y-111998666D02*
X138422619Y-112036761D01*
X138422619Y-112036761D02*
X138384524Y-112074857D01*
X138384524Y-112074857D02*
X138346428Y-112151047D01*
%TO.C,J7*%
X146693904Y-100266666D02*
X147265333Y-100266666D01*
X147265333Y-100266666D02*
X147379619Y-100304761D01*
X147379619Y-100304761D02*
X147455809Y-100380952D01*
X147455809Y-100380952D02*
X147493904Y-100495237D01*
X147493904Y-100495237D02*
X147493904Y-100571428D01*
X146693904Y-99961904D02*
X146693904Y-99428570D01*
X146693904Y-99428570D02*
X147493904Y-99771428D01*
%TO.C,R7*%
X155993904Y-118133332D02*
X155612952Y-118399999D01*
X155993904Y-118590475D02*
X155193904Y-118590475D01*
X155193904Y-118590475D02*
X155193904Y-118285713D01*
X155193904Y-118285713D02*
X155232000Y-118209523D01*
X155232000Y-118209523D02*
X155270095Y-118171428D01*
X155270095Y-118171428D02*
X155346285Y-118133332D01*
X155346285Y-118133332D02*
X155460571Y-118133332D01*
X155460571Y-118133332D02*
X155536761Y-118171428D01*
X155536761Y-118171428D02*
X155574857Y-118209523D01*
X155574857Y-118209523D02*
X155612952Y-118285713D01*
X155612952Y-118285713D02*
X155612952Y-118590475D01*
X155193904Y-117866666D02*
X155193904Y-117333332D01*
X155193904Y-117333332D02*
X155993904Y-117676190D01*
%TO.C,R22*%
X141485714Y-85463904D02*
X141219047Y-85082952D01*
X141028571Y-85463904D02*
X141028571Y-84663904D01*
X141028571Y-84663904D02*
X141333333Y-84663904D01*
X141333333Y-84663904D02*
X141409523Y-84702000D01*
X141409523Y-84702000D02*
X141447618Y-84740095D01*
X141447618Y-84740095D02*
X141485714Y-84816285D01*
X141485714Y-84816285D02*
X141485714Y-84930571D01*
X141485714Y-84930571D02*
X141447618Y-85006761D01*
X141447618Y-85006761D02*
X141409523Y-85044857D01*
X141409523Y-85044857D02*
X141333333Y-85082952D01*
X141333333Y-85082952D02*
X141028571Y-85082952D01*
X141790475Y-84740095D02*
X141828571Y-84702000D01*
X141828571Y-84702000D02*
X141904761Y-84663904D01*
X141904761Y-84663904D02*
X142095237Y-84663904D01*
X142095237Y-84663904D02*
X142171428Y-84702000D01*
X142171428Y-84702000D02*
X142209523Y-84740095D01*
X142209523Y-84740095D02*
X142247618Y-84816285D01*
X142247618Y-84816285D02*
X142247618Y-84892476D01*
X142247618Y-84892476D02*
X142209523Y-85006761D01*
X142209523Y-85006761D02*
X141752380Y-85463904D01*
X141752380Y-85463904D02*
X142247618Y-85463904D01*
X142552380Y-84740095D02*
X142590476Y-84702000D01*
X142590476Y-84702000D02*
X142666666Y-84663904D01*
X142666666Y-84663904D02*
X142857142Y-84663904D01*
X142857142Y-84663904D02*
X142933333Y-84702000D01*
X142933333Y-84702000D02*
X142971428Y-84740095D01*
X142971428Y-84740095D02*
X143009523Y-84816285D01*
X143009523Y-84816285D02*
X143009523Y-84892476D01*
X143009523Y-84892476D02*
X142971428Y-85006761D01*
X142971428Y-85006761D02*
X142514285Y-85463904D01*
X142514285Y-85463904D02*
X143009523Y-85463904D01*
%TO.C,R29*%
X154293904Y-79914285D02*
X153912952Y-80180952D01*
X154293904Y-80371428D02*
X153493904Y-80371428D01*
X153493904Y-80371428D02*
X153493904Y-80066666D01*
X153493904Y-80066666D02*
X153532000Y-79990476D01*
X153532000Y-79990476D02*
X153570095Y-79952381D01*
X153570095Y-79952381D02*
X153646285Y-79914285D01*
X153646285Y-79914285D02*
X153760571Y-79914285D01*
X153760571Y-79914285D02*
X153836761Y-79952381D01*
X153836761Y-79952381D02*
X153874857Y-79990476D01*
X153874857Y-79990476D02*
X153912952Y-80066666D01*
X153912952Y-80066666D02*
X153912952Y-80371428D01*
X153570095Y-79609524D02*
X153532000Y-79571428D01*
X153532000Y-79571428D02*
X153493904Y-79495238D01*
X153493904Y-79495238D02*
X153493904Y-79304762D01*
X153493904Y-79304762D02*
X153532000Y-79228571D01*
X153532000Y-79228571D02*
X153570095Y-79190476D01*
X153570095Y-79190476D02*
X153646285Y-79152381D01*
X153646285Y-79152381D02*
X153722476Y-79152381D01*
X153722476Y-79152381D02*
X153836761Y-79190476D01*
X153836761Y-79190476D02*
X154293904Y-79647619D01*
X154293904Y-79647619D02*
X154293904Y-79152381D01*
X154293904Y-78771428D02*
X154293904Y-78619047D01*
X154293904Y-78619047D02*
X154255809Y-78542857D01*
X154255809Y-78542857D02*
X154217714Y-78504761D01*
X154217714Y-78504761D02*
X154103428Y-78428571D01*
X154103428Y-78428571D02*
X153951047Y-78390476D01*
X153951047Y-78390476D02*
X153646285Y-78390476D01*
X153646285Y-78390476D02*
X153570095Y-78428571D01*
X153570095Y-78428571D02*
X153532000Y-78466666D01*
X153532000Y-78466666D02*
X153493904Y-78542857D01*
X153493904Y-78542857D02*
X153493904Y-78695238D01*
X153493904Y-78695238D02*
X153532000Y-78771428D01*
X153532000Y-78771428D02*
X153570095Y-78809523D01*
X153570095Y-78809523D02*
X153646285Y-78847619D01*
X153646285Y-78847619D02*
X153836761Y-78847619D01*
X153836761Y-78847619D02*
X153912952Y-78809523D01*
X153912952Y-78809523D02*
X153951047Y-78771428D01*
X153951047Y-78771428D02*
X153989142Y-78695238D01*
X153989142Y-78695238D02*
X153989142Y-78542857D01*
X153989142Y-78542857D02*
X153951047Y-78466666D01*
X153951047Y-78466666D02*
X153912952Y-78428571D01*
X153912952Y-78428571D02*
X153836761Y-78390476D01*
%TO.C,D4*%
X149090292Y-123125351D02*
X148524607Y-122559666D01*
X148524607Y-122559666D02*
X148659294Y-122424979D01*
X148659294Y-122424979D02*
X148767043Y-122371104D01*
X148767043Y-122371104D02*
X148874793Y-122371104D01*
X148874793Y-122371104D02*
X148955605Y-122398041D01*
X148955605Y-122398041D02*
X149090292Y-122478853D01*
X149090292Y-122478853D02*
X149171104Y-122559666D01*
X149171104Y-122559666D02*
X149251917Y-122694353D01*
X149251917Y-122694353D02*
X149278854Y-122775165D01*
X149278854Y-122775165D02*
X149278854Y-122882914D01*
X149278854Y-122882914D02*
X149224979Y-122990664D01*
X149224979Y-122990664D02*
X149090292Y-123125351D01*
X149521291Y-121940105D02*
X149898414Y-122317229D01*
X149171104Y-121859293D02*
X149440478Y-122398041D01*
X149440478Y-122398041D02*
X149790665Y-122047855D01*
%TO.C,C15*%
X142485714Y-97817714D02*
X142447618Y-97855809D01*
X142447618Y-97855809D02*
X142333333Y-97893904D01*
X142333333Y-97893904D02*
X142257142Y-97893904D01*
X142257142Y-97893904D02*
X142142856Y-97855809D01*
X142142856Y-97855809D02*
X142066666Y-97779619D01*
X142066666Y-97779619D02*
X142028571Y-97703428D01*
X142028571Y-97703428D02*
X141990475Y-97551047D01*
X141990475Y-97551047D02*
X141990475Y-97436761D01*
X141990475Y-97436761D02*
X142028571Y-97284380D01*
X142028571Y-97284380D02*
X142066666Y-97208190D01*
X142066666Y-97208190D02*
X142142856Y-97132000D01*
X142142856Y-97132000D02*
X142257142Y-97093904D01*
X142257142Y-97093904D02*
X142333333Y-97093904D01*
X142333333Y-97093904D02*
X142447618Y-97132000D01*
X142447618Y-97132000D02*
X142485714Y-97170095D01*
X143247618Y-97893904D02*
X142790475Y-97893904D01*
X143019047Y-97893904D02*
X143019047Y-97093904D01*
X143019047Y-97093904D02*
X142942856Y-97208190D01*
X142942856Y-97208190D02*
X142866666Y-97284380D01*
X142866666Y-97284380D02*
X142790475Y-97322476D01*
X143971428Y-97093904D02*
X143590476Y-97093904D01*
X143590476Y-97093904D02*
X143552380Y-97474857D01*
X143552380Y-97474857D02*
X143590476Y-97436761D01*
X143590476Y-97436761D02*
X143666666Y-97398666D01*
X143666666Y-97398666D02*
X143857142Y-97398666D01*
X143857142Y-97398666D02*
X143933333Y-97436761D01*
X143933333Y-97436761D02*
X143971428Y-97474857D01*
X143971428Y-97474857D02*
X144009523Y-97551047D01*
X144009523Y-97551047D02*
X144009523Y-97741523D01*
X144009523Y-97741523D02*
X143971428Y-97817714D01*
X143971428Y-97817714D02*
X143933333Y-97855809D01*
X143933333Y-97855809D02*
X143857142Y-97893904D01*
X143857142Y-97893904D02*
X143666666Y-97893904D01*
X143666666Y-97893904D02*
X143590476Y-97855809D01*
X143590476Y-97855809D02*
X143552380Y-97817714D01*
%TO.C,C24*%
X150485714Y-78317714D02*
X150447618Y-78355809D01*
X150447618Y-78355809D02*
X150333333Y-78393904D01*
X150333333Y-78393904D02*
X150257142Y-78393904D01*
X150257142Y-78393904D02*
X150142856Y-78355809D01*
X150142856Y-78355809D02*
X150066666Y-78279619D01*
X150066666Y-78279619D02*
X150028571Y-78203428D01*
X150028571Y-78203428D02*
X149990475Y-78051047D01*
X149990475Y-78051047D02*
X149990475Y-77936761D01*
X149990475Y-77936761D02*
X150028571Y-77784380D01*
X150028571Y-77784380D02*
X150066666Y-77708190D01*
X150066666Y-77708190D02*
X150142856Y-77632000D01*
X150142856Y-77632000D02*
X150257142Y-77593904D01*
X150257142Y-77593904D02*
X150333333Y-77593904D01*
X150333333Y-77593904D02*
X150447618Y-77632000D01*
X150447618Y-77632000D02*
X150485714Y-77670095D01*
X150790475Y-77670095D02*
X150828571Y-77632000D01*
X150828571Y-77632000D02*
X150904761Y-77593904D01*
X150904761Y-77593904D02*
X151095237Y-77593904D01*
X151095237Y-77593904D02*
X151171428Y-77632000D01*
X151171428Y-77632000D02*
X151209523Y-77670095D01*
X151209523Y-77670095D02*
X151247618Y-77746285D01*
X151247618Y-77746285D02*
X151247618Y-77822476D01*
X151247618Y-77822476D02*
X151209523Y-77936761D01*
X151209523Y-77936761D02*
X150752380Y-78393904D01*
X150752380Y-78393904D02*
X151247618Y-78393904D01*
X151933333Y-77860571D02*
X151933333Y-78393904D01*
X151742857Y-77555809D02*
X151552380Y-78127238D01*
X151552380Y-78127238D02*
X152047619Y-78127238D01*
%TO.C,U14*%
X144489175Y-70056946D02*
X144812984Y-70617801D01*
X144812984Y-70617801D02*
X144884071Y-70664736D01*
X144884071Y-70664736D02*
X144936110Y-70678680D01*
X144936110Y-70678680D02*
X145021140Y-70673576D01*
X145021140Y-70673576D02*
X145153106Y-70597385D01*
X145153106Y-70597385D02*
X145200041Y-70526299D01*
X145200041Y-70526299D02*
X145213985Y-70474260D01*
X145213985Y-70474260D02*
X145208882Y-70389229D01*
X145208882Y-70389229D02*
X144885072Y-69828375D01*
X145977892Y-70121195D02*
X145581995Y-70349767D01*
X145779943Y-70235481D02*
X145379943Y-69542660D01*
X145379943Y-69542660D02*
X145371103Y-69679730D01*
X145371103Y-69679730D02*
X145343216Y-69783808D01*
X145343216Y-69783808D02*
X145296280Y-69854895D01*
X146305072Y-69316458D02*
X146571738Y-69778338D01*
X145987733Y-69147764D02*
X146108491Y-69737874D01*
X146108491Y-69737874D02*
X146537379Y-69490255D01*
%TO.C,J3*%
X152133333Y-113393904D02*
X152133333Y-113965333D01*
X152133333Y-113965333D02*
X152095238Y-114079619D01*
X152095238Y-114079619D02*
X152019047Y-114155809D01*
X152019047Y-114155809D02*
X151904762Y-114193904D01*
X151904762Y-114193904D02*
X151828571Y-114193904D01*
X152438095Y-113393904D02*
X152933333Y-113393904D01*
X152933333Y-113393904D02*
X152666667Y-113698666D01*
X152666667Y-113698666D02*
X152780952Y-113698666D01*
X152780952Y-113698666D02*
X152857143Y-113736761D01*
X152857143Y-113736761D02*
X152895238Y-113774857D01*
X152895238Y-113774857D02*
X152933333Y-113851047D01*
X152933333Y-113851047D02*
X152933333Y-114041523D01*
X152933333Y-114041523D02*
X152895238Y-114117714D01*
X152895238Y-114117714D02*
X152857143Y-114155809D01*
X152857143Y-114155809D02*
X152780952Y-114193904D01*
X152780952Y-114193904D02*
X152552381Y-114193904D01*
X152552381Y-114193904D02*
X152476190Y-114155809D01*
X152476190Y-114155809D02*
X152438095Y-114117714D01*
%TO.C,LS1*%
X155585714Y-115093904D02*
X155204762Y-115093904D01*
X155204762Y-115093904D02*
X155204762Y-114293904D01*
X155814285Y-115055809D02*
X155928571Y-115093904D01*
X155928571Y-115093904D02*
X156119047Y-115093904D01*
X156119047Y-115093904D02*
X156195238Y-115055809D01*
X156195238Y-115055809D02*
X156233333Y-115017714D01*
X156233333Y-115017714D02*
X156271428Y-114941523D01*
X156271428Y-114941523D02*
X156271428Y-114865333D01*
X156271428Y-114865333D02*
X156233333Y-114789142D01*
X156233333Y-114789142D02*
X156195238Y-114751047D01*
X156195238Y-114751047D02*
X156119047Y-114712952D01*
X156119047Y-114712952D02*
X155966666Y-114674857D01*
X155966666Y-114674857D02*
X155890476Y-114636761D01*
X155890476Y-114636761D02*
X155852381Y-114598666D01*
X155852381Y-114598666D02*
X155814285Y-114522476D01*
X155814285Y-114522476D02*
X155814285Y-114446285D01*
X155814285Y-114446285D02*
X155852381Y-114370095D01*
X155852381Y-114370095D02*
X155890476Y-114332000D01*
X155890476Y-114332000D02*
X155966666Y-114293904D01*
X155966666Y-114293904D02*
X156157143Y-114293904D01*
X156157143Y-114293904D02*
X156271428Y-114332000D01*
X157033333Y-115093904D02*
X156576190Y-115093904D01*
X156804762Y-115093904D02*
X156804762Y-114293904D01*
X156804762Y-114293904D02*
X156728571Y-114408190D01*
X156728571Y-114408190D02*
X156652381Y-114484380D01*
X156652381Y-114484380D02*
X156576190Y-114522476D01*
D12*
%TO.C,U17*%
X132040000Y-93000000D02*
X132040000Y-94800000D01*
X132040000Y-93000000D02*
X132040000Y-92200000D01*
X135160000Y-93000000D02*
X135160000Y-93800000D01*
X135160000Y-93000000D02*
X135160000Y-92200000D01*
%TO.C,R10*%
X125620000Y-81653641D02*
X125620000Y-81346359D01*
X126380000Y-81653641D02*
X126380000Y-81346359D01*
%TO.C,C18*%
X137859420Y-69990000D02*
X138140580Y-69990000D01*
X137859420Y-71010000D02*
X138140580Y-71010000D01*
%TO.C,U1*%
X131240000Y-112600000D02*
X131240000Y-114400000D01*
X131240000Y-112600000D02*
X131240000Y-111800000D01*
X134360000Y-112600000D02*
X134360000Y-113400000D01*
X134360000Y-112600000D02*
X134360000Y-111800000D01*
%TO.C,Q5*%
X152000000Y-92440000D02*
X150325000Y-92440000D01*
X152000000Y-92440000D02*
X152650000Y-92440000D01*
X152000000Y-95560000D02*
X151350000Y-95560000D01*
X152000000Y-95560000D02*
X152650000Y-95560000D01*
%TO.C,C21*%
X129107836Y-79960000D02*
X128892164Y-79960000D01*
X129107836Y-79240000D02*
X128892164Y-79240000D01*
%TO.C,U6*%
X134500000Y-115600000D02*
X137000000Y-115600000D01*
X135000000Y-117600000D02*
X137000000Y-117600000D01*
%TO.C,C25*%
X151107836Y-84860000D02*
X150892164Y-84860000D01*
X151107836Y-84140000D02*
X150892164Y-84140000D01*
%TO.C,C3*%
X133740580Y-96310000D02*
X133459420Y-96310000D01*
X133740580Y-95290000D02*
X133459420Y-95290000D01*
%TO.C,Q3*%
X128000000Y-95560000D02*
X129675000Y-95560000D01*
X128000000Y-95560000D02*
X127350000Y-95560000D01*
X128000000Y-92440000D02*
X128650000Y-92440000D01*
X128000000Y-92440000D02*
X127350000Y-92440000D01*
%TO.C,C20*%
X128892164Y-78140000D02*
X129107836Y-78140000D01*
X128892164Y-78860000D02*
X129107836Y-78860000D01*
%TO.C,R28*%
X145346359Y-76620000D02*
X145653641Y-76620000D01*
X145346359Y-77380000D02*
X145653641Y-77380000D01*
%TO.C,C11*%
X136007836Y-115360000D02*
X135792164Y-115360000D01*
X136007836Y-114640000D02*
X135792164Y-114640000D01*
%TO.C,U5*%
X137880000Y-123000000D02*
X137880000Y-121000000D01*
X140120000Y-121000000D02*
X140120000Y-122000000D01*
%TO.C,C27*%
X150872164Y-85140000D02*
X151087836Y-85140000D01*
X150872164Y-85860000D02*
X151087836Y-85860000D01*
%TO.C,Q2*%
X140440000Y-81600000D02*
X140440000Y-83275000D01*
X140440000Y-81600000D02*
X140440000Y-80950000D01*
X143560000Y-81600000D02*
X143560000Y-82250000D01*
X143560000Y-81600000D02*
X143560000Y-80950000D01*
%TO.C,U3*%
X140590000Y-110790000D02*
X141240000Y-110790000D01*
X147810000Y-111440000D02*
X147810000Y-110790000D01*
X140590000Y-111440000D02*
X140590000Y-110790000D01*
X147810000Y-117360000D02*
X147810000Y-118010000D01*
X140590000Y-117360000D02*
X140590000Y-118010000D01*
X147810000Y-118010000D02*
X147160000Y-118010000D01*
X140590000Y-118010000D02*
X141240000Y-118010000D01*
%TO.C,R2*%
X148577341Y-125560060D02*
X148360060Y-125777341D01*
X148039940Y-125022659D02*
X147822659Y-125239940D01*
%TO.C,U13*%
X130314444Y-72946903D02*
X134298161Y-75246903D01*
X134298161Y-75246903D02*
X134548161Y-74813890D01*
X130131431Y-72263890D02*
X131631431Y-69665814D01*
X134115148Y-74563890D02*
X135865148Y-71532801D01*
X134548161Y-74813890D02*
X134115148Y-74563890D01*
X132314444Y-69482801D02*
X135865148Y-71532801D01*
X130131432Y-72263891D02*
G75*
G03*
X130314444Y-72946902I433013J-249999D01*
G01*
X132314444Y-69482801D02*
G75*
G03*
X131631431Y-69665814I-250000J-433013D01*
G01*
%TO.C,U2*%
X144380000Y-123000000D02*
X144380000Y-121000000D01*
X146620000Y-121000000D02*
X146620000Y-122000000D01*
%TO.C,R6*%
X138977500Y-77737258D02*
X138977500Y-77262742D01*
X140022500Y-77737258D02*
X140022500Y-77262742D01*
%TO.C,C22*%
X135792164Y-78640000D02*
X136007836Y-78640000D01*
X135792164Y-79360000D02*
X136007836Y-79360000D01*
%TO.C,R26*%
X149220000Y-94153641D02*
X149220000Y-93846359D01*
X149980000Y-94153641D02*
X149980000Y-93846359D01*
%TO.C,R23*%
X124237258Y-93522500D02*
X123762742Y-93522500D01*
X124237258Y-92477500D02*
X123762742Y-92477500D01*
%TO.C,U18*%
X147560000Y-80000000D02*
X147560000Y-78200000D01*
X147560000Y-80000000D02*
X147560000Y-80800000D01*
X144440000Y-80000000D02*
X144440000Y-79200000D01*
X144440000Y-80000000D02*
X144440000Y-80800000D01*
%TO.C,R4*%
X144846359Y-127620000D02*
X145153641Y-127620000D01*
X144846359Y-128380000D02*
X145153641Y-128380000D01*
%TO.C,J4*%
X143970000Y-125610000D02*
X143970000Y-124500000D01*
X144730000Y-125610000D02*
X143970000Y-125610000D01*
X145490000Y-125610000D02*
X146695000Y-125610000D01*
X145490000Y-125610000D02*
X145490000Y-125063471D01*
X146695000Y-125610000D02*
X146695000Y-124807530D01*
X146695000Y-124192470D02*
X146695000Y-123390000D01*
X145490000Y-123936529D02*
X145490000Y-123390000D01*
X145490000Y-123390000D02*
X146695000Y-123390000D01*
%TO.C,U19*%
X151000000Y-83560000D02*
X152800000Y-83560000D01*
X151000000Y-83560000D02*
X150200000Y-83560000D01*
X151000000Y-80440000D02*
X151800000Y-80440000D01*
X151000000Y-80440000D02*
X150200000Y-80440000D01*
%TO.C,C12*%
X133459420Y-89690000D02*
X133740580Y-89690000D01*
X133459420Y-90710000D02*
X133740580Y-90710000D01*
%TO.C,C9*%
X128510000Y-88859420D02*
X128510000Y-89140580D01*
X127490000Y-88859420D02*
X127490000Y-89140580D01*
%TO.C,R9*%
X155762742Y-92477500D02*
X156237258Y-92477500D01*
X155762742Y-93522500D02*
X156237258Y-93522500D01*
%TO.C,C7*%
X142140580Y-71010000D02*
X141859420Y-71010000D01*
X142140580Y-69990000D02*
X141859420Y-69990000D01*
%TO.C,R8*%
X140477500Y-77737258D02*
X140477500Y-77262742D01*
X141522500Y-77737258D02*
X141522500Y-77262742D01*
%TO.C,C26*%
X149107836Y-79360000D02*
X148892164Y-79360000D01*
X149107836Y-78640000D02*
X148892164Y-78640000D01*
%TO.C,C19*%
X152510000Y-88859420D02*
X152510000Y-89140580D01*
X151490000Y-88859420D02*
X151490000Y-89140580D01*
%TO.C,C2*%
X132940580Y-117510000D02*
X132659420Y-117510000D01*
X132940580Y-116490000D02*
X132659420Y-116490000D01*
%TO.C,D2*%
X143485000Y-128735000D02*
X143485000Y-127265000D01*
X143485000Y-127265000D02*
X141200000Y-127265000D01*
X141200000Y-128735000D02*
X143485000Y-128735000D01*
%TO.C,J1*%
X124635355Y-118946625D02*
X126968808Y-116613173D01*
X124635355Y-118946625D02*
X121453375Y-115764645D01*
X126968808Y-116613173D02*
X123786827Y-113431192D01*
X121453375Y-115764645D02*
X123786827Y-113431192D01*
%TO.C,R24*%
X130780000Y-93846359D02*
X130780000Y-94153641D01*
X130020000Y-93846359D02*
X130020000Y-94153641D01*
D11*
%TO.C,U9*%
X141700000Y-101350000D02*
X140880000Y-101350000D01*
X141600000Y-98650000D02*
X141600000Y-98870000D01*
X141600000Y-98650000D02*
X140880000Y-98650000D01*
X139120000Y-101350000D02*
X138400000Y-101350000D01*
X138400000Y-101350000D02*
X138400000Y-101130000D01*
X138400000Y-98870000D02*
X138400000Y-98650000D01*
X138400000Y-98650000D02*
X139120000Y-98650000D01*
D12*
%TO.C,Q1*%
X156900000Y-107740000D02*
X155225000Y-107740000D01*
X156900000Y-107740000D02*
X157550000Y-107740000D01*
X156900000Y-110860000D02*
X156250000Y-110860000D01*
X156900000Y-110860000D02*
X157550000Y-110860000D01*
%TO.C,U11*%
X134560000Y-80000000D02*
X134560000Y-78200000D01*
X134560000Y-80000000D02*
X134560000Y-80800000D01*
X131440000Y-80000000D02*
X131440000Y-79200000D01*
X131440000Y-80000000D02*
X131440000Y-80800000D01*
%TO.C,R18*%
X139580000Y-117046359D02*
X139580000Y-117353641D01*
X138820000Y-117046359D02*
X138820000Y-117353641D01*
%TO.C,C28*%
X139692164Y-87340000D02*
X139907836Y-87340000D01*
X139692164Y-88060000D02*
X139907836Y-88060000D01*
%TO.C,R5*%
X136846359Y-90620000D02*
X137153641Y-90620000D01*
X136846359Y-91380000D02*
X137153641Y-91380000D01*
%TO.C,SW1*%
X127540202Y-117610984D02*
X126981588Y-118169598D01*
X126691674Y-119308040D02*
X130722183Y-123338549D01*
X129590812Y-118176670D02*
X130792893Y-119378751D01*
X127716979Y-120333345D02*
X126804811Y-121245513D01*
X126804811Y-121245513D02*
X126797740Y-121535427D01*
X126797740Y-121535427D02*
X127434136Y-122171823D01*
X127724050Y-122164752D02*
X127434136Y-122171823D01*
X127724050Y-122164752D02*
X128636218Y-121252584D01*
X131712132Y-120297990D02*
X131853553Y-120439411D01*
X131860625Y-123048635D02*
X132419239Y-122490021D01*
%TO.C,R14*%
X149920000Y-117253641D02*
X149920000Y-116946359D01*
X150680000Y-117253641D02*
X150680000Y-116946359D01*
%TO.C,C8*%
X137360000Y-121788748D02*
X137360000Y-123211252D01*
X134640000Y-121788748D02*
X134640000Y-123211252D01*
%TO.C,C16*%
X138892164Y-97140000D02*
X139107836Y-97140000D01*
X138892164Y-97860000D02*
X139107836Y-97860000D01*
%TO.C,C1*%
X132940580Y-115910000D02*
X132659420Y-115910000D01*
X132940580Y-114890000D02*
X132659420Y-114890000D01*
%TO.C,C29*%
X139907836Y-89160000D02*
X139692164Y-89160000D01*
X139907836Y-88440000D02*
X139692164Y-88440000D01*
%TO.C,J5*%
X137740000Y-125610000D02*
X137740000Y-124500000D01*
X138500000Y-125610000D02*
X137740000Y-125610000D01*
X139260000Y-125610000D02*
X140465000Y-125610000D01*
X139260000Y-125610000D02*
X139260000Y-125063471D01*
X140465000Y-125610000D02*
X140465000Y-124807530D01*
X140465000Y-124192470D02*
X140465000Y-123390000D01*
X139260000Y-123936529D02*
X139260000Y-123390000D01*
X139260000Y-123390000D02*
X140465000Y-123390000D01*
%TO.C,C23*%
X136007836Y-78360000D02*
X135792164Y-78360000D01*
X136007836Y-77640000D02*
X135792164Y-77640000D01*
%TO.C,D1*%
X136515000Y-127265000D02*
X136515000Y-128735000D01*
X136515000Y-128735000D02*
X138800000Y-128735000D01*
X138800000Y-127265000D02*
X136515000Y-127265000D01*
%TO.C,R3*%
X137153641Y-91620000D02*
X136846359Y-91620000D01*
X137153641Y-92380000D02*
X136846359Y-92380000D01*
%TO.C,C10*%
X141492164Y-118640000D02*
X141707836Y-118640000D01*
X141492164Y-119360000D02*
X141707836Y-119360000D01*
%TO.C,U15*%
X154269078Y-83837104D02*
X153911740Y-87921503D01*
X153911740Y-87921503D02*
X157398421Y-88226548D01*
X154810753Y-83382585D02*
X157799337Y-83644052D01*
X157354843Y-88724645D02*
X157398421Y-88226548D01*
X157354843Y-88724645D02*
X157852941Y-88768223D01*
X158253857Y-84185727D02*
X157852941Y-88768223D01*
X154810753Y-83382586D02*
G75*
G03*
X154269079Y-83837104I-43577J-498097D01*
G01*
X158253856Y-84185727D02*
G75*
G03*
X157799337Y-83644053I-498096J43578D01*
G01*
%TO.C,D3*%
X155240000Y-111100000D02*
X155240000Y-112300000D01*
X157200000Y-111100000D02*
X155240000Y-111100000D01*
X157200000Y-112300000D02*
X155240000Y-112300000D01*
%TO.C,R1*%
X135153641Y-128380000D02*
X134846359Y-128380000D01*
X135153641Y-127620000D02*
X134846359Y-127620000D01*
%TO.C,R16*%
X138153641Y-84380000D02*
X137846359Y-84380000D01*
X138153641Y-83620000D02*
X137846359Y-83620000D01*
%TO.C,C4*%
X130810000Y-112559420D02*
X130810000Y-112840580D01*
X129790000Y-112559420D02*
X129790000Y-112840580D01*
%TO.C,U10*%
X140000000Y-89440000D02*
X138200000Y-89440000D01*
X140000000Y-89440000D02*
X140800000Y-89440000D01*
X140000000Y-92560000D02*
X139200000Y-92560000D01*
X140000000Y-92560000D02*
X140800000Y-92560000D01*
%TO.C,Q4*%
X136440000Y-81600000D02*
X136440000Y-83275000D01*
X136440000Y-81600000D02*
X136440000Y-80950000D01*
X139560000Y-81600000D02*
X139560000Y-82250000D01*
X139560000Y-81600000D02*
X139560000Y-80950000D01*
%TO.C,R27*%
X134346359Y-76620000D02*
X134653641Y-76620000D01*
X134346359Y-77380000D02*
X134653641Y-77380000D01*
%TO.C,U12*%
X121746143Y-84185727D02*
X122147059Y-88768223D01*
X122147059Y-88768223D02*
X122645157Y-88724645D01*
X122200663Y-83644052D02*
X125189247Y-83382585D01*
X122601579Y-88226548D02*
X126088260Y-87921503D01*
X122645157Y-88724645D02*
X122601579Y-88226548D01*
X125730922Y-83837104D02*
X126088260Y-87921503D01*
X122200663Y-83644053D02*
G75*
G03*
X121746144Y-84185727I43578J-498097D01*
G01*
X125730921Y-83837104D02*
G75*
G03*
X125189247Y-83382586I-498096J-43578D01*
G01*
%TO.C,C5*%
X143860000Y-121788748D02*
X143860000Y-123211252D01*
X141140000Y-121788748D02*
X141140000Y-123211252D01*
%TO.C,R17*%
X138580000Y-117046359D02*
X138580000Y-117353641D01*
X137820000Y-117046359D02*
X137820000Y-117353641D01*
%TO.C,U4*%
X129000000Y-80440000D02*
X127200000Y-80440000D01*
X129000000Y-80440000D02*
X129800000Y-80440000D01*
X129000000Y-83560000D02*
X128200000Y-83560000D01*
X129000000Y-83560000D02*
X129800000Y-83560000D01*
%TO.C,C6*%
X136834420Y-112790000D02*
X137115580Y-112790000D01*
X136834420Y-113810000D02*
X137115580Y-113810000D01*
%TO.C,R7*%
X154120000Y-118153641D02*
X154120000Y-117846359D01*
X154880000Y-118153641D02*
X154880000Y-117846359D01*
%TO.C,R22*%
X142153641Y-84380000D02*
X141846359Y-84380000D01*
X142153641Y-83620000D02*
X141846359Y-83620000D01*
%TO.C,R29*%
X154380000Y-81346359D02*
X154380000Y-81653641D01*
X153620000Y-81346359D02*
X153620000Y-81653641D01*
%TO.C,D4*%
X151769777Y-122869670D02*
X150730330Y-121830223D01*
X150730330Y-121830223D02*
X149114591Y-123445962D01*
X150154038Y-124485409D02*
X151769777Y-122869670D01*
%TO.C,C15*%
X140892164Y-97140000D02*
X141107836Y-97140000D01*
X140892164Y-97860000D02*
X141107836Y-97860000D01*
%TO.C,C24*%
X148892164Y-77640000D02*
X149107836Y-77640000D01*
X148892164Y-78360000D02*
X149107836Y-78360000D01*
%TO.C,U14*%
X147685556Y-69482801D02*
X144134852Y-71532801D01*
X144134852Y-71532801D02*
X145884852Y-74563890D01*
X148368569Y-69665814D02*
X149868569Y-72263890D01*
X145451839Y-74813890D02*
X145884852Y-74563890D01*
X145451839Y-74813890D02*
X145701839Y-75246903D01*
X149685556Y-72946903D02*
X145701839Y-75246903D01*
X148368569Y-69665814D02*
G75*
G03*
X147685556Y-69482801I-433013J-250001D01*
G01*
X149685556Y-72946903D02*
G75*
G03*
X149868569Y-72263890I-250000J433013D01*
G01*
%TO.C,J3*%
X153510000Y-120970000D02*
X152400000Y-120970000D01*
X153510000Y-120210000D02*
X153510000Y-120970000D01*
X153510000Y-119450000D02*
X153510000Y-114435000D01*
X153510000Y-119450000D02*
X152963471Y-119450000D01*
X153510000Y-114435000D02*
X152707530Y-114435000D01*
X152092470Y-114435000D02*
X151290000Y-114435000D01*
X151836529Y-119450000D02*
X151290000Y-119450000D01*
X151290000Y-119450000D02*
X151290000Y-114435000D01*
%TO.C,LS1*%
X154100000Y-116750000D02*
X154100000Y-112750000D01*
X155100000Y-116750000D02*
X154100000Y-116750000D01*
X158100000Y-116750000D02*
X157100000Y-116750000D01*
X154100000Y-112750000D02*
X155100000Y-112750000D01*
X157100000Y-112750000D02*
X158100000Y-112750000D01*
X158100000Y-112750000D02*
X158100000Y-116750000D01*
%TD*%
M02*
